<?xml version="1.0" standalone="no"?>
<!DOCTYPE svg PUBLIC "-//W3C//DTD SVG 20010904//EN"
 "http://www.w3.org/TR/2001/REC-SVG-20010904/DTD/svg10.dtd">
<svg version="1.0" xmlns="http://www.w3.org/2000/svg"
 width="135.000000pt" height="135.000000pt" viewBox="0 0 135.000000 135.000000"
 preserveAspectRatio="xMidYMid meet">
<metadata>
Created by potrace 1.14, written by Peter Selinger 2001-2017
</metadata>
<g transform="translate(0.000000,135.000000) scale(0.100000,-0.100000)"
fill="#000000" stroke="none">
<path d="M70 1300 l0 -50 105 0 105 0 0 -260 c0 -166 4 -260 10 -261 13 -1 96
-1 113 0 9 1 12 60 11 261 l-1 260 104 0 c75 0 103 3 104 13 1 6 2 28 2 47 l1
35 -277 3 -277 2 0 -50z"/>
<path d="M920 1341 c-189 -57 -269 -242 -194 -451 l17 -48 -26 -32 c-15 -17
-27 -35 -26 -38 0 -4 14 -18 31 -31 l31 -25 27 31 28 31 53 -26 c38 -18 76
-27 127 -30 206 -13 344 104 346 293 1 112 -15 164 -70 231 -53 65 -125 96
-232 99 -48 2 -98 0 -112 -4z m216 -148 c21 -11 51 -35 67 -55 53 -66 41 -189
-24 -237 -64 -46 -187 -61 -262 -32 l-28 11 36 44 36 44 -31 26 c-18 14 -35
26 -38 26 -4 0 -20 -18 -37 -40 -29 -40 -29 -40 -42 -18 -17 32 -16 114 3 154
32 66 111 102 216 99 43 -2 80 -9 104 -22z"/>
<path d="M265 630 c-99 -15 -187 -79 -227 -166 -19 -40 -23 -66 -23 -145 0
-87 3 -100 31 -155 35 -66 101 -124 166 -143 46 -14 157 -17 208 -6 86 18 168
85 202 163 39 86 34 241 -9 307 -11 19 -9 25 19 59 l32 39 -35 28 -34 28 -26
-31 -26 -32 -53 23 c-78 34 -145 43 -225 31z m156 -142 l39 -11 -37 -45 -37
-45 35 -28 34 -29 37 43 37 42 11 -30 c7 -16 10 -53 8 -82 -8 -97 -78 -154
-200 -161 -157 -10 -254 78 -234 213 9 55 61 114 116 132 47 15 144 16 191 1z"/>
<path d="M954 617 c-2 -7 -5 -124 -6 -262 l-3 -250 -75 -2 c-147 -3 -132 3
-128 -50 l3 -48 260 0 c143 -1 267 1 275 3 17 4 22 92 5 93 -5 0 -53 1 -105 2
l-95 2 0 258 c0 288 7 264 -78 265 -28 0 -50 -4 -53 -11z"/>
</g>
</svg>
