<?xml version="1.0" standalone="no"?>
<!DOCTYPE svg PUBLIC "-//W3C//DTD SVG 1.1//EN" "http://www.w3.org/Graphics/SVG/1.1/DTD/svg11.dtd" >
<svg xmlns="http://www.w3.org/2000/svg" xmlns:xlink="http://www.w3.org/1999/xlink" version="1.1">
<metadata>
Created by FontForge 20190801 at Tue Jun  3 22:02:55 2014
 By Jimmy Wärting
Copyright \(c\)2014 Commercial Type.
</metadata>
<defs>
<font id="Druk-Medium" horiz-adv-x="342" >
  <font-face 
    font-family="Druk"
    font-weight="500"
    font-stretch="normal"
    units-per-em="1000"
    panose-1="0 0 0 0 0 0 0 0 0 0"
    ascent="800"
    descent="-200"
    x-height="538"
    cap-height="744"
    bbox="-50 -215 878 1054"
    underline-thickness="84"
    underline-position="-20"
    unicode-range="U+000D-FB02"
  />
<missing-glyph horiz-adv-x="102" 
 />
    <glyph glyph-name="f_f" unicode="ff" horiz-adv-x="454" 
d="M445 744v-99h-48c-19 0 -22 -7 -22 -26v-81h70v-102h-70v-436h-107v436h-91v-436h-107v436h-64v102h64v137c0 29 16 69 76 69h100v-99h-47c-19 0 -22 -7 -22 -26v-81h91v137c0 29 16 69 76 69h101z" />
    <glyph glyph-name="f_i" unicode="fi" horiz-adv-x="395" 
d="M243 744v-99h-44c-19 0 -22 -7 -22 -26v-81h66v-102h-66v-436h-107v436h-64v102h64v137c0 29 16 69 76 69h97zM375 538v-538h-107v538h107zM375 682v-115h-107v115h107z" />
    <glyph glyph-name="f_l" unicode="fl" horiz-adv-x="395" 
d="M243 744v-99h-44c-19 0 -22 -7 -22 -26v-81h66v-102h-66v-436h-107v436h-64v102h64v137c0 29 16 69 76 69h97zM375 744v-744h-107v744h107z" />
    <glyph glyph-name="emdash.alt" unicode="&#x2014;&#x2014;" horiz-adv-x="894" 
d="M878 261h-862v78h862v-78z" />
    <glyph glyph-name=".notdef" horiz-adv-x="102" 
 />
    <glyph glyph-name="NULL" horiz-adv-x="0" 
 />
    <glyph glyph-name="NULL" horiz-adv-x="0" 
 />
    <glyph glyph-name="CR" unicode="&#xd;" horiz-adv-x="102" 
 />
    <glyph glyph-name="space" unicode=" " horiz-adv-x="102" 
 />
    <glyph glyph-name="percent" unicode="%" horiz-adv-x="465" 
d="M14 508v144c0 63 36 97 92 97h19c56 0 90 -36 90 -97v-144c0 -59 -33 -97 -90 -97h-19c-53 0 -92 33 -92 97zM251 93v144c0 63 36 97 92 97h18c56 0 90 -36 90 -97v-144c0 -59 -32 -97 -89 -97h-19c-53 0 -92 33 -92 97zM331 744h74l-268 -744h-74zM134 510v141
c0 13 -6 23 -21 23c-12 0 -18 -10 -18 -23v-141c0 -13 6 -23 18 -23c15 0 21 10 21 23zM350 72c15 0 20 11 20 23v141c0 13 -5 23 -20 23c-13 0 -18 -10 -18 -23v-141c0 -12 5 -23 18 -23z" />
    <glyph glyph-name="ampersand" unicode="&#x26;" horiz-adv-x="425" 
d="M13 194v37c0 96 46 156 89 193c-27 60 -45 112 -45 175v26c0 67 34 126 120 126h20c95 0 113 -59 113 -131v-11c0 -70 -14 -114 -94 -189l88 -202c9 72 7 158 7 229h99c-3 -139 -9 -245 -46 -337c21 -21 40 -25 59 -28l-29 -100c-28 5 -59 11 -90 42
c-19 -19 -48 -33 -92 -33h-18c-117 0 -181 75 -181 203zM213 87c15 0 29 4 40 12l-2 6l-112 239c-9 -21 -17 -53 -17 -94v-15c0 -107 39 -148 91 -148zM156 618v-14c0 -39 9 -67 28 -112c27 40 31 66 31 111v16c0 29 -6 44 -29 44c-20 0 -30 -15 -30 -45z" />
    <glyph glyph-name="quotesingle" unicode="'" horiz-adv-x="118" 
d="M101 744v-175h-84v175h84z" />
    <glyph glyph-name="parenleft" unicode="(" horiz-adv-x="207" 
d="M31 344c0 209 51 358 107 464h67c-39 -107 -70 -269 -70 -461c0 -195 36 -361 73 -478h-67c-51 99 -110 259 -110 475z" />
    <glyph glyph-name="parenright" unicode=")" horiz-adv-x="207" 
d="M72 347c0 192 -31 354 -70 461h67c56 -106 107 -255 107 -464c0 -216 -59 -376 -110 -475h-67c37 117 73 283 73 478z" />
    <glyph glyph-name="asterisk" unicode="*" horiz-adv-x="237" 
d="M145 679l50 38l31 -55l-58 -24l58 -27l-32 -54l-50 39l7 -65h-65l7 65l-50 -39l-32 54l57 27l-57 24l31 55l50 -38l-6 65h65z" />
    <glyph glyph-name="plus" unicode="+" horiz-adv-x="337" 
d="M123 135v125h-107v85h107v126h91v-126h107v-85h-107v-125h-91z" />
    <glyph glyph-name="comma" unicode="," horiz-adv-x="137" 
d="M94 -90h-56c7 17 18 57 21 90h-43v128h105v-94c0 -63 -16 -103 -27 -124z" />
    <glyph glyph-name="hyphen" unicode="-" horiz-adv-x="173" 
d="M16 347h141v-98h-141v98z" />
    <glyph glyph-name="period" unicode="." horiz-adv-x="137" 
d="M121 128v-128h-105v128h105z" />
    <glyph glyph-name="slash" unicode="/" horiz-adv-x="209" 
d="M205 808l-128 -939h-84l128 939h84z" />
    <glyph glyph-name="zero" unicode="0" horiz-adv-x="341" 
d="M320 582v-436c0 -89 -48 -155 -139 -155h-25c-88 0 -135 52 -135 155v434c0 108 38 171 141 171h21c106 0 137 -69 137 -169zM205 154v432c0 39 -8 55 -35 55s-34 -18 -34 -55v-432c0 -27 4 -50 33 -50s36 21 36 50z" />
    <glyph glyph-name="one" unicode="1" horiz-adv-x="224" 
d="M84 570h-76v92c67 4 88 23 99 82h91v-744h-114v570z" />
    <glyph glyph-name="two" unicode="2" horiz-adv-x="330" 
d="M163 643c-21 0 -28 -11 -28 -39v-127h-108v136c0 71 29 138 123 138h23c84 0 138 -38 138 -138v-37c0 -88 -4 -121 -66 -215c-20 -31 -49 -70 -72 -102c-67 -96 -71 -122 -71 -153h100v143h114v-249h-308v56c0 97 15 146 87 271l65 115c32 56 32 77 32 114v48
c0 28 -10 39 -29 39z" />
    <glyph glyph-name="three" unicode="3" horiz-adv-x="327" 
d="M129 520h-105v94c0 59 25 137 117 137h28c93 0 133 -56 133 -139v-85c0 -77 -20 -104 -47 -117c35 -13 54 -34 54 -89v-183c0 -91 -51 -147 -131 -147h-31c-96 0 -131 57 -131 128v151h112v-122c0 -29 11 -44 33 -44c21 0 31 15 31 44v155c0 27 -3 38 -30 38h-61v116h53
c28 0 32 9 32 42v104c0 31 -8 41 -29 41c-20 0 -28 -9 -28 -40v-84z" />
    <glyph glyph-name="four" unicode="4" horiz-adv-x="346" 
d="M161 282v198c-20 -65 -43 -131 -68 -198h68zM7 180v93c42 111 132 365 167 474h98v-465h69v-102h-69v-180h-111v180h-154z" />
    <glyph glyph-name="five" unicode="5" horiz-adv-x="329" 
d="M137 333h-111v411h278v-112h-167v-167c19 39 50 73 91 73h4c59 0 79 -44 79 -88v-319c0 -70 -38 -140 -136 -140h-21c-115 0 -138 75 -138 128v153h116v-131c0 -25 6 -43 30 -43c21 0 28 19 28 43v237c0 21 -1 44 -26 44s-27 -23 -27 -44v-45z" />
    <glyph glyph-name="six" unicode="6" horiz-adv-x="336" 
d="M170 98c22 0 33 16 33 47v181c0 31 -11 46 -33 46s-33 -15 -33 -44v-183c0 -31 11 -47 33 -47zM233 475h4c62 0 82 -51 82 -88v-247c0 -80 -38 -149 -138 -149h-21c-100 0 -139 67 -139 144v470c0 91 36 146 132 146h20c93 0 132 -49 132 -117v-110h-115v85
c0 17 -4 36 -27 36s-27 -19 -27 -36v-201c19 29 51 67 97 67z" />
    <glyph glyph-name="seven" unicode="7" horiz-adv-x="306" 
d="M15 744h280v-109l-41 -237c-24 -144 -33 -265 -33 -314v-84h-137v73c0 53 8 127 54 274c64 218 70 265 70 295h-86v-118h-107v220z" />
    <glyph glyph-name="eight" unicode="8" horiz-adv-x="329" 
d="M195 137v158c0 28 -8 43 -31 43s-30 -12 -30 -43v-158c0 -21 8 -37 31 -37c21 0 30 16 30 37zM193 490v120c0 21 -2 41 -29 41s-28 -20 -28 -41v-119c0 -21 8 -38 29 -38c19 0 28 14 28 37zM305 620v-112c0 -53 -25 -81 -48 -96c35 -20 56 -48 56 -104v-179
c0 -75 -40 -138 -139 -138h-21c-99 0 -137 63 -137 140v177c0 56 29 88 52 104c-21 17 -45 43 -45 96v116c0 60 29 127 129 127h20c93 0 133 -55 133 -131z" />
    <glyph glyph-name="nine" unicode="9" horiz-adv-x="336" 
d="M104 267h-3c-54 0 -84 56 -84 104v240c0 77 35 140 138 140h23c104 0 137 -61 137 -140v-490c0 -76 -41 -130 -130 -130h-25c-97 0 -130 53 -130 129v98h117v-84c0 -19 4 -38 28 -38c21 0 25 19 25 38v199c-16 -24 -50 -66 -96 -66zM166 644c-29 0 -33 -25 -33 -46v-181
c0 -31 11 -47 33 -47c25 0 34 17 34 45v183c0 24 -5 46 -34 46z" />
    <glyph glyph-name="colon" unicode=":" horiz-adv-x="141" 
d="M123 128v-128h-105v128h105zM123 427v-128h-105v128h105z" />
    <glyph glyph-name="semicolon" unicode=";" horiz-adv-x="141" 
d="M96 -90h-56c7 17 18 57 21 90h-43v128h105v-94c0 -63 -16 -103 -27 -124z" />
    <glyph glyph-name="less" unicode="&#x3c;" horiz-adv-x="283" 
d="M10 265v76l260 104v-82l-162 -61l162 -60v-81z" />
    <glyph glyph-name="equal" unicode="=" horiz-adv-x="334" 
d="M18 287h298v-76h-298v76zM18 394h298v-76h-298v76z" />
    <glyph glyph-name="greater" unicode="&#x3e;" horiz-adv-x="283" 
d="M13 363v82l260 -104v-76l-260 -104v81l161 61z" />
    <glyph glyph-name="question" unicode="?" horiz-adv-x="305" 
d="M183 153h-91v120c0 63 3 81 35 134l29 49c22 35 23 58 23 97v54c0 28 -6 39 -29 39s-27 -11 -27 -39v-120h-108v120c0 84 21 146 124 146h22c103 0 133 -52 133 -139v-74c0 -50 -11 -84 -45 -134l-33 -46c-29 -43 -33 -61 -33 -120v-87zM190 128v-128h-104v128h104z" />
    <glyph glyph-name="at" unicode="@" horiz-adv-x="544" 
d="M435 27l47 -57c-22 -33 -86 -109 -202 -109h-7c-116 0 -256 48 -256 396v90c0 252 87 378 262 378h12c167 0 236 -105 236 -310v-90c0 -214 -49 -287 -131 -287h-2c-69 0 -85 43 -90 62c-27 -43 -49 -62 -84 -62h-6c-36 0 -75 34 -72 108l13 309c3 43 24 87 72 87h5
c28 0 51 -20 70 -51l2 47h106l-21 -410c0 -9 0 -18 13 -18c27 0 47 50 47 213v93c0 176 -53 236 -158 236h-12c-115 0 -181 -87 -181 -307v-87c0 -300 114 -321 175 -321h7c78 0 136 58 155 90zM286 155l13 268c1 21 -3 32 -20 32c-15 0 -19 -12 -20 -32l-13 -268
c-1 -15 -1 -32 18 -32c16 0 21 13 22 32z" />
    <glyph glyph-name="A" unicode="A" horiz-adv-x="320" 
d="M212 0l-15 140h-83l-14 -140h-101l91 744h134l97 -744h-109zM155 526l-29 -275h59z" />
    <glyph glyph-name="B" unicode="B" horiz-adv-x="345" 
d="M23 0v744h178c93 0 119 -49 119 -121v-114c0 -63 -27 -92 -56 -103c29 -11 65 -34 65 -109v-161c0 -79 -35 -136 -120 -136h-186zM170 339h-34v-234h34c36 0 44 17 44 50v136c0 31 -8 48 -44 48zM170 643h-34v-193h34c31 0 39 21 39 52v94c0 31 -8 47 -39 47z" />
    <glyph glyph-name="C" unicode="C" horiz-adv-x="336" 
d="M208 151v173h111v-172c0 -80 -27 -161 -135 -161h-25c-115 0 -139 82 -139 157v454c0 76 33 149 135 149h26c124 0 138 -82 138 -155v-133h-111v131c0 32 -10 49 -38 49s-35 -16 -35 -49v-442c0 -34 12 -51 36 -51c27 0 37 19 37 50z" />
    <glyph glyph-name="D" unicode="D" horiz-adv-x="344" 
d="M23 0v744h173c97 0 127 -55 127 -143v-453c0 -92 -34 -148 -127 -148h-173zM136 643v-535h27c35 0 44 18 44 58v419c0 43 -11 58 -39 58h-32z" />
    <glyph glyph-name="E" unicode="E" horiz-adv-x="296" 
d="M23 744h257v-108h-144v-195h113v-113h-113v-215h150v-113h-263v744z" />
    <glyph glyph-name="F" unicode="F" horiz-adv-x="290" 
d="M23 0v744h257v-108h-144v-196h114v-113h-114v-327h-113z" />
    <glyph glyph-name="G" unicode="G" horiz-adv-x="341" 
d="M135 -10h-7c-67 0 -108 59 -108 136v465c0 83 31 160 139 160h22c121 0 135 -79 135 -167v-76h-110v84c0 33 -8 51 -36 51c-23 0 -35 -17 -35 -51v-435c0 -35 12 -53 37 -53c29 0 42 20 42 48v186h-51v114h158v-452h-64c-1 4 -10 41 -19 73c-8 -25 -46 -83 -103 -83z" />
    <glyph glyph-name="H" unicode="H" horiz-adv-x="349" 
d="M136 327v-327h-113v744h113v-298h77v298h113v-744h-113v327h-77z" />
    <glyph glyph-name="I" unicode="I" horiz-adv-x="159" 
d="M136 744v-744h-113v744h113z" />
    <glyph glyph-name="J" unicode="J" horiz-adv-x="319" 
d="M15 328h111v-183c0 -27 6 -41 27 -41h4c21 0 26 18 26 41v599h115v-608c0 -97 -49 -142 -128 -142h-31c-73 0 -124 33 -124 135v199z" />
    <glyph glyph-name="K" unicode="K" 
d="M136 323v-323h-113v744h113v-298l89 298h110l-105 -346l116 -398h-116z" />
    <glyph glyph-name="L" unicode="L" horiz-adv-x="284" 
d="M23 744h113v-629h138v-115h-251v744z" />
    <glyph glyph-name="M" unicode="M" horiz-adv-x="435" 
d="M23 0v744h145l54 -393l55 393h135v-744h-106v481l-68 -481h-45l-69 481v-481h-101z" />
    <glyph glyph-name="N" unicode="N" horiz-adv-x="348" 
d="M23 744h102l97 -399v399h103v-744h-92l-108 428v-428h-102v744z" />
    <glyph glyph-name="O" unicode="O" horiz-adv-x="349" 
d="M329 581v-415c0 -104 -35 -175 -144 -175h-19c-108 0 -146 71 -146 175v414c0 104 38 171 145 171h19c110 0 145 -68 145 -170zM214 158v428c0 38 -13 57 -39 57c-29 0 -40 -18 -40 -57v-428c0 -32 9 -57 41 -57c31 0 38 25 38 57z" />
    <glyph glyph-name="P" unicode="P" horiz-adv-x="333" 
d="M202 309h-66v-309h-113v744h179c80 0 116 -34 116 -123v-176c0 -88 -39 -136 -116 -136zM136 643v-227h29c35 0 39 23 39 54v122c0 29 -6 51 -39 51h-29z" />
    <glyph glyph-name="Q" unicode="Q" horiz-adv-x="349" 
d="M329 581v-415c0 -91 -27 -156 -106 -171l52 -150h-135v148c-88 11 -120 77 -120 173v414c0 104 38 171 145 171h19c110 0 145 -68 145 -170zM214 158v428c0 38 -13 57 -39 57c-29 0 -40 -18 -40 -57v-428c0 -32 9 -57 41 -57c31 0 38 25 38 57z" />
    <glyph glyph-name="R" unicode="R" horiz-adv-x="339" 
d="M136 643v-205h30c31 0 41 20 41 53v104c0 32 -6 48 -41 48h-30zM136 332v-332h-113v744h183c76 0 113 -31 113 -115v-132c0 -62 -29 -87 -49 -95c25 -11 49 -30 49 -81v-261c0 -31 6 -44 11 -55v-5h-112c-5 8 -11 21 -11 61v224c0 33 -6 47 -42 47h-29z" />
    <glyph glyph-name="S" unicode="S" horiz-adv-x="333" 
d="M159 751h21c93 0 129 -41 129 -129v-122h-109v107c0 25 -5 44 -32 44s-33 -17 -33 -52v-14c0 -42 8 -65 46 -114l72 -93c51 -66 67 -103 67 -188v-24c0 -109 -46 -174 -146 -174h-22c-91 0 -138 49 -138 141v149h112v-130c0 -35 12 -52 37 -52c27 0 37 17 37 64v17
c0 54 -5 71 -46 125l-72 92c-48 62 -62 110 -62 184v24c0 100 50 145 139 145z" />
    <glyph glyph-name="T" unicode="T" horiz-adv-x="320" 
d="M9 744h302v-108h-95v-636h-112v636h-95v108z" />
    <glyph glyph-name="U" unicode="U" horiz-adv-x="345" 
d="M21 162v582h115v-589c0 -32 11 -53 36 -53c27 0 37 20 37 53v589h115v-582c0 -105 -42 -171 -142 -171h-20c-100 0 -141 63 -141 171z" />
    <glyph glyph-name="V" unicode="V" horiz-adv-x="327" 
d="M95 0l-94 744h115l51 -512l52 512h107l-94 -744h-137z" />
    <glyph glyph-name="W" unicode="W" horiz-adv-x="531" 
d="M216 744h105l51 -482l52 482h106l-95 -744h-121l-47 433l-48 -433h-125l-93 744h114l51 -481z" />
    <glyph glyph-name="X" unicode="X" 
d="M97 398l-84 346h115l48 -235l46 235h110l-85 -346l96 -398h-117l-56 269l-57 -269h-114z" />
    <glyph glyph-name="Y" unicode="Y" horiz-adv-x="306" 
d="M310 744l-99 -435v-309h-113v310l-102 434h110l52 -278l50 278h102z" />
    <glyph glyph-name="Z" unicode="Z" horiz-adv-x="305" 
d="M18 744h271v-98l-163 -537h171v-109h-289v101l161 537h-151v106z" />
    <glyph glyph-name="bracketleft" unicode="[" horiz-adv-x="192" 
d="M186 808v-80h-54v-778h54v-80h-146v938h146z" />
    <glyph glyph-name="backslash" unicode="\" horiz-adv-x="209" 
d="M132 -131l-128 939h84l127 -939h-83z" />
    <glyph glyph-name="bracketright" unicode="]" horiz-adv-x="193" 
d="M6 -130v80h54v778h-54l1 80h146l-1 -938h-146z" />
    <glyph glyph-name="asciicircum" unicode="^" horiz-adv-x="221" 
d="M150 744l69 -305h-77l-33 161l-31 -161h-76l69 305h79z" />
    <glyph glyph-name="underscore" unicode="_" horiz-adv-x="313" 
d="M5 -104v84h303v-84h-303z" />
    <glyph glyph-name="grave" unicode="`" 
d="M235 567h-89l-39 130h91z" />
    <glyph glyph-name="a" unicode="a" horiz-adv-x="310" 
d="M15 81v126c0 53 12 84 51 108c24 16 78 40 93 48c11 7 13 8 13 23v34c0 27 -7 35 -26 35h-2c-21 0 -27 -10 -27 -34v-57h-96v76c0 40 12 102 113 102h20c103 0 121 -50 121 -106v-320c0 -13 2 -17 17 -17h19v-99h-102c-23 0 -35 16 -35 61c-14 -25 -42 -64 -88 -64h-3
c-43 0 -68 41 -68 84zM172 133v139c-12 -7 -27 -16 -38 -27s-14 -22 -14 -43v-74c0 -23 8 -35 25 -35c18 0 27 13 27 40z" />
    <glyph glyph-name="b" unicode="b" horiz-adv-x="312" 
d="M20 744h107v-266c11 16 40 63 89 63h3c48 0 75 -40 75 -92v-334c0 -65 -34 -119 -97 -119h-2c-53 0 -83 52 -94 76c-7 -25 -12 -57 -13 -72h-68v744zM127 400v-264c0 -25 11 -41 30 -41c20 0 28 16 28 40v265c0 23 -6 41 -29 41c-21 0 -29 -18 -29 -41z" />
    <glyph glyph-name="c" unicode="c" horiz-adv-x="297" 
d="M179 241h103v-121c0 -61 -32 -129 -121 -129h-20c-85 0 -124 59 -124 130v293c0 84 40 132 128 132h19c89 0 118 -51 118 -117v-96h-103v73c0 27 -2 45 -27 45c-24 0 -27 -17 -27 -44v-275c0 -25 6 -41 26 -41c21 0 28 16 28 40v110z" />
    <glyph glyph-name="d" unicode="d" horiz-adv-x="311" 
d="M184 744h107v-744h-107v61c-8 -22 -35 -66 -83 -66h-1c-48 0 -81 46 -81 114v328c0 51 22 104 77 104h2c49 0 72 -41 86 -60v263zM184 142v255c0 28 -7 48 -30 48c-19 0 -28 -14 -28 -43v-266c0 -29 9 -43 28 -43c23 0 30 17 30 49z" />
    <glyph glyph-name="e" unicode="e" horiz-adv-x="295" 
d="M139 545h20c84 0 120 -46 120 -134v-155h-159v-124c0 -24 6 -40 29 -40c19 0 27 16 27 39v89h103v-94c0 -96 -49 -136 -125 -136h-19c-72 0 -118 43 -118 135v291c0 73 35 129 122 129zM120 412v-68h59v68c0 24 -4 43 -29 43c-27 0 -30 -19 -30 -43z" />
    <glyph glyph-name="f" unicode="f" horiz-adv-x="256" 
d="M247 744v-99h-48c-19 0 -22 -7 -22 -26v-81h70v-102h-70v-436h-107v436h-64v102h64v137c0 29 16 69 76 69h101z" />
    <glyph glyph-name="g" unicode="g" horiz-adv-x="312" 
d="M185 -73v137c-16 -35 -44 -69 -88 -69c-43 0 -78 40 -78 100v322c0 79 27 124 79 124c47 0 70 -30 89 -65v62h105v-625c0 -39 -10 -108 -126 -108h-24c-97 0 -119 44 -119 92v78h103v-48c0 -20 7 -31 27 -31h4c23 0 28 11 28 31zM185 135v272c0 23 -7 39 -30 39
c-20 0 -28 -16 -28 -39v-273c0 -24 9 -40 29 -40c19 0 29 16 29 41z" />
    <glyph glyph-name="h" unicode="h" horiz-adv-x="313" 
d="M20 0v744h107v-267c19 32 48 64 89 64h5c57 0 72 -48 72 -83v-458h-108v403c0 25 -7 40 -28 40c-23 0 -30 -15 -30 -44v-399h-107z" />
    <glyph glyph-name="i" unicode="i" horiz-adv-x="147" 
d="M127 538v-538h-107v538h107zM127 682v-115h-107v115h107z" />
    <glyph glyph-name="j" unicode="j" horiz-adv-x="148" 
d="M128 682v-115h-107v115h107zM-50 -86h50c14 0 21 8 21 24v600h107v-648c0 -65 -36 -78 -69 -78h-109v102z" />
    <glyph glyph-name="k" unicode="k" horiz-adv-x="318" 
d="M127 342l83 196h107l-101 -230l108 -308h-111l-86 249v-249h-107v744h107v-402z" />
    <glyph glyph-name="l" unicode="l" horiz-adv-x="147" 
d="M127 744v-744h-107v744h107z" />
    <glyph glyph-name="m" unicode="m" horiz-adv-x="471" 
d="M20 0v538h105v-61c13 21 44 64 88 64h4c43 0 63 -30 70 -63c16 27 46 63 91 63h5c47 0 68 -32 68 -81v-460h-107v399c0 27 -4 44 -27 44c-20 0 -27 -13 -28 -36v-407h-107v399c0 27 -4 44 -28 44c-23 0 -27 -15 -27 -44v-399h-107z" />
    <glyph glyph-name="n" unicode="n" horiz-adv-x="313" 
d="M20 0v538h105v-63c17 30 48 66 91 66h5c55 0 72 -48 72 -83v-458h-108v403c0 25 -7 40 -28 40c-23 0 -30 -15 -30 -44v-399h-107z" />
    <glyph glyph-name="o" unicode="o" horiz-adv-x="310" 
d="M17 130v277c0 89 47 139 128 139h20c80 0 128 -47 128 -135v-281c0 -72 -45 -139 -128 -139h-20c-93 0 -128 67 -128 139zM125 406v-271c0 -27 10 -42 30 -42c21 0 30 18 30 42v271c0 31 -11 41 -30 41s-30 -10 -30 -41z" />
    <glyph glyph-name="p" unicode="p" horiz-adv-x="313" 
d="M20 538h107v-58c13 21 41 61 87 61h1c55 0 79 -44 79 -101v-338c0 -71 -38 -106 -82 -106h-2c-39 0 -64 28 -83 51v-235h-107v726zM127 407v-279c0 -28 14 -41 30 -41c20 0 28 15 28 39v281c0 26 -9 39 -28 39s-30 -15 -30 -39z" />
    <glyph glyph-name="q" unicode="q" horiz-adv-x="313" 
d="M228 538h65v-726h-107v249c-8 -19 -38 -64 -86 -64h-2c-52 0 -79 54 -79 117v305c0 59 24 122 90 122h2c52 0 82 -45 101 -85c7 21 13 49 16 82zM186 135v262c0 32 -13 44 -32 44c-20 0 -27 -19 -27 -43v-268c0 -29 11 -40 30 -40s29 15 29 45z" />
    <glyph glyph-name="r" unicode="r" horiz-adv-x="280" 
d="M125 538v-68c9 20 32 71 82 71h4c39 0 56 -25 56 -61v-195h-104v120c0 23 -1 33 -18 33s-18 -12 -18 -33v-405h-107v538h105z" />
    <glyph glyph-name="s" unicode="s" horiz-adv-x="278" 
d="M262 449v-81h-96v64c0 20 -8 30 -24 30c-19 0 -23 -12 -23 -33v-9c0 -27 6 -37 25 -60l65 -78c50 -60 60 -94 60 -148v-14c0 -64 -33 -129 -121 -129h-21c-85 0 -116 49 -116 110v97h100v-77c0 -28 8 -37 27 -37c17 0 25 12 25 37v9c0 23 -2 46 -29 77l-63 72
c-43 49 -53 88 -53 139v15c0 68 35 113 116 113h19c85 0 109 -45 109 -97z" />
    <glyph glyph-name="t" unicode="t" horiz-adv-x="247" 
d="M237 0h-106c-36 0 -64 18 -64 66v370h-61v102h61v177h107v-177h63v-102h-63v-308c0 -19 2 -25 21 -25h42v-103z" />
    <glyph glyph-name="u" unicode="u" horiz-adv-x="307" 
d="M287 538v-538h-103v64c-19 -29 -44 -66 -91 -66h-2c-43 0 -71 45 -71 91v449h107v-403c0 -20 6 -36 25 -36c23 0 28 16 28 39v400h107z" />
    <glyph glyph-name="v" unicode="v" horiz-adv-x="282" 
d="M85 0l-86 538h104l41 -336l40 336h99l-83 -538h-115z" />
    <glyph glyph-name="w" unicode="w" horiz-adv-x="460" 
d="M193 0h-112l-82 538h107l40 -335l41 335h94l41 -335l40 335h99l-82 -538h-108l-39 306z" />
    <glyph glyph-name="x" unicode="x" horiz-adv-x="282" 
d="M75 287l-74 251h103l40 -160l36 160h95l-68 -249l77 -289h-100l-43 171l-46 -171h-97z" />
    <glyph glyph-name="y" unicode="y" horiz-adv-x="285" 
d="M83 16l-84 522h104l42 -329l40 329h102l-108 -646c-9 -53 -27 -80 -66 -80h-101v102h46c19 0 21 8 24 27l3 23c3 23 1 33 -2 52z" />
    <glyph glyph-name="z" unicode="z" horiz-adv-x="249" 
d="M18 538h215v-89l-124 -351h132v-98h-234v94l121 348h-110v96z" />
    <glyph glyph-name="braceleft" unicode="{" horiz-adv-x="200" 
d="M163 258c0 -53 -28 -210 -28 -259c0 -32 10 -50 43 -50h16v-80h-32c-81 0 -124 35 -124 120c0 53 33 198 33 271c0 20 -7 35 -27 35h-24v92h21c20 0 30 10 30 30c0 75 -33 227 -33 281c0 86 48 110 124 110h32v-80h-18c-31 0 -41 -17 -41 -46c0 -47 28 -203 28 -255
c0 -41 -7 -70 -46 -86c39 -16 46 -44 46 -83z" />
    <glyph glyph-name="bar" unicode="|" horiz-adv-x="171" 
d="M126 808v-939h-81v939h81z" />
    <glyph glyph-name="braceright" unicode="}" horiz-adv-x="200" 
d="M37 427c0 52 28 208 28 255c0 29 -9 46 -40 46h-19v80h32c77 0 124 -25 124 -110c0 -54 -32 -206 -32 -281c0 -20 7 -30 30 -30h20v-92h-24c-20 0 -26 -15 -26 -35c0 -73 32 -218 32 -271c0 -85 -43 -120 -124 -120h-32v80h16c35 0 43 18 43 50c0 49 -28 206 -28 259
c0 39 7 67 46 83c-39 16 -46 45 -46 86z" />
    <glyph glyph-name="asciitilde" unicode="~" horiz-adv-x="276" 
d="M130 351c-25 29 -29 34 -36 34c-4 0 -6 -4 -6 -11v-70h-75v116c0 29 18 67 63 67c29 0 47 -12 74 -45c23 -28 27 -33 32 -33c4 0 6 3 6 10v73h75v-118c0 -40 -26 -67 -61 -67c-27 0 -44 11 -72 44z" />
    <glyph glyph-name="exclamdown" unicode="&#xa1;" horiz-adv-x="150" 
d="M21 410v128h102v-128h-102zM132 -206h-122l43 591h37z" />
    <glyph glyph-name="cent" unicode="&#xa2;" horiz-adv-x="305" 
d="M291 242v-122c0 -61 -30 -125 -116 -130v-65h-37v66c-92 5 -121 68 -121 125v294c0 84 37 132 121 135v64h37v-63c86 -3 116 -56 116 -120v-92h-95v77c0 16 -4 34 -21 41v-364c15 8 19 23 19 38v116h97zM117 412v-286c0 -16 5 -32 21 -39v365c-17 -7 -21 -21 -21 -40z
" />
    <glyph glyph-name="sterling" unicode="&#xa3;" horiz-adv-x="388" 
d="M189 254c0 -79 -27 -119 -62 -154h139v148h107v-248h-365v61c32 26 78 69 78 152c0 31 -3 68 -7 111h-71v92h62c-4 44 -7 89 -7 132v41c0 96 27 162 136 162h27c104 0 125 -69 125 -129v-127h-107v103c0 31 -5 48 -32 48c-28 0 -33 -17 -33 -48v-85c0 -33 1 -66 2 -97
h123v-92h-117c1 -27 2 -50 2 -70z" />
    <glyph glyph-name="yen" unicode="&#xa5;" horiz-adv-x="331" 
d="M222 230v-230h-113v230h-102v80h102v29h-102v79h89l-92 326h111l51 -253l51 253h101l-85 -326h91v-79h-102v-29h102v-80h-102z" />
    <glyph glyph-name="brokenbar" unicode="&#xa6;" horiz-adv-x="171" 
d="M126 341v-472h-81v472h81zM126 808v-425h-81v425h81z" />
    <glyph glyph-name="section" unicode="&#xa7;" horiz-adv-x="380" 
d="M368 270v-27c0 -70 -41 -98 -85 -106c41 -46 47 -66 47 -122v-75c0 -77 -42 -135 -135 -135h-26c-80 0 -125 48 -125 132v117h111v-104c0 -27 8 -42 31 -42c21 0 27 15 27 44v39c0 50 -6 69 -51 111l-75 66c-64 53 -75 90 -75 154v39c0 55 30 87 85 96
c-35 35 -41 74 -41 138v27c0 66 32 129 133 129h25c96 0 125 -48 125 -133v-90h-110v81c0 33 -7 42 -30 42c-24 0 -29 -15 -29 -42v-7c0 -54 5 -76 45 -110c16 -15 47 -41 71 -62c77 -72 82 -98 82 -160zM207 346c-1 0 -13 11 -28 22l-28 22c-17 -3 -30 -13 -30 -44v-17
c0 -36 6 -49 46 -81l9 -8c7 -5 13 -10 21 -17l30 -24c13 3 28 13 28 57v7c0 35 -6 46 -48 83z" />
    <glyph glyph-name="dieresis" unicode="&#xa8;" 
d="M160 665v-98h-89v98h89zM273 665v-98h-89v98h89z" />
    <glyph glyph-name="copyright" unicode="&#xa9;" horiz-adv-x="495" 
d="M253 -11h-10c-144 0 -223 76 -223 245v278c0 159 80 243 224 243h12c146 0 219 -81 219 -243v-278c0 -172 -90 -245 -222 -245zM245 51h8c113 0 150 84 150 196v257c0 100 -33 189 -148 189h-10c-118 0 -151 -77 -151 -189v-257c0 -117 41 -196 151 -196zM251 197
c15 0 19 13 19 28v115h92v-127c0 -64 -42 -103 -102 -103h-19c-71 0 -105 49 -105 108v300c0 76 31 118 102 118h23c54 0 100 -23 100 -110v-83h-93v76c0 19 -3 30 -18 30c-16 0 -19 -11 -19 -31v-293c0 -16 4 -28 20 -28z" />
    <glyph glyph-name="ordfeminine" unicode="&#xaa;" horiz-adv-x="186" 
d="M167 685v-154c0 -6 3 -9 8 -9h11v-63h-60c-15 0 -21 10 -22 37c-8 -17 -27 -40 -52 -40h-1c-27 0 -43 25 -43 54v54c0 36 12 50 39 65l49 25c5 3 7 7 7 12v8c0 12 -5 18 -14 18h-1c-9 0 -14 -6 -14 -18v-19h-62v30c0 31 8 63 69 63h12c64 0 74 -28 74 -63zM103 536v63
c-7 -3 -14 -8 -19 -13c-7 -7 -9 -12 -9 -27v-25c0 -13 4 -19 13 -19c10 0 15 7 15 21z" />
    <glyph glyph-name="guillemotleft" unicode="&#xab;" horiz-adv-x="249" 
d="M91 286l48 -163h-78l-47 136v54l47 134h78zM198 286l42 -163h-79l-46 163l46 161h80z" />
    <glyph glyph-name="registered" unicode="&#xae;" horiz-adv-x="267" 
d="M138 403h-6c-73 0 -119 48 -119 127v97c0 71 43 123 119 123h7c73 0 115 -50 115 -123v-97c0 -76 -48 -127 -116 -127zM133 438h5c57 0 76 44 76 99v84c0 47 -16 94 -75 94h-6c-60 -1 -81 -35 -81 -98v-80c0 -53 20 -99 81 -99zM126 564v-94h-45v219h68
c25 0 38 -13 38 -39v-34c0 -14 -6 -24 -18 -29c15 -4 18 -15 18 -27v-65c0 -12 1 -17 4 -21v-4h-44c-2 4 -3 11 -3 20v61c0 11 1 13 -10 13h-8zM126 654v-54h9c7 0 9 2 9 13v29c0 8 -3 12 -9 12h-9z" />
    <glyph glyph-name="macron" unicode="&#xaf;" 
d="M85 579v77h172v-77h-172z" />
    <glyph glyph-name="degree" unicode="&#xb0;" horiz-adv-x="209" 
d="M6 650c0 57 42 96 99 96s98 -39 98 -96c0 -59 -41 -97 -98 -97s-99 38 -99 97zM67 650c0 -23 14 -38 37 -38s37 15 37 38s-14 38 -37 38s-37 -15 -37 -38z" />
    <glyph glyph-name="acute" unicode="&#xb4;" 
d="M107 567l38 130h90l-40 -130h-88z" />
    <glyph glyph-name="paragraph" unicode="&#xb6;" horiz-adv-x="349" 
d="M118 744h227v-84h-37v-660h-76v660h-34v-660h-75v341h-5c-73 0 -103 34 -103 114v182c0 73 30 107 103 107z" />
    <glyph glyph-name="periodcentered" unicode="&#xb7;" horiz-adv-x="137" 
d="M121 381v-128h-105v128h105z" />
    <glyph glyph-name="cedilla" unicode="&#xb8;" 
d="M153 -188h-55v60h38c16 0 24 6 24 18c0 13 -8 19 -24 19h-23v91h55v-40c47 0 77 -23 77 -71v-3c0 -51 -41 -74 -92 -74z" />
    <glyph glyph-name="ordmasculine" unicode="&#xba;" horiz-adv-x="195" 
d="M105 456h-16c-51 0 -77 32 -77 85v120c0 59 29 87 77 87h16c48 0 78 -28 78 -84v-123c0 -51 -26 -85 -78 -85zM81 668v-127c0 -14 5 -21 16 -21s16 7 16 21v127c0 14 -5 21 -16 21s-16 -7 -16 -21z" />
    <glyph glyph-name="guillemotright" unicode="&#xbb;" horiz-adv-x="249" 
d="M109 123l50 163l-50 161h80l46 -136v-52l-48 -136h-78zM8 123l43 163l-43 161h79l47 -161l-47 -163h-79z" />
    <glyph glyph-name="onequarter" unicode="&#xbc;" horiz-adv-x="354" 
d="M51 647h-44v56c45 0 51 21 56 41h60v-339h-72v242zM262 744h73l-252 -744h-74zM160 63v47c21 51 67 168 89 230h69v-215h29v-62h-29v-63h-69v63h-89zM215 125h34v96c-5 -21 -25 -76 -34 -96z" />
    <glyph glyph-name="onehalf" unicode="&#xbd;" horiz-adv-x="399" 
d="M262 744h73l-252 -744h-74zM51 647h-44v56c45 0 51 21 56 41h60v-339h-72v242zM390 0h-190v38c0 37 13 58 76 137c24 27 28 41 28 70v19c0 13 -5 20 -15 20s-15 -6 -15 -19v-60h-68v62c0 47 17 78 76 78h15c64 0 83 -31 83 -76v-21c0 -49 -15 -74 -56 -117
c-54 -57 -55 -57 -55 -71h56v56h65v-116z" />
    <glyph glyph-name="threequarters" unicode="&#xbe;" horiz-adv-x="400" 
d="M308 744h73l-252 -744h-74zM80 629h-67v37c0 55 18 84 78 84h12c56 0 78 -24 78 -80v-28c0 -32 -13 -45 -25 -52c16 -8 31 -20 31 -49v-64c0 -47 -24 -79 -81 -79h-14c-64 0 -80 35 -80 75v54h70v-49c0 -13 5 -20 15 -20c11 0 13 7 13 20v49c0 15 -3 20 -16 20h-33v64h31
c13 0 18 4 18 20v38c0 16 -3 22 -15 22s-15 -6 -15 -22v-40zM206 63v47c21 51 67 168 89 230h69v-215h29v-62h-29v-63h-69v63h-89zM261 125h34v96c-5 -21 -25 -76 -34 -96z" />
    <glyph glyph-name="questiondown" unicode="&#xbf;" horiz-adv-x="296" 
d="M118 385h89v-120c0 -64 -2 -81 -34 -134l-29 -49c-21 -34 -22 -58 -22 -97v-54c0 -28 5 -39 28 -39s27 11 27 39v120h106v-120c0 -84 -21 -146 -122 -146h-22c-100 0 -131 52 -131 139v74c0 50 11 84 45 134l32 46c29 43 33 61 33 120v87zM111 410v128h102v-128h-102z
" />
    <glyph glyph-name="Agrave" unicode="&#xc0;" horiz-adv-x="320" 
d="M212 0l-15 140h-83l-14 -140h-101l91 744h134l97 -744h-109zM155 526l-29 -275h59zM204 773h-92l-44 109h94z" />
    <glyph glyph-name="Aacute" unicode="&#xc1;" horiz-adv-x="320" 
d="M212 0l-15 140h-83l-14 -140h-101l91 744h134l97 -744h-109zM155 526l-29 -275h59zM111 773l42 109h94l-44 -109h-92z" />
    <glyph glyph-name="Acircumflex" unicode="&#xc2;" horiz-adv-x="320" 
d="M212 0l-15 140h-83l-14 -140h-101l91 744h134l97 -744h-109zM155 526l-29 -275h59zM201 882l63 -109h-81l-27 48l-27 -48h-80l63 109h89z" />
    <glyph glyph-name="Atilde" unicode="&#xc3;" horiz-adv-x="320" 
d="M212 0l-15 140h-83l-14 -140h-101l91 744h134l97 -744h-109zM155 526l-29 -275h59zM254 878v-46c0 -35 -15 -57 -42 -57h-1c-19 0 -34 6 -57 17c-11 5 -16 9 -23 9c-5 0 -7 -3 -7 -9v-19h-64v47c0 39 16 56 43 56h1c17 0 30 -4 54 -16c12 -7 19 -11 26 -11c4 0 6 3 6 9
v20h64z" />
    <glyph glyph-name="Adieresis" unicode="&#xc4;" horiz-adv-x="320" 
d="M212 0l-15 140h-83l-14 -140h-101l91 744h134l97 -744h-109zM155 526l-29 -275h59zM143 872v-99h-90v99h90zM259 872v-99h-90v99h90z" />
    <glyph glyph-name="Aring" unicode="&#xc5;" horiz-adv-x="320" 
d="M212 0l-15 140h-83l-14 -140h-101l91 744h134l97 -744h-109zM155 526l-29 -275h59zM157 813c19 0 31 13 31 33c0 19 -12 33 -31 33s-31 -14 -31 -33c0 -20 12 -33 31 -33zM236 847c0 -47 -32 -81 -79 -81s-80 34 -80 81c0 44 35 79 80 79c47 0 79 -35 79 -79z" />
    <glyph glyph-name="AE" unicode="&#xc6;" horiz-adv-x="486" 
d="M476 0h-260v144h-86l-26 -144h-108l141 744h332v-108h-140v-195h110v-113h-110v-215h147v-113zM150 254h66v366z" />
    <glyph glyph-name="Ccedilla" unicode="&#xc7;" horiz-adv-x="336" 
d="M208 151v173h111v-172c0 -80 -27 -161 -135 -161h-25c-115 0 -139 82 -139 157v454c0 76 33 149 135 149h26c124 0 138 -82 138 -155v-133h-111v131c0 32 -10 49 -38 49s-35 -16 -35 -49v-442c0 -34 12 -51 36 -51c27 0 37 19 37 50zM154 -188h-55v60h38c16 0 24 6 24 18
c0 13 -8 19 -24 19h-23v91h55v-40c47 0 77 -23 77 -71v-3c0 -51 -41 -74 -92 -74z" />
    <glyph glyph-name="Egrave" unicode="&#xc8;" horiz-adv-x="296" 
d="M23 744h257v-108h-144v-195h113v-113h-113v-215h150v-113h-263v744zM204 773h-92l-44 109h94z" />
    <glyph glyph-name="Eacute" unicode="&#xc9;" horiz-adv-x="296" 
d="M23 744h257v-108h-144v-195h113v-113h-113v-215h150v-113h-263v744zM108 773l42 109h94l-44 -109h-92z" />
    <glyph glyph-name="Ecircumflex" unicode="&#xca;" horiz-adv-x="296" 
d="M23 744h257v-108h-144v-195h113v-113h-113v-215h150v-113h-263v744zM198 882l63 -109h-81l-27 48l-27 -48h-80l63 109h89z" />
    <glyph glyph-name="Edieresis" unicode="&#xcb;" horiz-adv-x="296" 
d="M23 744h257v-108h-144v-195h113v-113h-113v-215h150v-113h-263v744zM140 872v-99h-90v99h90zM256 872v-99h-90v99h90z" />
    <glyph glyph-name="Igrave" unicode="&#xcc;" horiz-adv-x="159" 
d="M136 744v-744h-113v744h113zM125 773h-92l-44 109h94z" />
    <glyph glyph-name="Iacute" unicode="&#xcd;" horiz-adv-x="159" 
d="M136 744v-744h-113v744h113zM34 773l42 109h94l-44 -109h-92z" />
    <glyph glyph-name="Icircumflex" unicode="&#xce;" horiz-adv-x="159" 
d="M136 744v-744h-113v744h113zM124 882l63 -109h-81l-27 48l-27 -48h-80l63 109h89z" />
    <glyph glyph-name="Idieresis" unicode="&#xcf;" horiz-adv-x="159" 
d="M136 744v-744h-113v744h113zM66 872v-99h-90v99h90zM182 872v-99h-90v99h90z" />
    <glyph glyph-name="Eth" unicode="&#xd0;" horiz-adv-x="346" 
d="M25 430v314h173c97 0 127 -55 127 -143v-453c0 -92 -34 -148 -127 -148h-173v335h-27v95h27zM138 335v-227h27c35 0 44 18 44 58v419c0 43 -11 58 -39 58h-32v-213h46v-95h-46z" />
    <glyph glyph-name="Ntilde" unicode="&#xd1;" horiz-adv-x="348" 
d="M23 744h102l97 -399v399h103v-744h-92l-108 428v-428h-102v744zM276 878v-46c0 -35 -15 -57 -42 -57h-1c-19 0 -34 6 -57 17c-11 5 -16 9 -23 9c-5 0 -7 -3 -7 -9v-19h-64v47c0 39 16 56 43 56h1c17 0 30 -4 54 -16c12 -7 19 -11 26 -11c4 0 6 3 6 9v20h64z" />
    <glyph glyph-name="Ograve" unicode="&#xd2;" horiz-adv-x="349" 
d="M329 581v-415c0 -104 -35 -175 -144 -175h-19c-108 0 -146 71 -146 175v414c0 104 38 171 145 171h19c110 0 145 -68 145 -170zM214 158v428c0 38 -13 57 -39 57c-29 0 -40 -18 -40 -57v-428c0 -32 9 -57 41 -57c31 0 38 25 38 57zM220 773h-92l-44 109h94z" />
    <glyph glyph-name="Oacute" unicode="&#xd3;" horiz-adv-x="349" 
d="M329 581v-415c0 -104 -35 -175 -144 -175h-19c-108 0 -146 71 -146 175v414c0 104 38 171 145 171h19c110 0 145 -68 145 -170zM214 158v428c0 38 -13 57 -39 57c-29 0 -40 -18 -40 -57v-428c0 -32 9 -57 41 -57c31 0 38 25 38 57zM129 773l42 109h94l-44 -109h-92z" />
    <glyph glyph-name="Ocircumflex" unicode="&#xd4;" horiz-adv-x="349" 
d="M329 581v-415c0 -104 -35 -175 -144 -175h-19c-108 0 -146 71 -146 175v414c0 104 38 171 145 171h19c110 0 145 -68 145 -170zM214 158v428c0 38 -13 57 -39 57c-29 0 -40 -18 -40 -57v-428c0 -32 9 -57 41 -57c31 0 38 25 38 57zM219 882l63 -109h-81l-27 48l-27 -48
h-80l63 109h89z" />
    <glyph glyph-name="Otilde" unicode="&#xd5;" horiz-adv-x="349" 
d="M329 581v-415c0 -104 -35 -175 -144 -175h-19c-108 0 -146 71 -146 175v414c0 104 38 171 145 171h19c110 0 145 -68 145 -170zM214 158v428c0 38 -13 57 -39 57c-29 0 -40 -18 -40 -57v-428c0 -32 9 -57 41 -57c31 0 38 25 38 57zM272 878v-46c0 -35 -15 -57 -42 -57h-1
c-19 0 -34 6 -57 17c-11 5 -16 9 -23 9c-5 0 -7 -3 -7 -9v-19h-64v47c0 39 16 56 43 56h1c17 0 30 -4 54 -16c12 -7 19 -11 26 -11c4 0 6 3 6 9v20h64z" />
    <glyph glyph-name="Odieresis" unicode="&#xd6;" horiz-adv-x="349" 
d="M329 581v-415c0 -104 -35 -175 -144 -175h-19c-108 0 -146 71 -146 175v414c0 104 38 171 145 171h19c110 0 145 -68 145 -170zM214 158v428c0 38 -13 57 -39 57c-29 0 -40 -18 -40 -57v-428c0 -32 9 -57 41 -57c31 0 38 25 38 57zM161 872v-99h-90v99h90zM277 872v-99
h-90v99h90z" />
    <glyph glyph-name="multiply" unicode="&#xd7;" horiz-adv-x="301" 
d="M237 153l-88 89l-85 -89l-58 54l87 92l-88 90l60 63l87 -90l85 90l59 -56l-88 -92l88 -91z" />
    <glyph glyph-name="Oslash" unicode="&#xd8;" horiz-adv-x="349" 
d="M330 582v-430c0 -91 -51 -162 -143 -162h-21c-47 0 -75 20 -88 35l-11 -25h-68l31 81c-8 19 -11 43 -11 71v429c0 102 39 170 144 170h23c44 0 68 -14 87 -31l9 24h68l-31 -83c7 -23 11 -50 11 -79zM175 641c-35 0 -44 -19 -44 -56v-257l88 256v2c0 37 -15 55 -44 55z
M175 105c36 0 44 25 44 49v261l-88 -254v-8c0 -23 9 -48 44 -48z" />
    <glyph glyph-name="Ugrave" unicode="&#xd9;" horiz-adv-x="345" 
d="M21 162v582h115v-589c0 -32 11 -53 36 -53c27 0 37 20 37 53v589h115v-582c0 -105 -42 -171 -142 -171h-20c-100 0 -141 63 -141 171zM220 773h-92l-44 109h94z" />
    <glyph glyph-name="Uacute" unicode="&#xda;" horiz-adv-x="345" 
d="M21 162v582h115v-589c0 -32 11 -53 36 -53c27 0 37 20 37 53v589h115v-582c0 -105 -42 -171 -142 -171h-20c-100 0 -141 63 -141 171zM127 773l42 109h94l-44 -109h-92z" />
    <glyph glyph-name="Ucircumflex" unicode="&#xdb;" horiz-adv-x="345" 
d="M21 162v582h115v-589c0 -32 11 -53 36 -53c27 0 37 20 37 53v589h115v-582c0 -105 -42 -171 -142 -171h-20c-100 0 -141 63 -141 171zM217 882l63 -109h-81l-27 48l-27 -48h-80l63 109h89z" />
    <glyph glyph-name="Udieresis" unicode="&#xdc;" horiz-adv-x="345" 
d="M21 162v582h115v-589c0 -32 11 -53 36 -53c27 0 37 20 37 53v589h115v-582c0 -105 -42 -171 -142 -171h-20c-100 0 -141 63 -141 171zM159 872v-99h-90v99h90zM275 872v-99h-90v99h90z" />
    <glyph glyph-name="Yacute" unicode="&#xdd;" horiz-adv-x="306" 
d="M310 744l-99 -435v-309h-113v310l-102 434h110l52 -278l50 278h102zM111 773l42 109h94l-44 -109h-92z" />
    <glyph glyph-name="Thorn" unicode="&#xde;" horiz-adv-x="338" 
d="M208 191h-72v-191h-113v744h113v-152h71c75 0 117 -33 117 -124v-141c0 -91 -39 -136 -116 -136zM136 493v-203h34c35 0 39 23 39 54v98c0 29 -4 51 -39 51h-34z" />
    <glyph glyph-name="germandbls" unicode="&#xdf;" horiz-adv-x="312" 
d="M245 442c26 -10 52 -26 52 -91v-225c0 -84 -21 -126 -119 -126h-32v107h19c15 0 23 10 23 29v192c0 19 -4 29 -23 29h-19v105h17c15 0 22 7 22 34v117c0 23 -4 38 -27 38h-5c-19 0 -26 -14 -26 -37v-614h-107v624c0 77 41 122 121 122h28c84 0 119 -38 119 -127v-102
c0 -45 -20 -64 -43 -75z" />
    <glyph glyph-name="agrave" unicode="&#xe0;" horiz-adv-x="310" 
d="M15 81v126c0 53 12 84 51 108c24 16 78 40 93 48c11 7 13 8 13 23v34c0 27 -7 35 -26 35h-2c-21 0 -27 -10 -27 -34v-57h-96v76c0 40 12 102 113 102h20c103 0 121 -50 121 -106v-320c0 -13 2 -17 17 -17h19v-99h-102c-23 0 -35 16 -35 61c-14 -25 -42 -64 -88 -64h-3
c-43 0 -68 41 -68 84zM172 133v139c-12 -7 -27 -16 -38 -27s-14 -22 -14 -43v-74c0 -23 8 -35 25 -35c18 0 27 13 27 40zM188 567h-89l-39 130h91z" />
    <glyph glyph-name="aacute" unicode="&#xe1;" horiz-adv-x="310" 
d="M15 81v126c0 53 12 84 51 108c24 16 78 40 93 48c11 7 13 8 13 23v34c0 27 -7 35 -26 35h-2c-21 0 -27 -10 -27 -34v-57h-96v76c0 40 12 102 113 102h20c103 0 121 -50 121 -106v-320c0 -13 2 -17 17 -17h19v-99h-102c-23 0 -35 16 -35 61c-14 -25 -42 -64 -88 -64h-3
c-43 0 -68 41 -68 84zM172 133v139c-12 -7 -27 -16 -38 -27s-14 -22 -14 -43v-74c0 -23 8 -35 25 -35c18 0 27 13 27 40zM101 567l38 130h90l-40 -130h-88z" />
    <glyph glyph-name="acircumflex" unicode="&#xe2;" horiz-adv-x="310" 
d="M15 81v126c0 53 12 84 51 108c24 16 78 40 93 48c11 7 13 8 13 23v34c0 27 -7 35 -26 35h-2c-21 0 -27 -10 -27 -34v-57h-96v76c0 40 12 102 113 102h20c103 0 121 -50 121 -106v-320c0 -13 2 -17 17 -17h19v-99h-102c-23 0 -35 16 -35 61c-14 -25 -42 -64 -88 -64h-3
c-43 0 -68 41 -68 84zM172 133v139c-12 -7 -27 -16 -38 -27s-14 -22 -14 -43v-74c0 -23 8 -35 25 -35c18 0 27 13 27 40zM191 698l57 -131h-79l-25 65l-25 -65h-77l57 131h92z" />
    <glyph glyph-name="atilde" unicode="&#xe3;" horiz-adv-x="310" 
d="M15 81v126c0 53 12 84 51 108c24 16 78 40 93 48c11 7 13 8 13 23v34c0 27 -7 35 -26 35h-2c-21 0 -27 -10 -27 -34v-57h-96v76c0 40 12 102 113 102h20c103 0 121 -50 121 -106v-320c0 -13 2 -17 17 -17h19v-99h-102c-23 0 -35 16 -35 61c-14 -25 -42 -64 -88 -64h-3
c-43 0 -68 41 -68 84zM172 133v139c-12 -7 -27 -16 -38 -27s-14 -22 -14 -43v-74c0 -23 8 -35 25 -35c18 0 27 13 27 40zM178 672h64v-46c0 -35 -15 -57 -42 -57h-1c-19 0 -34 6 -57 17c-11 5 -16 9 -23 9c-5 0 -7 -3 -7 -9v-19h-64v47c0 39 16 56 43 56h1
c17 0 30 -4 54 -16c12 -7 19 -11 26 -11c4 0 6 3 6 9v20z" />
    <glyph glyph-name="adieresis" unicode="&#xe4;" horiz-adv-x="310" 
d="M15 81v126c0 53 12 84 51 108c24 16 78 40 93 48c11 7 13 8 13 23v34c0 27 -7 35 -26 35h-2c-21 0 -27 -10 -27 -34v-57h-96v76c0 40 12 102 113 102h20c103 0 121 -50 121 -106v-320c0 -13 2 -17 17 -17h19v-99h-102c-23 0 -35 16 -35 61c-14 -25 -42 -64 -88 -64h-3
c-43 0 -68 41 -68 84zM172 133v139c-12 -7 -27 -16 -38 -27s-14 -22 -14 -43v-74c0 -23 8 -35 25 -35c18 0 27 13 27 40zM133 665v-98h-89v98h89zM246 665v-98h-89v98h89z" />
    <glyph glyph-name="aring" unicode="&#xe5;" horiz-adv-x="310" 
d="M15 81v126c0 53 12 84 51 108c24 16 78 40 93 48c11 7 13 8 13 23v34c0 27 -7 35 -26 35h-2c-21 0 -27 -10 -27 -34v-57h-96v76c0 40 12 102 113 102h20c103 0 121 -50 121 -106v-320c0 -13 2 -17 17 -17h19v-99h-102c-23 0 -35 16 -35 61c-14 -25 -42 -64 -88 -64h-3
c-43 0 -68 41 -68 84zM172 133v139c-12 -7 -27 -16 -38 -27s-14 -22 -14 -43v-74c0 -23 8 -35 25 -35c18 0 27 13 27 40zM145 563c-47 0 -80 34 -80 81c0 44 35 79 80 79c47 0 79 -35 79 -79c0 -47 -32 -81 -79 -81zM145 610c19 0 31 13 31 33c0 19 -12 33 -31 33
s-31 -14 -31 -33c0 -20 12 -33 31 -33z" />
    <glyph glyph-name="ae" unicode="&#xe6;" horiz-adv-x="450" 
d="M181 59c-16 -28 -46 -62 -93 -62h-3c-45 0 -70 41 -70 84v104c0 53 12 84 51 108c24 16 78 40 93 48c11 7 13 8 13 23v58c0 27 -7 35 -26 35h-2c-21 0 -27 -10 -27 -34v-81h-96v100c0 40 12 102 113 102h18c55 0 70 -22 75 -29c5 8 26 31 73 31h17c83 0 117 -46 117 -134
v-159h-159v-120c0 -24 6 -40 29 -40c19 0 27 16 27 39v85h103v-89c0 -101 -57 -137 -121 -137h-17c-83 0 -107 42 -115 68zM172 133v117c-12 -7 -27 -16 -38 -27s-14 -22 -14 -43v-52c0 -23 8 -35 25 -35c18 0 27 13 27 40zM275 414v-67h59v67c0 23 -4 42 -29 42
c-27 0 -30 -19 -30 -42z" />
    <glyph glyph-name="ccedilla" unicode="&#xe7;" horiz-adv-x="297" 
d="M179 241h103v-121c0 -61 -32 -129 -121 -129h-20c-85 0 -124 59 -124 130v293c0 84 40 132 128 132h19c89 0 118 -51 118 -117v-96h-103v73c0 27 -2 45 -27 45c-24 0 -27 -17 -27 -44v-275c0 -25 6 -41 26 -41c21 0 28 16 28 40v110zM135 -188h-55v60h38c16 0 24 6 24 18
c0 13 -8 19 -24 19h-23v91h55v-40c47 0 77 -23 77 -71v-3c0 -51 -41 -74 -92 -74z" />
    <glyph glyph-name="egrave" unicode="&#xe8;" horiz-adv-x="295" 
d="M139 545h20c84 0 120 -46 120 -134v-155h-159v-124c0 -24 6 -40 29 -40c19 0 27 16 27 39v89h103v-94c0 -96 -49 -136 -125 -136h-19c-72 0 -118 43 -118 135v291c0 73 35 129 122 129zM120 412v-68h59v68c0 24 -4 43 -29 43c-27 0 -30 -19 -30 -43zM193 567h-89l-39 130
h91z" />
    <glyph glyph-name="eacute" unicode="&#xe9;" horiz-adv-x="295" 
d="M139 545h20c84 0 120 -46 120 -134v-155h-159v-124c0 -24 6 -40 29 -40c19 0 27 16 27 39v89h103v-94c0 -96 -49 -136 -125 -136h-19c-72 0 -118 43 -118 135v291c0 73 35 129 122 129zM120 412v-68h59v68c0 24 -4 43 -29 43c-27 0 -30 -19 -30 -43zM105 567l38 130h90
l-40 -130h-88z" />
    <glyph glyph-name="ecircumflex" unicode="&#xea;" horiz-adv-x="295" 
d="M139 545h20c84 0 120 -46 120 -134v-155h-159v-124c0 -24 6 -40 29 -40c19 0 27 16 27 39v89h103v-94c0 -96 -49 -136 -125 -136h-19c-72 0 -118 43 -118 135v291c0 73 35 129 122 129zM120 412v-68h59v68c0 24 -4 43 -29 43c-27 0 -30 -19 -30 -43zM195 698l57 -131h-79
l-25 65l-25 -65h-77l57 131h92z" />
    <glyph glyph-name="edieresis" unicode="&#xeb;" horiz-adv-x="295" 
d="M139 545h20c84 0 120 -46 120 -134v-155h-159v-124c0 -24 6 -40 29 -40c19 0 27 16 27 39v89h103v-94c0 -96 -49 -136 -125 -136h-19c-72 0 -118 43 -118 135v291c0 73 35 129 122 129zM120 412v-68h59v68c0 24 -4 43 -29 43c-27 0 -30 -19 -30 -43zM137 665v-98h-89v98
h89zM250 665v-98h-89v98h89z" />
    <glyph glyph-name="igrave" unicode="&#xec;" horiz-adv-x="147" 
d="M127 538v-538h-107v538h107zM116 567h-89l-39 130h91z" />
    <glyph glyph-name="iacute" unicode="&#xed;" horiz-adv-x="147" 
d="M127 538v-538h-107v538h107zM31 567l38 130h90l-40 -130h-88z" />
    <glyph glyph-name="icircumflex" unicode="&#xee;" horiz-adv-x="147" 
d="M120 696l48 -131h-73l-21 65l-22 -65h-71l47 131h92zM127 538v-538h-107v538h107z" />
    <glyph glyph-name="idieresis" unicode="&#xef;" horiz-adv-x="147" 
d="M63 665v-98h-83v98h83zM167 665v-98h-83v98h83zM127 538v-538h-107v538h107z" />
    <glyph glyph-name="eth" unicode="&#xf0;" horiz-adv-x="314" 
d="M53 552v77l49 25l-42 90h109l22 -45l71 37v-78l-41 -21l35 -71c27 -59 41 -89 41 -173v-263c0 -80 -45 -139 -128 -139h-23c-91 0 -127 65 -127 140v307c0 68 32 102 75 102h2c33 0 57 -17 81 -48l-46 99zM187 135v272c0 27 -7 42 -30 42c-20 0 -30 -14 -30 -42v-272
c0 -23 7 -42 30 -42c24 0 30 21 30 42z" />
    <glyph glyph-name="ntilde" unicode="&#xf1;" horiz-adv-x="313" 
d="M20 0v538h105v-63c17 30 48 66 91 66h5c55 0 72 -48 72 -83v-458h-108v403c0 25 -7 40 -28 40c-23 0 -30 -15 -30 -44v-399h-107zM189 672h64v-46c0 -35 -15 -57 -42 -57h-1c-19 0 -34 6 -57 17c-11 5 -16 9 -23 9c-5 0 -7 -3 -7 -9v-19h-64v47c0 39 16 56 43 56h1
c17 0 30 -4 54 -16c12 -7 19 -11 26 -11c4 0 6 3 6 9v20z" />
    <glyph glyph-name="ograve" unicode="&#xf2;" horiz-adv-x="310" 
d="M17 130v277c0 89 47 139 128 139h20c80 0 128 -47 128 -135v-281c0 -72 -45 -139 -128 -139h-20c-93 0 -128 67 -128 139zM125 406v-271c0 -27 10 -42 30 -42c21 0 30 18 30 42v271c0 31 -11 41 -30 41s-30 -10 -30 -41zM198 567h-89l-39 130h91z" />
    <glyph glyph-name="oacute" unicode="&#xf3;" horiz-adv-x="310" 
d="M17 130v277c0 89 47 139 128 139h20c80 0 128 -47 128 -135v-281c0 -72 -45 -139 -128 -139h-20c-93 0 -128 67 -128 139zM125 406v-271c0 -27 10 -42 30 -42c21 0 30 18 30 42v271c0 31 -11 41 -30 41s-30 -10 -30 -41zM110 567l38 130h90l-40 -130h-88z" />
    <glyph glyph-name="ocircumflex" unicode="&#xf4;" horiz-adv-x="310" 
d="M17 130v277c0 89 47 139 128 139h20c80 0 128 -47 128 -135v-281c0 -72 -45 -139 -128 -139h-20c-93 0 -128 67 -128 139zM125 406v-271c0 -27 10 -42 30 -42c21 0 30 18 30 42v271c0 31 -11 41 -30 41s-30 -10 -30 -41zM201 698l57 -131h-79l-25 65l-25 -65h-77l57 131
h92z" />
    <glyph glyph-name="otilde" unicode="&#xf5;" horiz-adv-x="310" 
d="M17 130v277c0 89 47 139 128 139h20c80 0 128 -47 128 -135v-281c0 -72 -45 -139 -128 -139h-20c-93 0 -128 67 -128 139zM125 406v-271c0 -27 10 -42 30 -42c21 0 30 18 30 42v271c0 31 -11 41 -30 41s-30 -10 -30 -41zM188 672h64v-46c0 -35 -15 -57 -42 -57h-1
c-19 0 -34 6 -57 17c-11 5 -16 9 -23 9c-5 0 -7 -3 -7 -9v-19h-64v47c0 39 16 56 43 56h1c17 0 30 -4 54 -16c12 -7 19 -11 26 -11c4 0 6 3 6 9v20z" />
    <glyph glyph-name="odieresis" unicode="&#xf6;" horiz-adv-x="310" 
d="M17 130v277c0 89 47 139 128 139h20c80 0 128 -47 128 -135v-281c0 -72 -45 -139 -128 -139h-20c-93 0 -128 67 -128 139zM125 406v-271c0 -27 10 -42 30 -42c21 0 30 18 30 42v271c0 31 -11 41 -30 41s-30 -10 -30 -41zM143 665v-98h-89v98h89zM256 665v-98h-89v98h89z
" />
    <glyph glyph-name="divide" unicode="&#xf7;" horiz-adv-x="343" 
d="M16 345h311v-85h-311v85zM221 476v-97h-99v97h99zM221 222v-98h-99v98h99z" />
    <glyph glyph-name="oslash" unicode="&#xf8;" horiz-adv-x="306" 
d="M17 130v277c0 89 45 139 125 139h22c35 0 62 -10 81 -29l10 21h61l-34 -75c5 -15 7 -32 7 -52v-281c0 -72 -43 -139 -125 -139h-22c-39 0 -63 12 -80 31l-10 -22h-61l34 74c-7 17 -8 36 -8 56zM186 402v4c0 31 -10 41 -33 41c-21 0 -33 -10 -33 -41v-154zM153 93
c24 0 33 18 33 42v146l-66 -147c0 -25 10 -41 33 -41z" />
    <glyph glyph-name="ugrave" unicode="&#xf9;" horiz-adv-x="307" 
d="M287 538v-538h-103v64c-19 -29 -44 -66 -91 -66h-2c-43 0 -71 45 -71 91v449h107v-403c0 -20 6 -36 25 -36c23 0 28 16 28 39v400h107zM200 567h-89l-39 130h91z" />
    <glyph glyph-name="uacute" unicode="&#xfa;" horiz-adv-x="307" 
d="M287 538v-538h-103v64c-19 -29 -44 -66 -91 -66h-2c-43 0 -71 45 -71 91v449h107v-403c0 -20 6 -36 25 -36c23 0 28 16 28 39v400h107zM108 567l38 130h90l-40 -130h-88z" />
    <glyph glyph-name="ucircumflex" unicode="&#xfb;" horiz-adv-x="307" 
d="M287 538v-538h-103v64c-19 -29 -44 -66 -91 -66h-2c-43 0 -71 45 -71 91v449h107v-403c0 -20 6 -36 25 -36c23 0 28 16 28 39v400h107zM199 698l57 -131h-79l-25 65l-25 -65h-77l57 131h92z" />
    <glyph glyph-name="udieresis" unicode="&#xfc;" horiz-adv-x="307" 
d="M287 538v-538h-103v64c-19 -29 -44 -66 -91 -66h-2c-43 0 -71 45 -71 91v449h107v-403c0 -20 6 -36 25 -36c23 0 28 16 28 39v400h107zM141 665v-98h-89v98h89zM254 665v-98h-89v98h89z" />
    <glyph glyph-name="yacute" unicode="&#xfd;" horiz-adv-x="285" 
d="M83 16l-84 522h104l42 -329l40 329h102l-108 -646c-9 -53 -27 -80 -66 -80h-101v102h46c19 0 21 8 24 27l3 23c3 23 1 33 -2 52zM101 567l38 130h90l-40 -130h-88z" />
    <glyph glyph-name="thorn" unicode="&#xfe;" horiz-adv-x="313" 
d="M20 744h107v-263c13 22 41 60 87 60h1c55 0 79 -44 79 -101v-338c0 -71 -38 -106 -82 -106h-2c-39 0 -64 28 -83 51v-235h-107v932zM127 407v-279c0 -28 14 -41 30 -41c20 0 28 15 28 39v281c0 26 -9 39 -28 39s-30 -15 -30 -39z" />
    <glyph glyph-name="ydieresis" unicode="&#xff;" horiz-adv-x="285" 
d="M83 16l-84 522h104l42 -329l40 329h102l-108 -646c-9 -53 -27 -80 -66 -80h-101v102h46c19 0 21 8 24 27l3 23c3 23 1 33 -2 52zM132 665v-98h-89v98h89zM245 665v-98h-89v98h89z" />
    <glyph glyph-name="dotlessi" unicode="&#x131;" horiz-adv-x="147" 
d="M127 538v-538h-107v538h107z" />
    <glyph glyph-name="Lslash" unicode="&#x141;" horiz-adv-x="297" 
d="M37 744h113v-311l96 70v-104l-96 -68v-216h138v-115h-251v252l-34 -24v99l34 24v393z" />
    <glyph glyph-name="lslash" unicode="&#x142;" horiz-adv-x="169" 
d="M138 426v-426h-107v349l-30 -21v95l30 21v300h107v-222l30 22v-96z" />
    <glyph glyph-name="OE" unicode="&#x152;" horiz-adv-x="486" 
d="M20 160v422c0 103 35 169 107 169h3c61 0 77 -35 91 -54v47h248v-108h-140v-195h110v-113h-110v-215h147v-113h-255v51c-15 -29 -40 -61 -93 -61h-3c-59 0 -105 51 -105 170zM216 167v411c0 39 -8 63 -39 63s-40 -24 -40 -63v-411c0 -39 9 -63 40 -63s39 24 39 63z" />
    <glyph glyph-name="oe" unicode="&#x153;" horiz-adv-x="463" 
d="M447 253h-159v-123c0 -23 6 -38 29 -38c19 0 27 15 27 38v87h103v-91c0 -100 -56 -136 -122 -136h-17c-55 0 -73 23 -80 31c-5 -7 -29 -31 -74 -31h-17c-87 0 -120 69 -120 140v278c0 87 43 138 119 138h16c56 0 75 -20 83 -29c7 9 29 29 76 29h19c80 0 117 -47 117 -119
v-174zM125 404v-266c0 -21 6 -42 30 -42c25 0 30 23 30 42v266c0 27 -7 42 -30 42s-30 -15 -30 -42zM288 414v-67h59v64c0 24 -4 44 -29 44c-27 0 -30 -18 -30 -41z" />
    <glyph glyph-name="Scaron" unicode="&#x160;" horiz-adv-x="333" 
d="M159 751h21c93 0 129 -41 129 -129v-122h-109v107c0 25 -5 44 -32 44s-33 -17 -33 -52v-14c0 -42 8 -65 46 -114l72 -93c51 -66 67 -103 67 -188v-24c0 -109 -46 -174 -146 -174h-22c-91 0 -138 49 -138 141v149h112v-130c0 -35 12 -52 37 -52c27 0 37 17 37 64v17
c0 54 -5 71 -46 125l-72 92c-48 62 -62 110 -62 184v24c0 100 50 145 139 145zM124 773l-63 109h81l27 -48l27 48h80l-63 -109h-89z" />
    <glyph glyph-name="scaron" unicode="&#x161;" horiz-adv-x="278" 
d="M262 449v-81h-96v64c0 20 -8 30 -24 30c-19 0 -23 -12 -23 -33v-9c0 -27 6 -37 25 -60l65 -78c50 -60 60 -94 60 -148v-14c0 -64 -33 -129 -121 -129h-21c-85 0 -116 49 -116 110v97h100v-77c0 -28 8 -37 27 -37c17 0 25 12 25 37v9c0 23 -2 46 -29 77l-63 72
c-43 49 -53 88 -53 139v15c0 68 35 113 116 113h19c85 0 109 -45 109 -97zM98 567l-57 130h79l25 -64l25 64h77l-57 -130h-92z" />
    <glyph glyph-name="Ydieresis" unicode="&#x178;" horiz-adv-x="306" 
d="M310 744l-99 -435v-309h-113v310l-102 434h110l52 -278l50 278h102zM143 872v-99h-90v99h90zM259 872v-99h-90v99h90z" />
    <glyph glyph-name="Zcaron" unicode="&#x17d;" horiz-adv-x="305" 
d="M18 744h271v-98l-163 -537h171v-109h-289v101l161 537h-151v106zM109 773l-63 109h81l27 -48l27 48h80l-63 -109h-89z" />
    <glyph glyph-name="zcaron" unicode="&#x17e;" horiz-adv-x="249" 
d="M18 538h215v-89l-124 -351h132v-98h-234v94l121 348h-110v96zM80 567l-57 130h79l25 -64l25 64h77l-57 -130h-92z" />
    <glyph glyph-name="circumflex" unicode="&#x2c6;" 
d="M217 698l57 -131h-79l-25 65l-25 -65h-77l57 131h92z" />
    <glyph glyph-name="caron" unicode="&#x2c7;" 
d="M125 567l-57 130h79l25 -64l25 64h77l-57 -130h-92z" />
    <glyph glyph-name="breve" unicode="&#x2d8;" 
d="M174 565h-3c-60 0 -101 32 -101 103v4h78v-4c0 -23 8 -34 24 -34h1c13 0 24 10 24 34v4h75v-4c0 -71 -43 -103 -98 -103z" />
    <glyph glyph-name="dotaccent" unicode="&#x2d9;" 
d="M224 682v-115h-107v115h107z" />
    <glyph glyph-name="ring" unicode="&#x2da;" 
d="M172 563c-47 0 -80 34 -80 81c0 44 35 79 80 79c47 0 79 -35 79 -79c0 -47 -32 -81 -79 -81zM172 610c19 0 31 13 31 33c0 19 -12 33 -31 33s-31 -14 -31 -33c0 -20 12 -33 31 -33z" />
    <glyph glyph-name="ogonek" unicode="&#x2db;" 
d="M109 -124v15c0 37 27 70 66 109h56c-33 -45 -43 -64 -43 -91v-4c0 -14 8 -21 24 -21h19v-72h-50c-40 0 -72 21 -72 64z" />
    <glyph glyph-name="tilde" unicode="&#x2dc;" 
d="M204 672h64v-46c0 -35 -15 -57 -42 -57h-1c-19 0 -34 6 -57 17c-11 5 -16 9 -23 9c-5 0 -7 -3 -7 -9v-19h-64v47c0 39 16 56 43 56h1c17 0 30 -4 54 -16c12 -7 19 -11 26 -11c4 0 6 3 6 9v20z" />
    <glyph glyph-name="hungarumlaut" unicode="&#x2dd;" 
d="M243 567h-74l27 127h76zM71 567l25 127h76l-27 -127h-74z" />
    <glyph glyph-name="endash" unicode="&#x2013;" horiz-adv-x="305" 
d="M16 339h273v-78h-273v78z" />
    <glyph glyph-name="emdash" unicode="&#x2014;" horiz-adv-x="463" 
d="M16 339h431v-78h-431v78z" />
    <glyph glyph-name="quoteleft" unicode="&#x2018;" horiz-adv-x="129" 
d="M74 659h40v-112h-99v82c0 51 13 94 22 115h55c-7 -19 -15 -54 -18 -85z" />
    <glyph glyph-name="quoteright" unicode="&#x2019;" horiz-adv-x="129" 
d="M92 547h-55c7 19 15 54 18 85h-40v112h99v-82c0 -51 -13 -94 -22 -115z" />
    <glyph glyph-name="quotesinglbase" unicode="&#x201a;" horiz-adv-x="129" 
d="M55 0h-40v112h99v-82c0 -51 -13 -94 -22 -115h-55c7 19 15 54 18 85z" />
    <glyph glyph-name="quotedblleft" unicode="&#x201c;" horiz-adv-x="247" 
d="M37 744h55c-7 -19 -15 -54 -18 -85h40v-112h-99v82c0 51 13 94 22 115zM155 744h55c-7 -19 -15 -54 -18 -85h40v-112h-99v82c0 51 13 94 22 115z" />
    <glyph glyph-name="quotedblright" unicode="&#x201d;" horiz-adv-x="247" 
d="M210 547h-55c7 19 15 54 18 85h-40v112h99v-82c0 -51 -13 -94 -22 -115zM92 547h-55c7 19 15 54 18 85h-40v112h99v-82c0 -51 -13 -94 -22 -115z" />
    <glyph glyph-name="quotedblbase" unicode="&#x201e;" horiz-adv-x="247" 
d="M92 -85h-55c7 19 15 54 18 85h-40v112h99v-82c0 -51 -13 -94 -22 -115zM210 -85h-55c7 19 15 54 18 85h-40v112h99v-82c0 -51 -13 -94 -22 -115z" />
    <glyph glyph-name="dagger" unicode="&#x2020;" horiz-adv-x="246" 
d="M71 0v491h-64v106h64v147h105v-147h63v-106h-63v-491h-105z" />
    <glyph glyph-name="daggerdbl" unicode="&#x2021;" horiz-adv-x="244" 
d="M71 148h-64v106h64v237h-64v106h64v147h103v-147h63v-106h-63v-237h63v-106h-63v-148h-103v148z" />
    <glyph glyph-name="bullet" unicode="&#x2022;" horiz-adv-x="218" 
d="M14 329c0 56 40 95 95 95s95 -39 95 -95s-40 -95 -95 -95s-95 39 -95 95z" />
    <glyph glyph-name="ellipsis" unicode="&#x2026;" horiz-adv-x="391" 
d="M270 128h105v-128h-105v128zM143 0v128h105v-128h-105zM121 0h-105v128h105v-128z" />
    <glyph glyph-name="perthousand" unicode="&#x2030;" horiz-adv-x="685" 
d="M14 508v144c0 63 36 98 92 98h19c56 0 90 -37 90 -98v-144c0 -59 -33 -97 -90 -97h-19c-53 0 -92 33 -92 97zM582 -4h-19c-55 0 -93 33 -93 97v144c0 63 37 97 93 97h18c56 0 90 -36 90 -97v-144c0 -59 -33 -97 -89 -97zM362 -4h-19c-53 0 -92 33 -92 97v144
c0 63 36 97 92 97h18c56 0 90 -36 90 -97v-144c0 -59 -32 -97 -89 -97zM331 744h74l-268 -744h-74zM350 72c15 0 20 11 20 23v141c0 13 -5 23 -20 23c-13 0 -18 -10 -18 -23v-141c0 -12 5 -23 18 -23zM133 510v141c0 12 -4 23 -19 23c-13 0 -19 -11 -19 -23v-141
c0 -13 6 -23 19 -23c15 0 19 10 19 23zM570 72c15 0 19 11 19 23v141c0 13 -4 23 -19 23c-13 0 -18 -10 -18 -23v-141c0 -12 5 -23 18 -23z" />
    <glyph glyph-name="guilsinglleft" unicode="&#x2039;" horiz-adv-x="153" 
d="M97 286l47 -163h-86l-44 136v54l44 134h87z" />
    <glyph glyph-name="guilsinglright" unicode="&#x203a;" horiz-adv-x="151" 
d="M53 284l-43 163h85l42 -136v-53l-42 -135h-87z" />
    <glyph glyph-name="fraction" unicode="&#x2044;" horiz-adv-x="330" 
d="M255 744h73l-252 -744h-74z" />
    <glyph glyph-name="Euro" unicode="&#x20ac;" horiz-adv-x="381" 
d="M7 294v79h55v29h-55v79h55v121c0 74 34 149 137 149h26c123 0 139 -82 139 -156v-88h-110v87c0 32 -10 49 -39 49s-38 -17 -38 -49v-113h132v-79h-132v-29h134v-79h-134v-142c0 -34 13 -51 38 -51c28 0 39 19 39 50v115h110v-113c0 -82 -28 -162 -136 -162h-24
c-117 0 -142 79 -142 158v145h-55z" />
    <glyph glyph-name="trademark" unicode="&#x2122;" horiz-adv-x="330" 
d="M145 465v279h71l16 -124l15 124h71v-279h-52v162l-23 -162h-24l-22 162v-162h-52zM132 744v-58h-31v-221h-64v221h-31v58h126z" />
    <glyph glyph-name="minus" unicode="&#x2212;" horiz-adv-x="317" 
d="M16 345h285v-85h-285v85z" />
    <glyph glyph-name="Dcroat" unicode="&#x110;" horiz-adv-x="346" 
d="M25 430v314h173c97 0 127 -55 127 -143v-453c0 -92 -34 -148 -127 -148h-173v335h-27v95h27zM138 335v-227h27c35 0 44 18 44 58v419c0 43 -11 58 -39 58h-32v-213h46v-95h-46z" />
    <glyph glyph-name="Eng" unicode="&#x14a;" horiz-adv-x="348" 
d="M229 -188h-58v102h26c19 0 26 7 26 28v58l-98 426v-426h-102v744h104l96 -421v421h102v-821c0 -81 -27 -111 -96 -111z" />
    <glyph glyph-name="IJ" unicode="&#x132;" horiz-adv-x="474" 
d="M136 744v-744h-113v744h113zM170 328h111v-183c0 -27 6 -41 27 -41h4c21 0 26 18 26 41v599h115v-608c0 -97 -49 -142 -128 -142h-31c-73 0 -124 33 -124 135v199z" />
    <glyph glyph-name="dcroat" unicode="&#x111;" horiz-adv-x="311" 
d="M106 592v71h223v-71h-223zM184 744h107v-744h-107v61c-8 -22 -35 -66 -83 -66h-1c-48 0 -81 46 -81 114v328c0 51 22 104 77 104h2c49 0 72 -41 86 -60v263zM184 142v255c0 28 -7 48 -30 48c-19 0 -28 -14 -28 -43v-266c0 -29 9 -43 28 -43c23 0 30 17 30 49z" />
    <glyph glyph-name="eng" unicode="&#x14b;" horiz-adv-x="313" 
d="M185 -62v465c0 25 -7 40 -28 40c-23 0 -30 -15 -30 -44v-399h-107v538h105v-63c17 31 50 66 91 66h5c55 0 72 -48 72 -83v-568c0 -65 -38 -78 -70 -78h-82v102h23c14 0 21 8 21 24z" />
    <glyph glyph-name="ij" unicode="&#x133;" horiz-adv-x="291" 
d="M127 538v-538h-107v538h107zM127 682v-115h-107v115h107zM271 682v-115h-107v115h107zM93 -86h50c14 0 21 8 21 24v600h107v-648c0 -65 -36 -78 -69 -78h-109v102z" />
    <glyph glyph-name="Abreve" unicode="&#x102;" horiz-adv-x="320" 
d="M212 0l-15 140h-83l-14 -140h-101l91 744h134l97 -744h-109zM155 526l-29 -275h59zM158 770h-3c-56 0 -99 33 -99 94v6h77v-4c0 -18 8 -27 23 -27h1c15 0 24 10 24 27v4h76v-6c0 -61 -47 -94 -99 -94z" />
    <glyph glyph-name="Amacron" unicode="&#x100;" horiz-adv-x="320" 
d="M212 0l-15 140h-83l-14 -140h-101l91 744h134l97 -744h-109zM155 526l-29 -275h59zM70 780v79h173v-79h-173z" />
    <glyph glyph-name="Aogonek" unicode="&#x104;" horiz-adv-x="320" 
d="M212 0l-15 140h-83l-14 -140h-101l91 744h134l97 -744h-109zM155 526l-29 -275h59zM199 -124v15c0 37 27 70 66 109h56c-33 -45 -43 -64 -43 -91v-4c0 -14 8 -21 24 -21h19v-72h-50c-40 0 -72 21 -72 64z" />
    <glyph glyph-name="Aringacute" unicode="&#x1fa;" horiz-adv-x="320" 
d="M115 945l42 109h94l-44 -109h-92zM212 0l-15 140h-83l-14 -140h-101l91 744h134l97 -744h-109zM155 526l-29 -275h59zM159 813c19 0 31 13 31 33c0 19 -12 33 -31 33s-31 -14 -31 -33c0 -20 12 -33 31 -33zM238 847c0 -47 -32 -81 -79 -81s-80 34 -80 81
c0 44 35 79 80 79c47 0 79 -35 79 -79z" />
    <glyph glyph-name="AEacute" unicode="&#x1fc;" horiz-adv-x="486" 
d="M476 0h-260v144h-86l-26 -144h-108l141 744h332v-108h-140v-195h110v-113h-110v-215h147v-113zM150 254h66v366zM251 773l42 109h94l-44 -109h-92z" />
    <glyph glyph-name="Cacute" unicode="&#x106;" horiz-adv-x="336" 
d="M208 151v173h111v-172c0 -80 -27 -161 -135 -161h-25c-115 0 -139 82 -139 157v454c0 76 33 149 135 149h26c124 0 138 -82 138 -155v-133h-111v131c0 32 -10 49 -38 49s-35 -16 -35 -49v-442c0 -34 12 -51 36 -51c27 0 37 19 37 50zM125 773l42 109h94l-44 -109h-92z
" />
    <glyph glyph-name="Ccaron" unicode="&#x10c;" horiz-adv-x="336" 
d="M208 151v173h111v-172c0 -80 -27 -161 -135 -161h-25c-115 0 -139 82 -139 157v454c0 76 33 149 135 149h26c124 0 138 -82 138 -155v-133h-111v131c0 32 -10 49 -38 49s-35 -16 -35 -49v-442c0 -34 12 -51 36 -51c27 0 37 19 37 50zM127 773l-63 109h81l27 -48l27 48h80
l-63 -109h-89z" />
    <glyph glyph-name="Ccircumflex" unicode="&#x108;" horiz-adv-x="336" 
d="M208 151v173h111v-172c0 -80 -27 -161 -135 -161h-25c-115 0 -139 82 -139 157v454c0 76 33 149 135 149h26c124 0 138 -82 138 -155v-133h-111v131c0 32 -10 49 -38 49s-35 -16 -35 -49v-442c0 -34 12 -51 36 -51c27 0 37 19 37 50zM216 882l63 -109h-81l-27 48l-27 -48
h-80l63 109h89z" />
    <glyph glyph-name="Cdotaccent" unicode="&#x10a;" horiz-adv-x="336" 
d="M208 151v173h111v-172c0 -80 -27 -161 -135 -161h-25c-115 0 -139 82 -139 157v454c0 76 33 149 135 149h26c124 0 138 -82 138 -155v-133h-111v131c0 32 -10 49 -38 49s-35 -16 -35 -49v-442c0 -34 12 -51 36 -51c27 0 37 19 37 50zM224 888v-115h-107v115h107z" />
    <glyph glyph-name="Dcaron" unicode="&#x10e;" horiz-adv-x="344" 
d="M23 0v744h173c97 0 127 -55 127 -143v-453c0 -92 -34 -148 -127 -148h-173zM136 643v-535h27c35 0 44 18 44 58v419c0 43 -11 58 -39 58h-32zM112 773l-63 109h81l27 -48l27 48h80l-63 -109h-89z" />
    <glyph glyph-name="Ebreve" unicode="&#x114;" horiz-adv-x="296" 
d="M23 744h257v-108h-144v-195h113v-113h-113v-215h150v-113h-263v744zM156 770h-3c-56 0 -99 33 -99 94v6h77v-4c0 -18 8 -27 23 -27h1c15 0 24 10 24 27v4h76v-6c0 -61 -47 -94 -99 -94z" />
    <glyph glyph-name="Ecaron" unicode="&#x11a;" horiz-adv-x="296" 
d="M23 744h257v-108h-144v-195h113v-113h-113v-215h150v-113h-263v744zM111 773l-63 109h81l27 -48l27 48h80l-63 -109h-89z" />
    <glyph glyph-name="Edotaccent" unicode="&#x116;" horiz-adv-x="296" 
d="M23 744h257v-108h-144v-195h113v-113h-113v-215h150v-113h-263v744zM207 888v-115h-107v115h107z" />
    <glyph glyph-name="Emacron" unicode="&#x112;" horiz-adv-x="296" 
d="M23 744h257v-108h-144v-195h113v-113h-113v-215h150v-113h-263v744zM66 780v79h173v-79h-173z" />
    <glyph glyph-name="Eogonek" unicode="&#x118;" horiz-adv-x="296" 
d="M23 744h257v-108h-144v-195h113v-113h-113v-215h150v-113h-263v744zM123 -124v15c0 37 27 70 66 109h56c-33 -45 -43 -64 -43 -91v-4c0 -14 8 -21 24 -21h19v-72h-50c-40 0 -72 21 -72 64z" />
    <glyph glyph-name="Gbreve" unicode="&#x11e;" horiz-adv-x="341" 
d="M135 -10h-7c-67 0 -108 59 -108 136v465c0 83 31 160 139 160h22c121 0 135 -79 135 -167v-76h-110v84c0 33 -8 51 -36 51c-23 0 -35 -17 -35 -51v-435c0 -35 12 -53 37 -53c29 0 42 20 42 48v186h-51v114h158v-452h-64c-1 4 -10 41 -19 73c-8 -25 -46 -83 -103 -83z
M173 770h-3c-56 0 -99 33 -99 94v6h77v-4c0 -18 8 -27 23 -27h1c15 0 24 10 24 27v4h76v-6c0 -61 -47 -94 -99 -94z" />
    <glyph glyph-name="Gcircumflex" unicode="&#x11c;" horiz-adv-x="341" 
d="M135 -10h-7c-67 0 -108 59 -108 136v465c0 83 31 160 139 160h22c121 0 135 -79 135 -167v-76h-110v84c0 33 -8 51 -36 51c-23 0 -35 -17 -35 -51v-435c0 -35 12 -53 37 -53c29 0 42 20 42 48v186h-51v114h158v-452h-64c-1 4 -10 41 -19 73c-8 -25 -46 -83 -103 -83z
M216 882l63 -109h-81l-27 48l-27 -48h-80l63 109h89z" />
    <glyph glyph-name="uni0122" unicode="&#x122;" horiz-adv-x="341" 
d="M135 -10h-7c-67 0 -108 59 -108 136v465c0 83 31 160 139 160h22c121 0 135 -79 135 -167v-76h-110v84c0 33 -8 51 -36 51c-23 0 -35 -17 -35 -51v-435c0 -35 12 -53 37 -53c29 0 42 20 42 48v186h-51v114h158v-452h-64c-1 4 -10 41 -19 73c-8 -25 -46 -83 -103 -83z
M197 -196h-45c5 13 12 37 13 65h-38v102h92v-64c0 -56 -15 -88 -22 -103z" />
    <glyph glyph-name="Gdotaccent" unicode="&#x120;" horiz-adv-x="341" 
d="M135 -10h-7c-67 0 -108 59 -108 136v465c0 83 31 160 139 160h22c121 0 135 -79 135 -167v-76h-110v84c0 33 -8 51 -36 51c-23 0 -35 -17 -35 -51v-435c0 -35 12 -53 37 -53c29 0 42 20 42 48v186h-51v114h158v-452h-64c-1 4 -10 41 -19 73c-8 -25 -46 -83 -103 -83z
M224 888v-115h-107v115h107z" />
    <glyph glyph-name="Hbar" unicode="&#x126;" horiz-adv-x="349" 
d="M-5 553v84h359v-84h-359zM136 327v-327h-113v744h113v-298h77v298h113v-744h-113v327h-77z" />
    <glyph glyph-name="Hcircumflex" unicode="&#x124;" horiz-adv-x="349" 
d="M136 327v-327h-113v744h113v-298h77v298h113v-744h-113v327h-77zM219 882l63 -109h-81l-27 48l-27 -48h-80l63 109h89z" />
    <glyph glyph-name="Ibreve" unicode="&#x12c;" horiz-adv-x="159" 
d="M136 744v-744h-113v744h113zM81 770h-3c-56 0 -99 33 -99 94v6h77v-4c0 -18 8 -27 23 -27h1c15 0 24 10 24 27v4h76v-6c0 -61 -47 -94 -99 -94z" />
    <glyph glyph-name="Idotaccent" unicode="&#x130;" horiz-adv-x="159" 
d="M136 744v-744h-113v744h113zM132 888v-115h-107v115h107z" />
    <glyph glyph-name="Imacron" unicode="&#x12a;" horiz-adv-x="159" 
d="M136 744v-744h-113v744h113zM-7 780v79h173v-79h-173z" />
    <glyph glyph-name="Iogonek" unicode="&#x12e;" horiz-adv-x="159" 
d="M136 744v-744h-113v744h113zM14 -124v15c0 37 27 70 66 109h56c-33 -45 -43 -64 -43 -91v-4c0 -14 8 -21 24 -21h19v-72h-50c-40 0 -72 21 -72 64z" />
    <glyph glyph-name="Itilde" unicode="&#x128;" horiz-adv-x="159" 
d="M136 744v-744h-113v744h113zM177 878v-46c0 -35 -15 -57 -42 -57h-1c-19 0 -34 6 -57 17c-11 5 -16 9 -23 9c-5 0 -7 -3 -7 -9v-19h-64v47c0 39 16 56 43 56h1c17 0 30 -4 54 -16c12 -7 19 -11 26 -11c4 0 6 3 6 9v20h64z" />
    <glyph glyph-name="Jcircumflex" unicode="&#x134;" horiz-adv-x="319" 
d="M15 328h111v-183c0 -27 6 -41 27 -41h4c21 0 26 18 26 41v599h115v-608c0 -97 -49 -142 -128 -142h-31c-73 0 -124 33 -124 135v199zM283 882l63 -109h-81l-27 48l-27 -48h-80l63 109h89z" />
    <glyph glyph-name="uni0136" unicode="&#x136;" 
d="M136 323v-323h-113v744h113v-298l89 298h110l-105 -346l116 -398h-116zM204 -196h-45c5 13 12 37 13 65h-38v102h92v-64c0 -56 -15 -88 -22 -103z" />
    <glyph glyph-name="Lacute" unicode="&#x139;" horiz-adv-x="284" 
d="M23 744h113v-629h138v-115h-251v744zM34 773l42 109h94l-44 -109h-92z" />
    <glyph glyph-name="Lcaron" unicode="&#x13d;" horiz-adv-x="284" 
d="M154 600l7 144h81l-12 -144h-76zM23 744h113v-629h138v-115h-251v744z" />
    <glyph glyph-name="uni013B" unicode="&#x13b;" horiz-adv-x="284" 
d="M23 744h113v-629h138v-115h-251v744zM174 -196h-45c5 13 12 37 13 65h-38v102h92v-64c0 -56 -15 -88 -22 -103z" />
    <glyph glyph-name="Ldot" unicode="&#x13f;" horiz-adv-x="283" 
d="M272 448v-127h-105v127h105zM23 744h113v-629h138v-115h-251v744z" />
    <glyph glyph-name="Nacute" unicode="&#x143;" horiz-adv-x="348" 
d="M23 744h102l97 -399v399h103v-744h-92l-108 428v-428h-102v744zM126 773l42 109h94l-44 -109h-92z" />
    <glyph glyph-name="Ncaron" unicode="&#x147;" horiz-adv-x="348" 
d="M23 744h102l97 -399v399h103v-744h-92l-108 428v-428h-102v744zM133 773l-63 109h81l27 -48l27 48h80l-63 -109h-89z" />
    <glyph glyph-name="uni0145" unicode="&#x145;" horiz-adv-x="348" 
d="M23 744h102l97 -399v399h103v-744h-92l-108 428v-428h-102v744zM202 -196h-45c5 13 12 37 13 65h-38v102h92v-64c0 -56 -15 -88 -22 -103z" />
    <glyph glyph-name="Obreve" unicode="&#x14e;" horiz-adv-x="349" 
d="M329 581v-415c0 -104 -35 -175 -144 -175h-19c-108 0 -146 71 -146 175v414c0 104 38 171 145 171h19c110 0 145 -68 145 -170zM214 158v428c0 38 -13 57 -39 57c-29 0 -40 -18 -40 -57v-428c0 -32 9 -57 41 -57c31 0 38 25 38 57zM176 770h-3c-56 0 -99 33 -99 94v6h77
v-4c0 -18 8 -27 23 -27h1c15 0 24 10 24 27v4h76v-6c0 -61 -47 -94 -99 -94z" />
    <glyph glyph-name="Ohungarumlaut" unicode="&#x150;" horiz-adv-x="349" 
d="M329 581v-415c0 -104 -35 -175 -144 -175h-19c-108 0 -146 71 -146 175v414c0 104 38 171 145 171h19c110 0 145 -68 145 -170zM214 158v428c0 38 -13 57 -39 57c-29 0 -40 -18 -40 -57v-428c0 -32 9 -57 41 -57c31 0 38 25 38 57zM269 773h-75l29 108h78zM97 773l25 108
h78l-28 -108h-75z" />
    <glyph glyph-name="Omacron" unicode="&#x14c;" horiz-adv-x="349" 
d="M329 581v-415c0 -104 -35 -175 -144 -175h-19c-108 0 -146 71 -146 175v414c0 104 38 171 145 171h19c110 0 145 -68 145 -170zM214 158v428c0 38 -13 57 -39 57c-29 0 -40 -18 -40 -57v-428c0 -32 9 -57 41 -57c31 0 38 25 38 57zM88 780v79h173v-79h-173z" />
    <glyph glyph-name="Oslashacute" unicode="&#x1fe;" horiz-adv-x="349" 
d="M330 582v-430c0 -91 -51 -162 -143 -162h-21c-47 0 -75 20 -88 35l-11 -25h-68l31 81c-8 19 -11 43 -11 71v429c0 102 39 170 144 170h23c44 0 68 -14 87 -31l9 24h68l-31 -83c7 -23 11 -50 11 -79zM175 641c-35 0 -44 -19 -44 -56v-257l88 256v2c0 37 -15 55 -44 55z
M175 105c36 0 44 25 44 49v261l-88 -254v-8c0 -23 9 -48 44 -48zM129 773l42 109h94l-44 -109h-92z" />
    <glyph glyph-name="Racute" unicode="&#x154;" horiz-adv-x="339" 
d="M136 643v-205h30c31 0 41 20 41 53v104c0 32 -6 48 -41 48h-30zM136 332v-332h-113v744h183c76 0 113 -31 113 -115v-132c0 -62 -29 -87 -49 -95c25 -11 49 -30 49 -81v-261c0 -31 6 -44 11 -55v-5h-112c-5 8 -11 21 -11 61v224c0 33 -6 47 -42 47h-29zM117 773l42 109
h94l-44 -109h-92z" />
    <glyph glyph-name="Rcaron" unicode="&#x158;" horiz-adv-x="339" 
d="M136 643v-205h30c31 0 41 20 41 53v104c0 32 -6 48 -41 48h-30zM136 332v-332h-113v744h183c76 0 113 -31 113 -115v-132c0 -62 -29 -87 -49 -95c25 -11 49 -30 49 -81v-261c0 -31 6 -44 11 -55v-5h-112c-5 8 -11 21 -11 61v224c0 33 -6 47 -42 47h-29zM119 773l-63 109
h81l27 -48l27 48h80l-63 -109h-89z" />
    <glyph glyph-name="uni0156" unicode="&#x156;" horiz-adv-x="339" 
d="M136 643v-205h30c31 0 41 20 41 53v104c0 32 -6 48 -41 48h-30zM136 332v-332h-113v744h183c76 0 113 -31 113 -115v-132c0 -62 -29 -87 -49 -95c25 -11 49 -30 49 -81v-261c0 -31 6 -44 11 -55v-5h-112c-5 8 -11 21 -11 61v224c0 33 -6 47 -42 47h-29zM199 -196h-45
c5 13 12 37 13 65h-38v102h92v-64c0 -56 -15 -88 -22 -103z" />
    <glyph glyph-name="Sacute" unicode="&#x15a;" horiz-adv-x="333" 
d="M159 751h21c93 0 129 -41 129 -129v-122h-109v107c0 25 -5 44 -32 44s-33 -17 -33 -52v-14c0 -42 8 -65 46 -114l72 -93c51 -66 67 -103 67 -188v-24c0 -109 -46 -174 -146 -174h-22c-91 0 -138 49 -138 141v149h112v-130c0 -35 12 -52 37 -52c27 0 37 17 37 64v17
c0 54 -5 71 -46 125l-72 92c-48 62 -62 110 -62 184v24c0 100 50 145 139 145zM122 773l42 109h94l-44 -109h-92z" />
    <glyph glyph-name="uni015E" unicode="&#x15e;" horiz-adv-x="333" 
d="M159 751h21c93 0 129 -41 129 -129v-122h-109v107c0 25 -5 44 -32 44s-33 -17 -33 -52v-14c0 -42 8 -65 46 -114l72 -93c51 -66 67 -103 67 -188v-24c0 -109 -46 -174 -146 -174h-22c-91 0 -138 49 -138 141v149h112v-130c0 -35 12 -52 37 -52c27 0 37 17 37 64v17
c0 54 -5 71 -46 125l-72 92c-48 62 -62 110 -62 184v24c0 100 50 145 139 145zM151 -188h-55v60h38c16 0 24 6 24 18c0 13 -8 19 -24 19h-23v91h55v-40c47 0 77 -23 77 -71v-3c0 -51 -41 -74 -92 -74z" />
    <glyph glyph-name="Scircumflex" unicode="&#x15c;" horiz-adv-x="333" 
d="M159 751h21c93 0 129 -41 129 -129v-122h-109v107c0 25 -5 44 -32 44s-33 -17 -33 -52v-14c0 -42 8 -65 46 -114l72 -93c51 -66 67 -103 67 -188v-24c0 -109 -46 -174 -146 -174h-22c-91 0 -138 49 -138 141v149h112v-130c0 -35 12 -52 37 -52c27 0 37 17 37 64v17
c0 54 -5 71 -46 125l-72 92c-48 62 -62 110 -62 184v24c0 100 50 145 139 145zM212 882l63 -109h-81l-27 48l-27 -48h-80l63 109h89z" />
    <glyph glyph-name="uni0218" unicode="&#x218;" horiz-adv-x="333" 
d="M159 751h21c93 0 129 -41 129 -129v-122h-109v107c0 25 -5 44 -32 44s-33 -17 -33 -52v-14c0 -42 8 -65 46 -114l72 -93c51 -66 67 -103 67 -188v-24c0 -109 -46 -174 -146 -174h-22c-91 0 -138 49 -138 141v149h112v-130c0 -35 12 -52 37 -52c27 0 37 17 37 64v17
c0 54 -5 71 -46 125l-72 92c-48 62 -62 110 -62 184v24c0 100 50 145 139 145zM187 -196h-45c5 13 12 37 13 65h-38v102h92v-64c0 -56 -15 -88 -22 -103z" />
    <glyph glyph-name="Tcaron" unicode="&#x164;" horiz-adv-x="320" 
d="M9 744h302v-108h-95v-636h-112v636h-95v108zM117 773l-63 109h81l27 -48l27 48h80l-63 -109h-89z" />
    <glyph glyph-name="Tcommaaccent" unicode="&#x162;" horiz-adv-x="320" 
d="M9 744h302v-108h-95v-636h-112v636h-95v108zM186 -196h-45c5 13 12 37 13 65h-38v102h92v-64c0 -56 -15 -88 -22 -103z" />
    <glyph glyph-name="uni021A" unicode="&#x21a;" horiz-adv-x="320" 
d="M9 744h302v-108h-95v-636h-112v636h-95v108zM186 -196h-45c5 13 12 37 13 65h-38v102h92v-64c0 -56 -15 -88 -22 -103z" />
    <glyph glyph-name="Tbar" unicode="&#x166;" horiz-adv-x="320" 
d="M286 368h-252v96h252v-96zM9 744h302v-108h-95v-636h-112v636h-95v108z" />
    <glyph glyph-name="Ubreve" unicode="&#x16c;" horiz-adv-x="345" 
d="M21 162v582h115v-589c0 -32 11 -53 36 -53c27 0 37 20 37 53v589h115v-582c0 -105 -42 -171 -142 -171h-20c-100 0 -141 63 -141 171zM174 770h-3c-56 0 -99 33 -99 94v6h77v-4c0 -18 8 -27 23 -27h1c15 0 24 10 24 27v4h76v-6c0 -61 -47 -94 -99 -94z" />
    <glyph glyph-name="Uhungarumlaut" unicode="&#x170;" horiz-adv-x="345" 
d="M21 162v582h115v-589c0 -32 11 -53 36 -53c27 0 37 20 37 53v589h115v-582c0 -105 -42 -171 -142 -171h-20c-100 0 -141 63 -141 171zM258 773h-75l29 108h78zM86 773l25 108h78l-28 -108h-75z" />
    <glyph glyph-name="Umacron" unicode="&#x16a;" horiz-adv-x="345" 
d="M21 162v582h115v-589c0 -32 11 -53 36 -53c27 0 37 20 37 53v589h115v-582c0 -105 -42 -171 -142 -171h-20c-100 0 -141 63 -141 171zM86 780v79h173v-79h-173z" />
    <glyph glyph-name="Uogonek" unicode="&#x172;" horiz-adv-x="345" 
d="M263 0c-32 -41 -44 -64 -44 -91v-4c0 -14 8 -21 24 -21h19v-72h-50c-40 0 -72 21 -72 64v15c0 35 23 66 59 101c-5 -1 -10 -1 -17 -1h-20c-100 0 -141 63 -141 171v582h115v-589c0 -32 11 -53 36 -53c27 0 37 20 37 53v589h115v-582c0 -96 -35 -128 -61 -162z" />
    <glyph glyph-name="Uring" unicode="&#x16e;" horiz-adv-x="345" 
d="M21 162v582h115v-589c0 -32 11 -53 36 -53c27 0 37 20 37 53v589h115v-582c0 -105 -42 -171 -142 -171h-20c-100 0 -141 63 -141 171zM173 813c19 0 31 13 31 33c0 19 -12 33 -31 33s-31 -14 -31 -33c0 -20 12 -33 31 -33zM252 847c0 -47 -32 -81 -79 -81s-80 34 -80 81
c0 44 35 79 80 79c47 0 79 -35 79 -79z" />
    <glyph glyph-name="Utilde" unicode="&#x168;" horiz-adv-x="345" 
d="M21 162v582h115v-589c0 -32 11 -53 36 -53c27 0 37 20 37 53v589h115v-582c0 -105 -42 -171 -142 -171h-20c-100 0 -141 63 -141 171zM270 878v-46c0 -35 -15 -57 -42 -57h-1c-19 0 -34 6 -57 17c-11 5 -16 9 -23 9c-5 0 -7 -3 -7 -9v-19h-64v47c0 39 16 56 43 56h1
c17 0 30 -4 54 -16c12 -7 19 -11 26 -11c4 0 6 3 6 9v20h64z" />
    <glyph glyph-name="Wacute" unicode="&#x1e82;" horiz-adv-x="531" 
d="M216 744h105l51 -482l52 482h106l-95 -744h-121l-47 433l-48 -433h-125l-93 744h114l51 -481zM223 773l42 109h94l-44 -109h-92z" />
    <glyph glyph-name="Wcircumflex" unicode="&#x174;" horiz-adv-x="531" 
d="M216 744h105l51 -482l52 482h106l-95 -744h-121l-47 433l-48 -433h-125l-93 744h114l51 -481zM311 882l63 -109h-81l-27 48l-27 -48h-80l63 109h89z" />
    <glyph glyph-name="Wdieresis" unicode="&#x1e84;" horiz-adv-x="531" 
d="M216 744h105l51 -482l52 482h106l-95 -744h-121l-47 433l-48 -433h-125l-93 744h114l51 -481zM255 872v-99h-90v99h90zM371 872v-99h-90v99h90z" />
    <glyph glyph-name="Wgrave" unicode="&#x1e80;" horiz-adv-x="531" 
d="M216 744h105l51 -482l52 482h106l-95 -744h-121l-47 433l-48 -433h-125l-93 744h114l51 -481zM313 773h-92l-44 109h94z" />
    <glyph glyph-name="Ycircumflex" unicode="&#x176;" horiz-adv-x="306" 
d="M310 744l-99 -435v-309h-113v310l-102 434h110l52 -278l50 278h102zM201 882l63 -109h-81l-27 48l-27 -48h-80l63 109h89z" />
    <glyph glyph-name="Ygrave" unicode="&#x1ef2;" horiz-adv-x="306" 
d="M310 744l-99 -435v-309h-113v310l-102 434h110l52 -278l50 278h102zM205 773h-92l-44 109h94z" />
    <glyph glyph-name="Zacute" unicode="&#x179;" horiz-adv-x="305" 
d="M18 744h271v-98l-163 -537h171v-109h-289v101l161 537h-151v106zM104 773l42 109h94l-44 -109h-92z" />
    <glyph glyph-name="Zdotaccent" unicode="&#x17b;" horiz-adv-x="305" 
d="M18 744h271v-98l-163 -537h171v-109h-289v101l161 537h-151v106zM206 888v-115h-107v115h107z" />
    <glyph glyph-name="abreve" unicode="&#x103;" horiz-adv-x="310" 
d="M15 81v126c0 53 12 84 51 108c24 16 78 40 93 48c11 7 13 8 13 23v34c0 27 -7 35 -26 35h-2c-21 0 -27 -10 -27 -34v-57h-96v76c0 40 12 102 113 102h20c103 0 121 -50 121 -106v-320c0 -13 2 -17 17 -17h19v-99h-102c-23 0 -35 16 -35 61c-14 -25 -42 -64 -88 -64h-3
c-43 0 -68 41 -68 84zM172 133v139c-12 -7 -27 -16 -38 -27s-14 -22 -14 -43v-74c0 -23 8 -35 25 -35c18 0 27 13 27 40zM146 565h-3c-60 0 -101 32 -101 103v4h78v-4c0 -23 8 -34 24 -34h1c13 0 24 10 24 34v4h75v-4c0 -71 -43 -103 -98 -103z" />
    <glyph glyph-name="amacron" unicode="&#x101;" horiz-adv-x="310" 
d="M15 81v126c0 53 12 84 51 108c24 16 78 40 93 48c11 7 13 8 13 23v34c0 27 -7 35 -26 35h-2c-21 0 -27 -10 -27 -34v-57h-96v76c0 40 12 102 113 102h20c103 0 121 -50 121 -106v-320c0 -13 2 -17 17 -17h19v-99h-102c-23 0 -35 16 -35 61c-14 -25 -42 -64 -88 -64h-3
c-43 0 -68 41 -68 84zM172 133v139c-12 -7 -27 -16 -38 -27s-14 -22 -14 -43v-74c0 -23 8 -35 25 -35c18 0 27 13 27 40zM59 579v77h172v-77h-172z" />
    <glyph glyph-name="aogonek" unicode="&#x105;" horiz-adv-x="310" 
d="M15 81v126c0 53 12 84 51 108c24 16 78 40 93 48c11 7 13 8 13 23v34c0 27 -7 35 -26 35h-2c-21 0 -27 -10 -27 -34v-57h-96v76c0 40 12 102 113 102h20c103 0 121 -50 121 -106v-320c0 -13 2 -17 17 -17h19v-99h-102c-23 0 -35 16 -35 61c-14 -25 -42 -64 -88 -64h-3
c-43 0 -68 41 -68 84zM172 133v139c-12 -7 -27 -16 -38 -27s-14 -22 -14 -43v-74c0 -23 8 -35 25 -35c18 0 27 13 27 40zM189 -124v15c0 37 27 70 66 109h56c-33 -45 -43 -64 -43 -91v-4c0 -14 8 -21 24 -21h19v-72h-50c-40 0 -72 21 -72 64z" />
    <glyph glyph-name="aringacute" unicode="&#x1fb;" horiz-adv-x="310" 
d="M15 81v126c0 53 12 84 51 108c24 16 78 40 93 48c11 7 13 8 13 23v34c0 27 -7 35 -26 35h-2c-21 0 -27 -10 -27 -34v-57h-96v76c0 40 12 102 113 102h20c103 0 121 -50 121 -106v-320c0 -13 2 -17 17 -17h19v-99h-102c-23 0 -35 16 -35 61c-14 -25 -42 -64 -88 -64h-3
c-43 0 -68 41 -68 84zM172 133v139c-12 -7 -27 -16 -38 -27s-14 -22 -14 -43v-74c0 -23 8 -35 25 -35c18 0 27 13 27 40zM143 563c-47 0 -80 34 -80 81c0 44 35 79 80 79c47 0 79 -35 79 -79c0 -47 -32 -81 -79 -81zM143 610c19 0 31 13 31 33c0 19 -12 33 -31 33
s-31 -14 -31 -33c0 -20 12 -33 31 -33zM101 742l38 130h90l-40 -130h-88z" />
    <glyph glyph-name="aeacute" unicode="&#x1fd;" horiz-adv-x="450" 
d="M181 59c-16 -28 -46 -62 -93 -62h-3c-45 0 -70 41 -70 84v104c0 53 12 84 51 108c24 16 78 40 93 48c11 7 13 8 13 23v58c0 27 -7 35 -26 35h-2c-21 0 -27 -10 -27 -34v-81h-96v100c0 40 12 102 113 102h18c55 0 70 -22 75 -29c5 8 26 31 73 31h17c83 0 117 -46 117 -134
v-159h-159v-120c0 -24 6 -40 29 -40c19 0 27 16 27 39v85h103v-89c0 -101 -57 -137 -121 -137h-17c-83 0 -107 42 -115 68zM172 133v117c-12 -7 -27 -16 -38 -27s-14 -22 -14 -43v-52c0 -23 8 -35 25 -35c18 0 27 13 27 40zM275 414v-67h59v67c0 23 -4 42 -29 42
c-27 0 -30 -19 -30 -42zM183 567l38 130h90l-40 -130h-88z" />
    <glyph glyph-name="cacute" unicode="&#x107;" horiz-adv-x="297" 
d="M179 241h103v-121c0 -61 -32 -129 -121 -129h-20c-85 0 -124 59 -124 130v293c0 84 40 132 128 132h19c89 0 118 -51 118 -117v-96h-103v73c0 27 -2 45 -27 45c-24 0 -27 -17 -27 -44v-275c0 -25 6 -41 26 -41c21 0 28 16 28 40v110zM108 567l38 130h90l-40 -130h-88z
" />
    <glyph glyph-name="ccaron" unicode="&#x10d;" horiz-adv-x="297" 
d="M179 241h103v-121c0 -61 -32 -129 -121 -129h-20c-85 0 -124 59 -124 130v293c0 84 40 132 128 132h19c89 0 118 -51 118 -117v-96h-103v73c0 27 -2 45 -27 45c-24 0 -27 -17 -27 -44v-275c0 -25 6 -41 26 -41c21 0 28 16 28 40v110zM106 567l-57 130h79l25 -64l25 64h77
l-57 -130h-92z" />
    <glyph glyph-name="ccircumflex" unicode="&#x109;" horiz-adv-x="297" 
d="M179 241h103v-121c0 -61 -32 -129 -121 -129h-20c-85 0 -124 59 -124 130v293c0 84 40 132 128 132h19c89 0 118 -51 118 -117v-96h-103v73c0 27 -2 45 -27 45c-24 0 -27 -17 -27 -44v-275c0 -25 6 -41 26 -41c21 0 28 16 28 40v110zM199 698l57 -131h-79l-25 65l-25 -65
h-77l57 131h92z" />
    <glyph glyph-name="cdotaccent" unicode="&#x10b;" horiz-adv-x="297" 
d="M179 241h103v-121c0 -61 -32 -129 -121 -129h-20c-85 0 -124 59 -124 130v293c0 84 40 132 128 132h19c89 0 118 -51 118 -117v-96h-103v73c0 27 -2 45 -27 45c-24 0 -27 -17 -27 -44v-275c0 -25 6 -41 26 -41c21 0 28 16 28 40v110zM205 682v-115h-107v115h107z" />
    <glyph glyph-name="dcaron" unicode="&#x10f;" horiz-adv-x="311" 
d="M184 744h107v-744h-107v61c-8 -22 -35 -66 -83 -66h-1c-48 0 -81 46 -81 114v328c0 51 22 104 77 104h2c49 0 72 -41 86 -60v263zM184 142v255c0 28 -7 48 -30 48c-19 0 -28 -14 -28 -43v-266c0 -29 9 -43 28 -43c23 0 30 17 30 49zM309 600l7 144h81l-12 -144h-76z" />
    <glyph glyph-name="ebreve" unicode="&#x115;" horiz-adv-x="295" 
d="M139 545h20c84 0 120 -46 120 -134v-155h-159v-124c0 -24 6 -40 29 -40c19 0 27 16 27 39v89h103v-94c0 -96 -49 -136 -125 -136h-19c-72 0 -118 43 -118 135v291c0 73 35 129 122 129zM120 412v-68h59v68c0 24 -4 43 -29 43c-27 0 -30 -19 -30 -43zM151 565h-3
c-60 0 -101 32 -101 103v4h78v-4c0 -23 8 -34 24 -34h1c13 0 24 10 24 34v4h75v-4c0 -71 -43 -103 -98 -103z" />
    <glyph glyph-name="ecaron" unicode="&#x11b;" horiz-adv-x="295" 
d="M139 545h20c84 0 120 -46 120 -134v-155h-159v-124c0 -24 6 -40 29 -40c19 0 27 16 27 39v89h103v-94c0 -96 -49 -136 -125 -136h-19c-72 0 -118 43 -118 135v291c0 73 35 129 122 129zM120 412v-68h59v68c0 24 -4 43 -29 43c-27 0 -30 -19 -30 -43zM104 567l-57 130h79
l25 -64l25 64h77l-57 -130h-92z" />
    <glyph glyph-name="edotaccent" unicode="&#x117;" horiz-adv-x="295" 
d="M139 545h20c84 0 120 -46 120 -134v-155h-159v-124c0 -24 6 -40 29 -40c19 0 27 16 27 39v89h103v-94c0 -96 -49 -136 -125 -136h-19c-72 0 -118 43 -118 135v291c0 73 35 129 122 129zM120 412v-68h59v68c0 24 -4 43 -29 43c-27 0 -30 -19 -30 -43zM203 682v-115h-107
v115h107z" />
    <glyph glyph-name="emacron" unicode="&#x113;" horiz-adv-x="295" 
d="M139 545h20c84 0 120 -46 120 -134v-155h-159v-124c0 -24 6 -40 29 -40c19 0 27 16 27 39v89h103v-94c0 -96 -49 -136 -125 -136h-19c-72 0 -118 43 -118 135v291c0 73 35 129 122 129zM120 412v-68h59v68c0 24 -4 43 -29 43c-27 0 -30 -19 -30 -43zM64 579v77h172v-77
h-172z" />
    <glyph glyph-name="eogonek" unicode="&#x119;" horiz-adv-x="295" 
d="M228 -3c-32 -41 -42 -64 -42 -88v-4c0 -14 8 -21 24 -21h19v-72h-50c-40 0 -72 21 -72 64v15c0 35 22 64 55 99h-8h-19c-72 0 -118 43 -118 135v291c0 73 35 129 122 129h20c84 0 120 -46 120 -134v-155h-159v-124c0 -24 6 -40 29 -40c19 0 27 16 27 39v89h103v-94
c0 -76 -32 -104 -51 -129zM120 412v-68h59v68c0 24 -4 43 -29 43c-27 0 -30 -19 -30 -43z" />
    <glyph glyph-name="gbreve" unicode="&#x11f;" horiz-adv-x="312" 
d="M185 -73v137c-16 -35 -44 -69 -88 -69c-43 0 -78 40 -78 100v322c0 79 27 124 79 124c47 0 70 -30 89 -65v62h105v-625c0 -39 -10 -108 -126 -108h-24c-97 0 -119 44 -119 92v78h103v-48c0 -20 7 -31 27 -31h4c23 0 28 11 28 31zM185 135v272c0 23 -7 39 -30 39
c-20 0 -28 -16 -28 -39v-273c0 -24 9 -40 29 -40c19 0 29 16 29 41zM157 565h-3c-60 0 -101 32 -101 103v4h78v-4c0 -23 8 -34 24 -34h1c13 0 24 10 24 34v4h75v-4c0 -71 -43 -103 -98 -103z" />
    <glyph glyph-name="gcircumflex" unicode="&#x11d;" horiz-adv-x="312" 
d="M185 -73v137c-16 -35 -44 -69 -88 -69c-43 0 -78 40 -78 100v322c0 79 27 124 79 124c47 0 70 -30 89 -65v62h105v-625c0 -39 -10 -108 -126 -108h-24c-97 0 -119 44 -119 92v78h103v-48c0 -20 7 -31 27 -31h4c23 0 28 11 28 31zM185 135v272c0 23 -7 39 -30 39
c-20 0 -28 -16 -28 -39v-273c0 -24 9 -40 29 -40c19 0 29 16 29 41zM201 698l57 -131h-79l-25 65l-25 -65h-77l57 131h92z" />
    <glyph glyph-name="uni0123" unicode="&#x123;" horiz-adv-x="312" 
d="M185 -73v137c-16 -35 -44 -69 -88 -69c-43 0 -78 40 -78 100v322c0 79 27 124 79 124c47 0 70 -30 89 -65v62h105v-625c0 -39 -10 -108 -126 -108h-24c-97 0 -119 44 -119 92v78h103v-48c0 -20 7 -31 27 -31h4c23 0 28 11 28 31zM185 135v272c0 23 -7 39 -30 39
c-20 0 -28 -16 -28 -39v-273c0 -24 9 -40 29 -40c19 0 29 16 29 41zM127 734h49c-5 -15 -13 -38 -13 -66h37v-101h-93v62c0 57 13 90 20 105z" />
    <glyph glyph-name="gdotaccent" unicode="&#x121;" horiz-adv-x="312" 
d="M185 -73v137c-16 -35 -44 -69 -88 -69c-43 0 -78 40 -78 100v322c0 79 27 124 79 124c47 0 70 -30 89 -65v62h105v-625c0 -39 -10 -108 -126 -108h-24c-97 0 -119 44 -119 92v78h103v-48c0 -20 7 -31 27 -31h4c23 0 28 11 28 31zM185 135v272c0 23 -7 39 -30 39
c-20 0 -28 -16 -28 -39v-273c0 -24 9 -40 29 -40c19 0 29 16 29 41zM208 682v-115h-107v115h107z" />
    <glyph glyph-name="hbar" unicode="&#x127;" horiz-adv-x="313" 
d="M-18 592v71h223v-71h-223zM20 0v744h107v-267c19 32 48 64 89 64h5c57 0 72 -48 72 -83v-458h-108v403c0 25 -7 40 -28 40c-23 0 -30 -15 -30 -44v-399h-107z" />
    <glyph glyph-name="hcircumflex" unicode="&#x125;" horiz-adv-x="313" 
d="M20 0v744h107v-267c19 32 48 64 89 64h5c57 0 72 -48 72 -83v-458h-108v403c0 25 -7 40 -28 40c-23 0 -30 -15 -30 -44v-399h-107zM184 882l63 -109h-81l-27 48l-27 -48h-80l63 109h89z" />
    <glyph glyph-name="ibreve" unicode="&#x12d;" horiz-adv-x="147" 
d="M75 565h-3c-60 0 -93 33 -93 88v19h76v-10c0 -18 6 -27 18 -27h1c12 0 18 9 18 27v10h76v-19c0 -55 -37 -88 -93 -88zM127 538v-538h-107v538h107z" />
    <glyph glyph-name="idotaccent" horiz-adv-x="147" 
d="M127 538v-538h-107v538h107zM127 682v-115h-107v115h107z" />
    <glyph glyph-name="imacron" unicode="&#x12b;" horiz-adv-x="147" 
d="M-5 579v78h157v-78h-157zM127 538v-538h-107v538h107z" />
    <glyph glyph-name="iogonek" unicode="&#x12f;" horiz-adv-x="147" 
d="M127 538v-538h-107v538h107zM127 682v-115h-107v115h107zM5 -124v15c0 37 27 70 66 109h56c-33 -45 -43 -64 -43 -91v-4c0 -14 8 -21 24 -21h19v-72h-50c-40 0 -72 21 -72 64z" />
    <glyph glyph-name="itilde" unicode="&#x129;" horiz-adv-x="147" 
d="M108 668h61v-38c0 -37 -16 -61 -43 -61h-1c-17 0 -30 5 -53 16c-12 5 -16 7 -21 7s-8 -4 -8 -11v-14h-61v38c0 39 17 61 44 61h1c13 0 24 -3 49 -14c11 -5 19 -9 26 -9c4 0 6 3 6 9v16zM127 538v-538h-107v538h107z" />
    <glyph glyph-name="jcircumflex" unicode="&#x135;" horiz-adv-x="148" 
d="M120 696l48 -131h-73l-21 65l-22 -65h-71l47 131h92zM-50 -86h50c14 0 21 8 21 24v600h107v-648c0 -65 -36 -78 -69 -78h-109v102z" />
    <glyph glyph-name="uni0137" unicode="&#x137;" horiz-adv-x="318" 
d="M127 342l83 196h107l-101 -230l108 -308h-111l-86 249v-249h-107v744h107v-402zM194 -196h-45c5 13 12 37 13 65h-38v102h92v-64c0 -56 -15 -88 -22 -103z" />
    <glyph glyph-name="lacute" unicode="&#x13a;" horiz-adv-x="147" 
d="M127 744v-744h-107v744h107zM29 773l42 109h94l-44 -109h-92z" />
    <glyph glyph-name="lcaron" unicode="&#x13e;" horiz-adv-x="147" 
d="M145 600l7 144h81l-12 -144h-76zM127 744v-744h-107v744h107z" />
    <glyph glyph-name="uni013C" unicode="&#x13c;" horiz-adv-x="147" 
d="M127 744v-744h-107v744h107zM99 -196h-45c5 13 12 37 13 65h-38v102h92v-64c0 -56 -15 -88 -22 -103z" />
    <glyph glyph-name="ldot" unicode="&#x140;" horiz-adv-x="261" 
d="M254 450v-128h-104v128h104zM127 744v-744h-107v744h107z" />
    <glyph glyph-name="nacute" unicode="&#x144;" horiz-adv-x="313" 
d="M20 0v538h105v-63c17 30 48 66 91 66h5c55 0 72 -48 72 -83v-458h-108v403c0 25 -7 40 -28 40c-23 0 -30 -15 -30 -44v-399h-107zM111 567l38 130h90l-40 -130h-88z" />
    <glyph glyph-name="napostrophe" unicode="&#x149;" horiz-adv-x="388" 
d="M95 0v538h105v-63c17 30 48 66 91 66h5c55 0 72 -48 72 -83v-458h-108v403c0 25 -7 40 -28 40c-23 0 -30 -15 -30 -44v-399h-107zM79 547h-55c7 19 15 54 18 85h-40v112h99v-82c0 -51 -13 -94 -22 -115z" />
    <glyph glyph-name="ncaron" unicode="&#x148;" horiz-adv-x="313" 
d="M20 0v538h105v-63c17 30 48 66 91 66h5c55 0 72 -48 72 -83v-458h-108v403c0 25 -7 40 -28 40c-23 0 -30 -15 -30 -44v-399h-107zM111 567l-57 130h79l25 -64l25 64h77l-57 -130h-92z" />
    <glyph glyph-name="uni0146" unicode="&#x146;" horiz-adv-x="313" 
d="M20 0v538h105v-63c17 30 48 66 91 66h5c55 0 72 -48 72 -83v-458h-108v403c0 25 -7 40 -28 40c-23 0 -30 -15 -30 -44v-399h-107zM182 -196h-45c5 13 12 37 13 65h-38v102h92v-64c0 -56 -15 -88 -22 -103z" />
    <glyph glyph-name="obreve" unicode="&#x14f;" horiz-adv-x="310" 
d="M17 130v277c0 89 47 139 128 139h20c80 0 128 -47 128 -135v-281c0 -72 -45 -139 -128 -139h-20c-93 0 -128 67 -128 139zM125 406v-271c0 -27 10 -42 30 -42c21 0 30 18 30 42v271c0 31 -11 41 -30 41s-30 -10 -30 -41zM157 565h-3c-60 0 -101 32 -101 103v4h78v-4
c0 -23 8 -34 24 -34h1c13 0 24 10 24 34v4h75v-4c0 -71 -43 -103 -98 -103z" />
    <glyph glyph-name="ohungarumlaut" unicode="&#x151;" horiz-adv-x="310" 
d="M17 130v277c0 89 47 139 128 139h20c80 0 128 -47 128 -135v-281c0 -72 -45 -139 -128 -139h-20c-93 0 -128 67 -128 139zM125 406v-271c0 -27 10 -42 30 -42c21 0 30 18 30 42v271c0 31 -11 41 -30 41s-30 -10 -30 -41zM245 567h-74l27 127h76zM73 567l25 127h76
l-27 -127h-74z" />
    <glyph glyph-name="omacron" unicode="&#x14d;" horiz-adv-x="310" 
d="M17 130v277c0 89 47 139 128 139h20c80 0 128 -47 128 -135v-281c0 -72 -45 -139 -128 -139h-20c-93 0 -128 67 -128 139zM125 406v-271c0 -27 10 -42 30 -42c21 0 30 18 30 42v271c0 31 -11 41 -30 41s-30 -10 -30 -41zM69 579v77h172v-77h-172z" />
    <glyph glyph-name="oslashacute" unicode="&#x1ff;" horiz-adv-x="306" 
d="M17 130v277c0 89 45 139 125 139h22c35 0 62 -10 81 -29l10 21h61l-34 -75c5 -15 7 -32 7 -52v-281c0 -72 -43 -139 -125 -139h-22c-39 0 -63 12 -80 31l-10 -22h-61l34 74c-7 17 -8 36 -8 56zM186 402v4c0 31 -10 41 -33 41c-21 0 -33 -10 -33 -41v-154zM153 93
c24 0 33 18 33 42v146l-66 -147c0 -25 10 -41 33 -41zM109 567l38 130h90l-40 -130h-88z" />
    <glyph glyph-name="racute" unicode="&#x155;" horiz-adv-x="280" 
d="M125 538v-68c9 20 32 71 82 71h4c39 0 56 -25 56 -61v-195h-104v120c0 23 -1 33 -18 33s-18 -12 -18 -33v-405h-107v538h105zM102 567l38 130h90l-40 -130h-88z" />
    <glyph glyph-name="rcaron" unicode="&#x159;" horiz-adv-x="280" 
d="M125 538v-68c9 20 32 71 82 71h4c39 0 56 -25 56 -61v-195h-104v120c0 23 -1 33 -18 33s-18 -12 -18 -33v-405h-107v538h105zM101 567l-57 130h79l25 -64l25 64h77l-57 -130h-92z" />
    <glyph glyph-name="uni0157" unicode="&#x157;" horiz-adv-x="280" 
d="M125 538v-68c9 20 32 71 82 71h4c39 0 56 -25 56 -61v-195h-104v120c0 23 -1 33 -18 33s-18 -12 -18 -33v-405h-107v538h105zM98 -196h-45c5 13 12 37 13 65h-38v102h92v-64c0 -56 -15 -88 -22 -103z" />
    <glyph glyph-name="sacute" unicode="&#x15b;" horiz-adv-x="278" 
d="M262 449v-81h-96v64c0 20 -8 30 -24 30c-19 0 -23 -12 -23 -33v-9c0 -27 6 -37 25 -60l65 -78c50 -60 60 -94 60 -148v-14c0 -64 -33 -129 -121 -129h-21c-85 0 -116 49 -116 110v97h100v-77c0 -28 8 -37 27 -37c17 0 25 12 25 37v9c0 23 -2 46 -29 77l-63 72
c-43 49 -53 88 -53 139v15c0 68 35 113 116 113h19c85 0 109 -45 109 -97zM99 567l38 130h90l-40 -130h-88z" />
    <glyph glyph-name="uni015F" unicode="&#x15f;" horiz-adv-x="278" 
d="M262 449v-81h-96v64c0 20 -8 30 -24 30c-19 0 -23 -12 -23 -33v-9c0 -27 6 -37 25 -60l65 -78c50 -60 60 -94 60 -148v-14c0 -64 -33 -129 -121 -129h-21c-85 0 -116 49 -116 110v97h100v-77c0 -28 8 -37 27 -37c17 0 25 12 25 37v9c0 23 -2 46 -29 77l-63 72
c-43 49 -53 88 -53 139v15c0 68 35 113 116 113h19c85 0 109 -45 109 -97zM124 -188h-55v60h38c16 0 24 6 24 18c0 13 -8 19 -24 19h-23v91h55v-40c47 0 77 -23 77 -71v-3c0 -51 -41 -74 -92 -74z" />
    <glyph glyph-name="scircumflex" unicode="&#x15d;" horiz-adv-x="278" 
d="M262 449v-81h-96v64c0 20 -8 30 -24 30c-19 0 -23 -12 -23 -33v-9c0 -27 6 -37 25 -60l65 -78c50 -60 60 -94 60 -148v-14c0 -64 -33 -129 -121 -129h-21c-85 0 -116 49 -116 110v97h100v-77c0 -28 8 -37 27 -37c17 0 25 12 25 37v9c0 23 -2 46 -29 77l-63 72
c-43 49 -53 88 -53 139v15c0 68 35 113 116 113h19c85 0 109 -45 109 -97zM190 698l57 -131h-79l-25 65l-25 -65h-77l57 131h92z" />
    <glyph glyph-name="uni0219" unicode="&#x219;" horiz-adv-x="278" 
d="M262 449v-81h-96v64c0 20 -8 30 -24 30c-19 0 -23 -12 -23 -33v-9c0 -27 6 -37 25 -60l65 -78c50 -60 60 -94 60 -148v-14c0 -64 -33 -129 -121 -129h-21c-85 0 -116 49 -116 110v97h100v-77c0 -28 8 -37 27 -37c17 0 25 12 25 37v9c0 23 -2 46 -29 77l-63 72
c-43 49 -53 88 -53 139v15c0 68 35 113 116 113h19c85 0 109 -45 109 -97zM161 -196h-45c5 13 12 37 13 65h-38v102h92v-64c0 -56 -15 -88 -22 -103z" />
    <glyph glyph-name="tbar" unicode="&#x167;" horiz-adv-x="247" 
d="M238 0h-106c-36 0 -64 18 -64 66v188h-62v94h62v87h-62v103h62v177h107v-177h63v-103h-63v-87h63v-94h-63v-125c0 -19 2 -25 21 -25h42v-104z" />
    <glyph glyph-name="tcaron" unicode="&#x165;" horiz-adv-x="247" 
d="M192 600l7 144h81l-12 -144h-76zM237 0h-106c-36 0 -64 18 -64 66v370h-61v102h61v177h107v-177h63v-102h-63v-308c0 -19 2 -25 21 -25h42v-103z" />
    <glyph glyph-name="tcommaaccent" unicode="&#x163;" horiz-adv-x="247" 
d="M237 0h-106c-36 0 -64 18 -64 66v370h-61v102h61v177h107v-177h63v-102h-63v-308c0 -19 2 -25 21 -25h42v-103zM184 -196h-45c5 13 12 37 13 65h-38v102h92v-64c0 -56 -15 -88 -22 -103z" />
    <glyph glyph-name="uni021B" unicode="&#x21b;" horiz-adv-x="247" 
d="M237 0h-106c-36 0 -64 18 -64 66v370h-61v102h61v177h107v-177h63v-102h-63v-308c0 -19 2 -25 21 -25h42v-103zM184 -196h-45c5 13 12 37 13 65h-38v102h92v-64c0 -56 -15 -88 -22 -103z" />
    <glyph glyph-name="ubreve" unicode="&#x16d;" horiz-adv-x="307" 
d="M287 538v-538h-103v64c-19 -29 -44 -66 -91 -66h-2c-43 0 -71 45 -71 91v449h107v-403c0 -20 6 -36 25 -36c23 0 28 16 28 39v400h107zM155 565h-3c-60 0 -101 32 -101 103v4h78v-4c0 -23 8 -34 24 -34h1c13 0 24 10 24 34v4h75v-4c0 -71 -43 -103 -98 -103z" />
    <glyph glyph-name="uhungarumlaut" unicode="&#x171;" horiz-adv-x="307" 
d="M287 538v-538h-103v64c-19 -29 -44 -66 -91 -66h-2c-43 0 -71 45 -71 91v449h107v-403c0 -20 6 -36 25 -36c23 0 28 16 28 39v400h107zM242 567h-74l27 127h76zM70 567l25 127h76l-27 -127h-74z" />
    <glyph glyph-name="umacron" unicode="&#x16b;" horiz-adv-x="307" 
d="M287 538v-538h-103v64c-19 -29 -44 -66 -91 -66h-2c-43 0 -71 45 -71 91v449h107v-403c0 -20 6 -36 25 -36c23 0 28 16 28 39v400h107zM68 579v77h172v-77h-172z" />
    <glyph glyph-name="uogonek" unicode="&#x173;" horiz-adv-x="307" 
d="M287 538v-538h-103v64c-19 -29 -44 -66 -91 -66h-2c-43 0 -71 45 -71 91v449h107v-403c0 -20 6 -36 25 -36c23 0 28 16 28 39v400h107zM165 -124v15c0 37 27 70 66 109h56c-33 -45 -43 -64 -43 -91v-4c0 -14 8 -21 24 -21h19v-72h-50c-40 0 -72 21 -72 64z" />
    <glyph glyph-name="uring" unicode="&#x16f;" horiz-adv-x="307" 
d="M287 538v-538h-103v64c-19 -29 -44 -66 -91 -66h-2c-43 0 -71 45 -71 91v449h107v-403c0 -20 6 -36 25 -36c23 0 28 16 28 39v400h107zM154 563c-47 0 -80 34 -80 81c0 44 35 79 80 79c47 0 79 -35 79 -79c0 -47 -32 -81 -79 -81zM154 610c19 0 31 13 31 33
c0 19 -12 33 -31 33s-31 -14 -31 -33c0 -20 12 -33 31 -33z" />
    <glyph glyph-name="utilde" unicode="&#x169;" horiz-adv-x="307" 
d="M287 538v-538h-103v64c-19 -29 -44 -66 -91 -66h-2c-43 0 -71 45 -71 91v449h107v-403c0 -20 6 -36 25 -36c23 0 28 16 28 39v400h107zM189 672h64v-46c0 -35 -15 -57 -42 -57h-1c-19 0 -34 6 -57 17c-11 5 -16 9 -23 9c-5 0 -7 -3 -7 -9v-19h-64v47c0 39 16 56 43 56h1
c17 0 30 -4 54 -16c12 -7 19 -11 26 -11c4 0 6 3 6 9v20z" />
    <glyph glyph-name="wacute" unicode="&#x1e83;" horiz-adv-x="460" 
d="M193 0h-112l-82 538h107l40 -335l41 335h94l41 -335l40 335h99l-82 -538h-108l-39 306zM191 567l38 130h90l-40 -130h-88z" />
    <glyph glyph-name="wcircumflex" unicode="&#x175;" horiz-adv-x="460" 
d="M193 0h-112l-82 538h107l40 -335l41 335h94l41 -335l40 335h99l-82 -538h-108l-39 306zM279 698l57 -131h-79l-25 65l-25 -65h-77l57 131h92z" />
    <glyph glyph-name="wdieresis" unicode="&#x1e85;" horiz-adv-x="460" 
d="M193 0h-112l-82 538h107l40 -335l41 335h94l41 -335l40 335h99l-82 -538h-108l-39 306zM221 665v-98h-89v98h89zM334 665v-98h-89v98h89z" />
    <glyph glyph-name="wgrave" unicode="&#x1e81;" horiz-adv-x="460" 
d="M193 0h-112l-82 538h107l40 -335l41 335h94l41 -335l40 335h99l-82 -538h-108l-39 306zM276 567h-89l-39 130h91z" />
    <glyph glyph-name="ycircumflex" unicode="&#x177;" horiz-adv-x="285" 
d="M83 16l-84 522h104l42 -329l40 329h102l-108 -646c-9 -53 -27 -80 -66 -80h-101v102h46c19 0 21 8 24 27l3 23c3 23 1 33 -2 52zM191 698l57 -131h-79l-25 65l-25 -65h-77l57 131h92z" />
    <glyph glyph-name="ygrave" unicode="&#x1ef3;" horiz-adv-x="285" 
d="M83 16l-84 522h104l42 -329l40 329h102l-108 -646c-9 -53 -27 -80 -66 -80h-101v102h46c19 0 21 8 24 27l3 23c3 23 1 33 -2 52zM188 567h-89l-39 130h91z" />
    <glyph glyph-name="zacute" unicode="&#x17a;" horiz-adv-x="249" 
d="M18 538h215v-89l-124 -351h132v-98h-234v94l121 348h-110v96zM80 567l38 130h90l-40 -130h-88z" />
    <glyph glyph-name="zdotaccent" unicode="&#x17c;" horiz-adv-x="249" 
d="M18 538h215v-89l-124 -351h132v-98h-234v94l121 348h-110v96zM178 682v-115h-107v115h107z" />
    <glyph glyph-name="space_uni0326" 
d="M195 -196h-45c5 13 12 37 13 65h-38v102h92v-64c0 -56 -15 -88 -22 -103z" />
    <glyph glyph-name="oneeighth" unicode="&#x215b;" horiz-adv-x="396" 
d="M51 647h-44v56c45 0 51 21 56 41h60v-339h-72v242zM262 744h73l-252 -744h-74zM380 270v-30c0 -40 -15 -53 -26 -61c17 -8 31 -24 31 -63v-42c0 -47 -25 -81 -86 -81h-8c-64 0 -86 34 -86 83v40c0 30 10 51 31 63c-15 11 -29 26 -29 61v30c0 50 27 75 82 75h9
c55 0 82 -25 82 -75zM311 74v52c0 13 -5 20 -16 20c-10 0 -15 -7 -15 -20v-52c0 -12 5 -18 15 -18c11 0 16 6 16 18zM308 225v42c0 12 -5 18 -14 18s-14 -6 -14 -18v-42c0 -12 5 -18 14 -18s14 6 14 18z" />
    <glyph glyph-name="onethird" unicode="&#x2153;" horiz-adv-x="392" 
d="M51 647h-44v56c45 0 51 21 56 41h60v-339h-72v242zM262 744h73l-252 -744h-74zM273 224h-67v37c0 55 18 84 78 84h12c56 0 78 -24 78 -80v-28c0 -32 -13 -45 -25 -52c16 -8 31 -20 31 -49v-64c0 -47 -24 -79 -81 -79h-14c-64 0 -80 35 -80 75v54h70v-49
c0 -13 5 -20 15 -20c11 0 13 7 13 20v49c0 15 -3 20 -16 20h-33v64h31c13 0 18 4 18 20v38c0 16 -3 22 -15 22s-15 -6 -15 -22v-40z" />
    <glyph glyph-name="threeeighths" unicode="&#x215c;" horiz-adv-x="441" 
d="M308 744h73l-252 -744h-74zM80 629h-67v37c0 55 18 84 78 84h12c56 0 78 -24 78 -80v-28c0 -32 -13 -45 -25 -52c16 -8 31 -20 31 -49v-64c0 -47 -24 -79 -81 -79h-14c-64 0 -80 35 -80 75v54h70v-49c0 -13 5 -20 15 -20c11 0 13 7 13 20v49c0 15 -3 20 -16 20h-33v64h31
c13 0 18 4 18 20v38c0 16 -3 22 -15 22s-15 -6 -15 -22v-40zM425 270v-30c0 -40 -15 -53 -26 -61c17 -8 31 -24 31 -63v-42c0 -47 -25 -81 -86 -81h-8c-64 0 -86 34 -86 83v40c0 30 10 51 31 63c-15 11 -29 26 -29 61v30c0 50 27 75 82 75h9c55 0 82 -25 82 -75zM356 74v52
c0 13 -5 20 -16 20c-10 0 -15 -7 -15 -20v-52c0 -12 5 -18 15 -18c11 0 16 6 16 18zM353 225v42c0 12 -5 18 -14 18s-14 -6 -14 -18v-42c0 -12 5 -18 14 -18s14 6 14 18z" />
    <glyph glyph-name="fiveeighths" unicode="&#x215d;" horiz-adv-x="440" 
d="M307 744h73l-252 -744h-74zM85 545h-69v199h164v-64h-95v-67c9 15 26 37 55 37c35 -1 49 -25 49 -56v-105c0 -61 -27 -91 -81 -91h-15c-61 0 -80 31 -80 79v40h74v-42c0 -11 4 -17 13 -17s13 6 13 17v90c0 12 -4 18 -13 18c-10 0 -15 -6 -15 -18v-20zM424 270v-30
c0 -40 -15 -53 -26 -61c17 -8 31 -24 31 -63v-42c0 -47 -25 -81 -86 -81h-8c-64 0 -86 34 -86 83v40c0 30 10 51 31 63c-15 11 -29 26 -29 61v30c0 50 27 75 82 75h9c55 0 82 -25 82 -75zM355 74v52c0 13 -5 20 -16 20c-10 0 -15 -7 -15 -20v-52c0 -12 5 -18 15 -18
c11 0 16 6 16 18zM352 225v42c0 12 -5 18 -14 18s-14 -6 -14 -18v-42c0 -12 5 -18 14 -18s14 6 14 18z" />
    <glyph glyph-name="twothirds" unicode="&#x2154;" horiz-adv-x="458" 
d="M197 405h-190v38c0 37 13 58 76 137c24 27 28 41 28 70v19c0 13 -5 20 -15 20s-15 -6 -15 -19v-60h-68v62c0 47 17 78 76 78h15c64 0 83 -31 83 -76v-21c0 -49 -15 -74 -56 -117c-54 -57 -55 -57 -55 -71h56v56h65v-116zM328 744h73l-252 -744h-74zM339 224h-67v37
c0 55 18 84 78 84h12c56 0 78 -24 78 -80v-28c0 -32 -13 -45 -25 -52c16 -8 31 -20 31 -49v-64c0 -47 -24 -79 -81 -79h-14c-64 0 -80 35 -80 75v54h70v-49c0 -13 5 -20 15 -20c11 0 13 7 13 20v49c0 15 -3 20 -16 20h-33v64h31c13 0 18 4 18 20v38c0 16 -3 22 -15 22
s-15 -6 -15 -22v-40z" />
    <glyph glyph-name="seveneighths" unicode="&#x215e;" horiz-adv-x="405" 
d="M11 744h165v-30c0 -29 -13 -74 -28 -150c-13 -58 -13 -98 -13 -159h-86c1 51 8 89 27 148c24 72 37 111 37 134h-37v-61h-65v118zM273 744h73l-252 -744h-74zM389 270v-30c0 -40 -15 -53 -26 -61c17 -8 31 -24 31 -63v-42c0 -47 -25 -81 -86 -81h-8c-64 0 -86 34 -86 83
v40c0 30 10 51 31 63c-15 11 -29 26 -29 61v30c0 50 27 75 82 75h9c55 0 82 -25 82 -75zM320 74v52c0 13 -5 20 -16 20c-10 0 -15 -7 -15 -20v-52c0 -12 5 -18 15 -18c11 0 16 6 16 18zM317 225v42c0 12 -5 18 -14 18s-14 -6 -14 -18v-42c0 -12 5 -18 14 -18s14 6 14 18z
" />
    <glyph glyph-name="uni2032" unicode="&#x2032;" horiz-adv-x="113" 
d="M109 744l-21 -175h-84l22 175h83z" />
    <glyph glyph-name="uni2033" unicode="&#x2033;" horiz-adv-x="215" 
d="M107 744l-21 -175h-82l21 175h82zM211 744l-22 -175h-82l22 175h82z" />
    <glyph glyph-name="uni24C5" unicode="&#x24c5;" horiz-adv-x="495" 
d="M253 -11h-10c-144 0 -223 76 -223 245v278c0 159 80 243 224 243h12c146 0 219 -81 219 -243v-278c0 -172 -90 -245 -222 -245zM245 51h8c113 0 150 84 150 196v257c0 100 -33 189 -148 189h-10c-118 0 -151 -77 -151 -189v-257c0 -117 41 -196 151 -196zM274 326h-38
v-206h-90v506h128c63 0 90 -25 90 -89v-111c0 -67 -27 -100 -90 -100zM236 549v-146h15c19 0 23 9 23 32v84c0 23 -4 30 -23 30h-15z" />
    <glyph glyph-name="zero.num" horiz-adv-x="213" 
d="M102 750h9c59 0 88 -26 88 -90v-172c0 -60 -29 -90 -88 -90h-11c-53 0 -86 29 -86 90v172c0 64 32 90 88 90zM106 686c-11 0 -17 -8 -17 -25v-176c0 -12 4 -22 16 -22s18 7 18 22v176c0 17 -6 25 -17 25z" />
    <glyph glyph-name="one.num" horiz-adv-x="141" 
d="M51 647h-44v56c45 0 51 21 56 41h60v-339h-72v242z" />
    <glyph glyph-name="two.num" horiz-adv-x="206" 
d="M197 405h-190v38c0 37 13 58 76 137c24 27 28 41 28 70v19c0 13 -5 20 -15 20s-15 -6 -15 -19v-60h-68v62c0 47 17 78 76 78h15c64 0 83 -31 83 -76v-21c0 -49 -15 -74 -56 -117c-54 -57 -55 -57 -55 -71h56v56h65v-116z" />
    <glyph glyph-name="three.num" horiz-adv-x="199" 
d="M80 629h-67v37c0 55 18 84 78 84h12c56 0 78 -24 78 -80v-28c0 -32 -13 -45 -25 -52c16 -8 31 -20 31 -49v-64c0 -47 -24 -79 -81 -79h-14c-64 0 -80 35 -80 75v54h70v-49c0 -13 5 -20 15 -20c11 0 13 7 13 20v49c0 15 -3 20 -16 20h-33v64h31c13 0 18 4 18 20v38
c0 16 -3 22 -15 22s-15 -6 -15 -22v-40z" />
    <glyph glyph-name="four.num" horiz-adv-x="201" 
d="M7 468v47c21 51 67 168 89 230h69v-215h29v-62h-29v-63h-69v63h-89zM62 530h34v96c-5 -21 -25 -76 -34 -96z" />
    <glyph glyph-name="five.num" horiz-adv-x="201" 
d="M85 545h-69v199h164v-64h-95v-67c9 15 26 37 55 37c35 -1 49 -25 49 -56v-105c0 -61 -27 -91 -81 -91h-15c-61 0 -80 31 -80 79v40h74v-42c0 -11 4 -17 13 -17s13 6 13 17v90c0 12 -4 18 -13 18c-10 0 -15 -6 -15 -18v-20z" />
    <glyph glyph-name="six.num" horiz-adv-x="209" 
d="M148 623c35 -1 48 -27 48 -54v-92c0 -43 -31 -79 -88 -79h-6c-65 0 -88 38 -88 81v192c0 47 21 79 84 79h8c67 0 83 -34 83 -79v-30h-72v28c0 12 -5 18 -15 18c-9 0 -13 -6 -13 -18v-78c11 15 28 32 59 32zM106 461c11 0 16 7 16 20v64c0 13 -5 20 -16 20s-17 -7 -17 -20
v-64c0 -13 6 -20 17 -20z" />
    <glyph glyph-name="seven.num" horiz-adv-x="183" 
d="M11 744h165v-30c0 -29 -13 -74 -28 -150c-13 -58 -13 -98 -13 -159h-86c1 51 8 89 27 148c24 72 37 111 37 134h-37v-61h-65v118z" />
    <glyph glyph-name="eight.num" horiz-adv-x="203" 
d="M187 675v-30c0 -40 -15 -53 -26 -61c17 -8 31 -24 31 -63v-42c0 -47 -25 -81 -86 -81h-8c-64 0 -86 34 -86 83v40c0 30 10 51 31 63c-15 11 -29 26 -29 61v30c0 50 27 75 82 75h9c55 0 82 -25 82 -75zM118 479v52c0 13 -5 20 -16 20c-10 0 -15 -7 -15 -20v-52
c0 -12 5 -18 15 -18c11 0 16 6 16 18zM115 630v42c0 12 -5 18 -14 18s-14 -6 -14 -18v-42c0 -12 5 -18 14 -18s14 6 14 18z" />
    <glyph glyph-name="nine.num" horiz-adv-x="209" 
d="M13 579v90c0 44 20 81 85 81h11c63 0 86 -38 86 -83v-189c0 -47 -22 -80 -85 -80h-7c-67 0 -83 32 -83 79v30h72v-28c0 -12 3 -18 15 -18c9 0 13 6 13 18v78c-11 -12 -27 -32 -58 -32c-35 1 -49 26 -49 54zM103 687c-11 0 -16 -7 -16 -20v-63c0 -14 5 -21 16 -21
s17 7 17 21v63c0 13 -6 20 -17 20z" />
    <glyph glyph-name="zero.den" horiz-adv-x="213" 
d="M102 345h9c59 0 88 -26 88 -90v-172c0 -60 -29 -90 -88 -90h-11c-53 0 -86 29 -86 90v172c0 64 32 90 88 90zM106 281c-11 0 -17 -8 -17 -25v-176c0 -12 4 -22 16 -22s18 7 18 22v176c0 17 -6 25 -17 25z" />
    <glyph glyph-name="one.den" horiz-adv-x="141" 
d="M51 242h-44v56c45 0 51 21 56 41h60v-339h-72v242z" />
    <glyph glyph-name="two.den" horiz-adv-x="206" 
d="M197 0h-190v38c0 37 13 58 76 137c24 27 28 41 28 70v19c0 13 -5 20 -15 20s-15 -6 -15 -19v-60h-68v62c0 47 17 78 76 78h15c64 0 83 -31 83 -76v-21c0 -49 -15 -74 -56 -117c-54 -57 -55 -57 -55 -71h56v56h65v-116z" />
    <glyph glyph-name="three.den" horiz-adv-x="199" 
d="M80 224h-67v37c0 55 18 84 78 84h12c56 0 78 -24 78 -80v-28c0 -32 -13 -45 -25 -52c16 -8 31 -20 31 -49v-64c0 -47 -24 -79 -81 -79h-14c-64 0 -80 35 -80 75v54h70v-49c0 -13 5 -20 15 -20c11 0 13 7 13 20v49c0 15 -3 20 -16 20h-33v64h31c13 0 18 4 18 20v38
c0 16 -3 22 -15 22s-15 -6 -15 -22v-40z" />
    <glyph glyph-name="four.den" horiz-adv-x="201" 
d="M7 63v47c21 51 67 168 89 230h69v-215h29v-62h-29v-63h-69v63h-89zM62 125h34v96c-5 -21 -25 -76 -34 -96z" />
    <glyph glyph-name="five.den" horiz-adv-x="201" 
d="M85 140h-69v199h164v-64h-95v-67c9 15 26 37 55 37c35 -1 49 -25 49 -56v-105c0 -61 -27 -91 -81 -91h-15c-61 0 -80 31 -80 79v40h74v-42c0 -11 4 -17 13 -17s13 6 13 17v90c0 12 -4 18 -13 18c-10 0 -15 -6 -15 -18v-20z" />
    <glyph glyph-name="six.den" horiz-adv-x="209" 
d="M148 218c35 -1 48 -27 48 -54v-92c0 -43 -31 -79 -88 -79h-6c-65 0 -88 38 -88 81v192c0 47 21 79 84 79h8c67 0 83 -34 83 -79v-30h-72v28c0 12 -5 18 -15 18c-9 0 -13 -6 -13 -18v-78c11 15 28 32 59 32zM106 56c11 0 16 7 16 20v64c0 13 -5 20 -16 20s-17 -7 -17 -20
v-64c0 -13 6 -20 17 -20z" />
    <glyph glyph-name="seven.den" horiz-adv-x="183" 
d="M11 340h165v-30c0 -29 -13 -74 -28 -150c-13 -58 -13 -98 -13 -159h-86c1 51 8 89 27 148c24 72 37 111 37 134h-37v-61h-65v118z" />
    <glyph glyph-name="eight.den" horiz-adv-x="203" 
d="M187 270v-30c0 -40 -15 -53 -26 -61c17 -8 31 -24 31 -63v-42c0 -47 -25 -81 -86 -81h-8c-64 0 -86 34 -86 83v40c0 30 10 51 31 63c-15 11 -29 26 -29 61v30c0 50 27 75 82 75h9c55 0 82 -25 82 -75zM118 74v52c0 13 -5 20 -16 20c-10 0 -15 -7 -15 -20v-52
c0 -12 5 -18 15 -18c11 0 16 6 16 18zM115 225v42c0 12 -5 18 -14 18s-14 -6 -14 -18v-42c0 -12 5 -18 14 -18s14 6 14 18z" />
    <glyph glyph-name="nine.den" horiz-adv-x="209" 
d="M13 174v90c0 44 20 81 85 81h11c63 0 86 -38 86 -83v-189c0 -47 -22 -80 -85 -80h-7c-67 0 -83 32 -83 79v30h72v-28c0 -12 3 -18 15 -18c9 0 13 6 13 18v78c-11 -12 -27 -32 -58 -32c-35 1 -49 26 -49 54zM103 282c-11 0 -16 -7 -16 -20v-63c0 -14 5 -21 16 -21
s17 7 17 21v63c0 13 -6 20 -17 20z" />
    <glyph glyph-name="zero.sub" horiz-adv-x="213" 
d="M102 217h9c59 0 88 -26 88 -90v-172c0 -60 -29 -90 -88 -90h-11c-53 0 -86 29 -86 90v172c0 64 32 90 88 90zM106 153c-11 0 -17 -8 -17 -25v-176c0 -12 4 -22 16 -22s18 7 18 22v176c0 17 -6 25 -17 25z" />
    <glyph glyph-name="one.sub" horiz-adv-x="141" 
d="M51 114h-44v56c45 0 51 21 56 41h60v-339h-72v242z" />
    <glyph glyph-name="two.sub" horiz-adv-x="206" 
d="M197 -128h-190v38c0 37 13 58 76 137c24 27 28 41 28 70v19c0 13 -5 20 -15 20s-15 -6 -15 -19v-60h-68v62c0 47 17 78 76 78h15c64 0 83 -31 83 -76v-21c0 -49 -15 -74 -56 -117c-54 -57 -55 -57 -55 -71h56v56h65v-116z" />
    <glyph glyph-name="three.sub" horiz-adv-x="199" 
d="M80 96h-67v37c0 55 18 84 78 84h12c56 0 78 -24 78 -80v-28c0 -32 -13 -45 -25 -52c16 -8 31 -20 31 -49v-64c0 -47 -24 -79 -81 -79h-14c-64 0 -80 35 -80 75v54h70v-49c0 -13 5 -20 15 -20c11 0 13 7 13 20v49c0 15 -3 20 -16 20h-33v64h31c13 0 18 4 18 20v38
c0 16 -3 22 -15 22s-15 -6 -15 -22v-40z" />
    <glyph glyph-name="four.sub" horiz-adv-x="201" 
d="M7 -65v47c21 51 67 168 89 230h69v-215h29v-62h-29v-63h-69v63h-89zM62 -3h34v96c-5 -21 -25 -76 -34 -96z" />
    <glyph glyph-name="five.sub" horiz-adv-x="201" 
d="M85 12h-69v199h164v-64h-95v-67c9 15 26 37 55 37c35 -1 49 -25 49 -56v-105c0 -61 -27 -91 -81 -91h-15c-61 0 -80 31 -80 79v40h74v-42c0 -11 4 -17 13 -17s13 6 13 17v90c0 12 -4 18 -13 18c-10 0 -15 -6 -15 -18v-20z" />
    <glyph glyph-name="six.sub" horiz-adv-x="209" 
d="M148 90c35 -1 48 -27 48 -54v-92c0 -43 -31 -79 -88 -79h-6c-65 0 -88 38 -88 81v192c0 47 21 79 84 79h8c67 0 83 -34 83 -79v-30h-72v28c0 12 -5 18 -15 18c-9 0 -13 -6 -13 -18v-78c11 15 28 32 59 32zM106 -72c11 0 16 7 16 20v64c0 13 -5 20 -16 20s-17 -7 -17 -20
v-64c0 -13 6 -20 17 -20z" />
    <glyph glyph-name="seven.sub" horiz-adv-x="183" 
d="M11 211h165v-30c0 -29 -13 -74 -28 -150c-13 -58 -13 -98 -13 -159h-86c1 51 8 89 27 148c24 72 37 111 37 134h-37v-61h-65v118z" />
    <glyph glyph-name="eight.sub" horiz-adv-x="203" 
d="M187 142v-30c0 -40 -15 -53 -26 -61c17 -8 31 -24 31 -63v-42c0 -47 -25 -81 -86 -81h-8c-64 0 -86 34 -86 83v40c0 30 10 51 31 63c-15 11 -29 26 -29 61v30c0 50 27 75 82 75h9c55 0 82 -25 82 -75zM118 -54v52c0 13 -5 20 -16 20c-10 0 -15 -7 -15 -20v-52
c0 -12 5 -18 15 -18c11 0 16 6 16 18zM115 97v42c0 12 -5 18 -14 18s-14 -6 -14 -18v-42c0 -12 5 -18 14 -18s14 6 14 18z" />
    <glyph glyph-name="nine.sub" horiz-adv-x="209" 
d="M13 46v90c0 44 20 81 85 81h11c63 0 86 -38 86 -83v-189c0 -47 -22 -80 -85 -80h-7c-67 0 -83 32 -83 79v30h72v-28c0 -12 3 -18 15 -18c9 0 13 6 13 18v78c-11 -12 -27 -32 -58 -32c-35 1 -49 26 -49 54zM103 154c-11 0 -16 -7 -16 -20v-63c0 -14 5 -21 16 -21
s17 7 17 21v63c0 13 -6 20 -17 20z" />
    <glyph glyph-name="zero.sup" horiz-adv-x="213" 
d="M102 750h9c59 0 88 -26 88 -90v-172c0 -60 -29 -90 -88 -90h-11c-53 0 -86 29 -86 90v172c0 64 32 90 88 90zM106 686c-11 0 -17 -8 -17 -25v-176c0 -12 4 -22 16 -22s18 7 18 22v176c0 17 -6 25 -17 25z" />
    <glyph glyph-name="one.sup" horiz-adv-x="141" 
d="M51 647h-44v56c45 0 51 21 56 41h60v-339h-72v242z" />
    <glyph glyph-name="two.sup" horiz-adv-x="206" 
d="M197 405h-190v38c0 37 13 58 76 137c24 27 28 41 28 70v19c0 13 -5 20 -15 20s-15 -6 -15 -19v-60h-68v62c0 47 17 78 76 78h15c64 0 83 -31 83 -76v-21c0 -49 -15 -74 -56 -117c-54 -57 -55 -57 -55 -71h56v56h65v-116z" />
    <glyph glyph-name="three.sup" horiz-adv-x="199" 
d="M80 629h-67v37c0 55 18 84 78 84h12c56 0 78 -24 78 -80v-28c0 -32 -13 -45 -25 -52c16 -8 31 -20 31 -49v-64c0 -47 -24 -79 -81 -79h-14c-64 0 -80 35 -80 75v54h70v-49c0 -13 5 -20 15 -20c11 0 13 7 13 20v49c0 15 -3 20 -16 20h-33v64h31c13 0 18 4 18 20v38
c0 16 -3 22 -15 22s-15 -6 -15 -22v-40z" />
    <glyph glyph-name="four.sup" horiz-adv-x="201" 
d="M7 468v47c21 51 67 168 89 230h69v-215h29v-62h-29v-63h-69v63h-89zM62 530h34v96c-5 -21 -25 -76 -34 -96z" />
    <glyph glyph-name="five.sup" horiz-adv-x="201" 
d="M85 545h-69v199h164v-64h-95v-67c9 15 26 37 55 37c35 -1 49 -25 49 -56v-105c0 -61 -27 -91 -81 -91h-15c-61 0 -80 31 -80 79v40h74v-42c0 -11 4 -17 13 -17s13 6 13 17v90c0 12 -4 18 -13 18c-10 0 -15 -6 -15 -18v-20z" />
    <glyph glyph-name="six.sup" horiz-adv-x="209" 
d="M148 623c35 -1 48 -27 48 -54v-92c0 -43 -31 -79 -88 -79h-6c-65 0 -88 38 -88 81v192c0 47 21 79 84 79h8c67 0 83 -34 83 -79v-30h-72v28c0 12 -5 18 -15 18c-9 0 -13 -6 -13 -18v-78c11 15 28 32 59 32zM106 461c11 0 16 7 16 20v64c0 13 -5 20 -16 20s-17 -7 -17 -20
v-64c0 -13 6 -20 17 -20z" />
    <glyph glyph-name="seven.sup" horiz-adv-x="183" 
d="M11 744h165v-30c0 -29 -13 -74 -28 -150c-13 -58 -13 -98 -13 -159h-86c1 51 8 89 27 148c24 72 37 111 37 134h-37v-61h-65v118z" />
    <glyph glyph-name="eight.sup" horiz-adv-x="203" 
d="M187 675v-30c0 -40 -15 -53 -26 -61c17 -8 31 -24 31 -63v-42c0 -47 -25 -81 -86 -81h-8c-64 0 -86 34 -86 83v40c0 30 10 51 31 63c-15 11 -29 26 -29 61v30c0 50 27 75 82 75h9c55 0 82 -25 82 -75zM118 479v52c0 13 -5 20 -16 20c-10 0 -15 -7 -15 -20v-52
c0 -12 5 -18 15 -18c11 0 16 6 16 18zM115 630v42c0 12 -5 18 -14 18s-14 -6 -14 -18v-42c0 -12 5 -18 14 -18s14 6 14 18z" />
    <glyph glyph-name="nine.sup" horiz-adv-x="209" 
d="M13 579v90c0 44 20 81 85 81h11c63 0 86 -38 86 -83v-189c0 -47 -22 -80 -85 -80h-7c-67 0 -83 32 -83 79v30h72v-28c0 -12 3 -18 15 -18c9 0 13 6 13 18v78c-11 -12 -27 -32 -58 -32c-35 1 -49 26 -49 54zM103 687c-11 0 -16 -7 -16 -20v-63c0 -14 5 -21 16 -21
s17 7 17 21v63c0 13 -6 20 -17 20z" />
    <glyph glyph-name="E.alt" unicode="&#xe484;" horiz-adv-x="295" 
d="M23 744h256v-109h-143v-195h135v-112h-135v-215h148v-113h-261v744z" />
    <glyph glyph-name="F.alt" unicode="&#xe485;" horiz-adv-x="286" 
d="M23 744h252v-109h-140v-195h133v-111h-133v-329h-112v744z" />
    <glyph glyph-name="J.alt" unicode="&#xe489;" horiz-adv-x="220" 
d="M10 0v115h54c15 0 17 10 17 23v606h117v-673c0 -53 -25 -71 -66 -71h-122z" />
    <glyph glyph-name="IJ.alt" horiz-adv-x="375" 
d="M136 744v-744h-113v744h113zM165 0v115h54c15 0 17 10 17 23v606h117v-673c0 -53 -25 -71 -66 -71h-122z" />
    <glyph glyph-name="a.alt" unicode="&#xe4c0;" horiz-adv-x="296" 
d="M174 61c-14 -25 -40 -64 -87 -64h-3c-44 0 -69 41 -69 84v126c0 53 12 84 51 108c24 16 78 40 93 48c11 7 13 8 13 23v34c0 27 -7 35 -26 35h-2c-21 0 -27 -10 -27 -34v-57h-96v76c0 40 12 102 113 102h20c103 0 121 -50 121 -106v-330c0 -69 6 -91 11 -101v-5h-104
c-3 7 -8 28 -8 61zM172 133v139c-12 -7 -27 -16 -38 -27s-14 -22 -14 -43v-74c0 -23 8 -35 25 -35c18 0 27 13 27 40z" />
    <glyph glyph-name="a.alt2" horiz-adv-x="308" 
d="M182 538h106v-538h-106v61c-8 -22 -36 -66 -82 -66h-2c-47 0 -79 46 -79 114v328c0 51 21 104 74 104h2c50 0 73 -41 87 -60v57zM182 142v255c0 28 -6 48 -29 48c-18 0 -27 -14 -27 -43v-266c0 -28 7 -43 27 -43c23 0 29 17 29 49z" />
    <glyph glyph-name="r.alt" unicode="&#xe4d1;" horiz-adv-x="249" 
d="M125 538v-71c21 50 48 75 83 75h4c11 0 24 -3 27 -4v-122c-11 4 -27 9 -50 9h-4c-44 0 -58 -13 -58 -48v-377h-107v538h105z" />
    <glyph glyph-name="Eacute.alt" horiz-adv-x="296" 
d="M108 773l42 109h94l-44 -109h-92zM23 744h256v-109h-143v-195h135v-112h-135v-215h148v-113h-261v744z" />
    <glyph glyph-name="Ebreve.alt" horiz-adv-x="295" 
d="M23 744h256v-109h-143v-195h135v-112h-135v-215h148v-113h-261v744zM156 770h-3c-56 0 -99 33 -99 94v6h77v-4c0 -18 8 -27 23 -27h1c15 0 24 10 24 27v4h76v-6c0 -61 -47 -94 -99 -94z" />
    <glyph glyph-name="Ecaron.alt" horiz-adv-x="295" 
d="M23 744h256v-109h-143v-195h135v-112h-135v-215h148v-113h-261v744zM109 773l-63 109h81l27 -48l27 48h80l-63 -109h-89z" />
    <glyph glyph-name="Ecircumflex.alt" horiz-adv-x="296" 
d="M198 882l63 -109h-81l-27 48l-27 -48h-80l63 109h89zM23 744h256v-109h-143v-195h135v-112h-135v-215h148v-113h-261v744z" />
    <glyph glyph-name="Edieresis.alt" horiz-adv-x="296" 
d="M140 872v-99h-90v99h90zM256 872v-99h-90v99h90zM23 744h256v-109h-143v-195h135v-112h-135v-215h148v-113h-261v744z" />
    <glyph glyph-name="Edotaccent.alt" horiz-adv-x="295" 
d="M23 744h256v-109h-143v-195h135v-112h-135v-215h148v-113h-261v744zM208 888v-115h-107v115h107z" />
    <glyph glyph-name="Egrave.alt" horiz-adv-x="296" 
d="M204 773h-92l-44 109h94zM23 744h256v-109h-143v-195h135v-112h-135v-215h148v-113h-261v744z" />
    <glyph glyph-name="Emacron.alt" horiz-adv-x="295" 
d="M23 744h256v-109h-143v-195h135v-112h-135v-215h148v-113h-261v744zM67 780v79h173v-79h-173z" />
    <glyph glyph-name="Eogonek.alt" horiz-adv-x="295" 
d="M122 -124v15c0 37 27 70 66 109h56c-33 -45 -43 -64 -43 -91v-4c0 -14 8 -21 24 -21h19v-72h-50c-40 0 -72 21 -72 64zM23 744h256v-109h-143v-195h135v-112h-135v-215h148v-113h-261v744z" />
    <glyph glyph-name="Jcircumflex.alt" horiz-adv-x="220" 
d="M10 0v115h54c15 0 17 10 17 23v606h117v-673c0 -53 -25 -71 -66 -71h-122zM183 882l63 -109h-81l-27 48l-27 -48h-80l63 109h89z" />
    <glyph glyph-name="aacute.alt" horiz-adv-x="296" 
d="M174 61c-14 -25 -40 -64 -87 -64h-3c-44 0 -69 41 -69 84v126c0 53 12 84 51 108c24 16 78 40 93 48c11 7 13 8 13 23v34c0 27 -7 35 -26 35h-2c-21 0 -27 -10 -27 -34v-57h-96v76c0 40 12 102 113 102h20c103 0 121 -50 121 -106v-330c0 -69 6 -91 11 -101v-5h-104
c-3 7 -8 28 -8 61zM172 133v139c-12 -7 -27 -16 -38 -27s-14 -22 -14 -43v-74c0 -23 8 -35 25 -35c18 0 27 13 27 40zM102 567l38 130h90l-40 -130h-88z" />
    <glyph glyph-name="aacute.alt2" horiz-adv-x="308" 
d="M182 538h106v-538h-106v61c-8 -22 -36 -66 -82 -66h-2c-47 0 -79 46 -79 114v328c0 51 21 104 74 104h2c50 0 73 -41 87 -60v57zM182 142v255c0 28 -6 48 -29 48c-18 0 -27 -14 -27 -43v-266c0 -28 7 -43 27 -43c23 0 29 17 29 49zM108 567l38 130h90l-40 -130h-88z" />
    <glyph glyph-name="abreve.alt" horiz-adv-x="296" 
d="M174 61c-14 -25 -40 -64 -87 -64h-3c-44 0 -69 41 -69 84v126c0 53 12 84 51 108c24 16 78 40 93 48c11 7 13 8 13 23v34c0 27 -7 35 -26 35h-2c-21 0 -27 -10 -27 -34v-57h-96v76c0 40 12 102 113 102h20c103 0 121 -50 121 -106v-330c0 -69 6 -91 11 -101v-5h-104
c-3 7 -8 28 -8 61zM172 133v139c-12 -7 -27 -16 -38 -27s-14 -22 -14 -43v-74c0 -23 8 -35 25 -35c18 0 27 13 27 40zM146 565h-3c-60 0 -101 32 -101 103v4h78v-4c0 -23 8 -34 24 -34h1c13 0 24 10 24 34v4h75v-4c0 -71 -43 -103 -98 -103z" />
    <glyph glyph-name="abreve.alt2" horiz-adv-x="308" 
d="M182 538h106v-538h-106v61c-8 -22 -36 -66 -82 -66h-2c-47 0 -79 46 -79 114v328c0 51 21 104 74 104h2c50 0 73 -41 87 -60v57zM182 142v255c0 28 -6 48 -29 48c-18 0 -27 -14 -27 -43v-266c0 -28 7 -43 27 -43c23 0 29 17 29 49zM150 565h-3c-60 0 -101 32 -101 103v4
h78v-4c0 -23 8 -34 24 -34h1c13 0 24 10 24 34v4h75v-4c0 -71 -43 -103 -98 -103z" />
    <glyph glyph-name="acircumflex.alt" horiz-adv-x="296" 
d="M174 61c-14 -25 -40 -64 -87 -64h-3c-44 0 -69 41 -69 84v126c0 53 12 84 51 108c24 16 78 40 93 48c11 7 13 8 13 23v34c0 27 -7 35 -26 35h-2c-21 0 -27 -10 -27 -34v-57h-96v76c0 40 12 102 113 102h20c103 0 121 -50 121 -106v-330c0 -69 6 -91 11 -101v-5h-104
c-3 7 -8 28 -8 61zM172 133v139c-12 -7 -27 -16 -38 -27s-14 -22 -14 -43v-74c0 -23 8 -35 25 -35c18 0 27 13 27 40zM192 698l57 -131h-79l-25 65l-25 -65h-77l57 131h92z" />
    <glyph glyph-name="acircumflex.alt2" horiz-adv-x="308" 
d="M182 538h106v-538h-106v61c-8 -22 -36 -66 -82 -66h-2c-47 0 -79 46 -79 114v328c0 51 21 104 74 104h2c50 0 73 -41 87 -60v57zM182 142v255c0 28 -6 48 -29 48c-18 0 -27 -14 -27 -43v-266c0 -28 7 -43 27 -43c23 0 29 17 29 49zM198 698l57 -131h-79l-25 65l-25 -65
h-77l57 131h92z" />
    <glyph glyph-name="adieresis.alt" horiz-adv-x="296" 
d="M174 61c-14 -25 -40 -64 -87 -64h-3c-44 0 -69 41 -69 84v126c0 53 12 84 51 108c24 16 78 40 93 48c11 7 13 8 13 23v34c0 27 -7 35 -26 35h-2c-21 0 -27 -10 -27 -34v-57h-96v76c0 40 12 102 113 102h20c103 0 121 -50 121 -106v-330c0 -69 6 -91 11 -101v-5h-104
c-3 7 -8 28 -8 61zM172 133v139c-12 -7 -27 -16 -38 -27s-14 -22 -14 -43v-74c0 -23 8 -35 25 -35c18 0 27 13 27 40zM133 665v-98h-89v98h89zM246 665v-98h-89v98h89z" />
    <glyph glyph-name="adieresis.alt2" horiz-adv-x="308" 
d="M182 538h106v-538h-106v61c-8 -22 -36 -66 -82 -66h-2c-47 0 -79 46 -79 114v328c0 51 21 104 74 104h2c50 0 73 -41 87 -60v57zM182 142v255c0 28 -6 48 -29 48c-18 0 -27 -14 -27 -43v-266c0 -28 7 -43 27 -43c23 0 29 17 29 49zM141 665v-98h-89v98h89zM254 665v-98
h-89v98h89z" />
    <glyph glyph-name="agrave.alt" horiz-adv-x="296" 
d="M174 61c-14 -25 -40 -64 -87 -64h-3c-44 0 -69 41 -69 84v126c0 53 12 84 51 108c24 16 78 40 93 48c11 7 13 8 13 23v34c0 27 -7 35 -26 35h-2c-21 0 -27 -10 -27 -34v-57h-96v76c0 40 12 102 113 102h20c103 0 121 -50 121 -106v-330c0 -69 6 -91 11 -101v-5h-104
c-3 7 -8 28 -8 61zM172 133v139c-12 -7 -27 -16 -38 -27s-14 -22 -14 -43v-74c0 -23 8 -35 25 -35c18 0 27 13 27 40zM189 567h-89l-39 130h91z" />
    <glyph glyph-name="agrave.alt2" horiz-adv-x="308" 
d="M182 538h106v-538h-106v61c-8 -22 -36 -66 -82 -66h-2c-47 0 -79 46 -79 114v328c0 51 21 104 74 104h2c50 0 73 -41 87 -60v57zM182 142v255c0 28 -6 48 -29 48c-18 0 -27 -14 -27 -43v-266c0 -28 7 -43 27 -43c23 0 29 17 29 49zM195 567h-89l-39 130h91z" />
    <glyph glyph-name="amacron.alt" horiz-adv-x="296" 
d="M174 61c-14 -25 -40 -64 -87 -64h-3c-44 0 -69 41 -69 84v126c0 53 12 84 51 108c24 16 78 40 93 48c11 7 13 8 13 23v34c0 27 -7 35 -26 35h-2c-21 0 -27 -10 -27 -34v-57h-96v76c0 40 12 102 113 102h20c103 0 121 -50 121 -106v-330c0 -69 6 -91 11 -101v-5h-104
c-3 7 -8 28 -8 61zM172 133v139c-12 -7 -27 -16 -38 -27s-14 -22 -14 -43v-74c0 -23 8 -35 25 -35c18 0 27 13 27 40zM60 579v77h172v-77h-172z" />
    <glyph glyph-name="amacron.alt2" horiz-adv-x="308" 
d="M182 538h106v-538h-106v61c-8 -22 -36 -66 -82 -66h-2c-47 0 -79 46 -79 114v328c0 51 21 104 74 104h2c50 0 73 -41 87 -60v57zM182 142v255c0 28 -6 48 -29 48c-18 0 -27 -14 -27 -43v-266c0 -28 7 -43 27 -43c23 0 29 17 29 49zM64 579v77h172v-77h-172z" />
    <glyph glyph-name="aogonek.alt" horiz-adv-x="296" 
d="M174 61c-14 -25 -40 -64 -87 -64h-3c-44 0 -69 41 -69 84v126c0 53 12 84 51 108c24 16 78 40 93 48c11 7 13 8 13 23v34c0 27 -7 35 -26 35h-2c-21 0 -27 -10 -27 -34v-57h-96v76c0 40 12 102 113 102h20c103 0 121 -50 121 -106v-330c0 -69 6 -91 11 -101v-5h-104
c-3 7 -8 28 -8 61zM172 133v139c-12 -7 -27 -16 -38 -27s-14 -22 -14 -43v-74c0 -23 8 -35 25 -35c18 0 27 13 27 40zM164 -124v15c0 37 27 70 66 109h56c-33 -45 -43 -64 -43 -91v-4c0 -14 8 -21 24 -21h19v-72h-50c-40 0 -72 21 -72 64z" />
    <glyph glyph-name="aogonek.alt2" horiz-adv-x="308" 
d="M182 538h106v-538h-106v61c-8 -22 -36 -66 -82 -66h-2c-47 0 -79 46 -79 114v328c0 51 21 104 74 104h2c50 0 73 -41 87 -60v57zM182 142v255c0 28 -6 48 -29 48c-18 0 -27 -14 -27 -43v-266c0 -28 7 -43 27 -43c23 0 29 17 29 49zM166 -124v15c0 37 27 70 66 109h56
c-33 -45 -43 -64 -43 -91v-4c0 -14 8 -21 24 -21h19v-72h-50c-40 0 -72 21 -72 64z" />
    <glyph glyph-name="aring.alt" horiz-adv-x="296" 
d="M174 61c-14 -25 -40 -64 -87 -64h-3c-44 0 -69 41 -69 84v126c0 53 12 84 51 108c24 16 78 40 93 48c11 7 13 8 13 23v34c0 27 -7 35 -26 35h-2c-21 0 -27 -10 -27 -34v-57h-96v76c0 40 12 102 113 102h20c103 0 121 -50 121 -106v-330c0 -69 6 -91 11 -101v-5h-104
c-3 7 -8 28 -8 61zM172 133v139c-12 -7 -27 -16 -38 -27s-14 -22 -14 -43v-74c0 -23 8 -35 25 -35c18 0 27 13 27 40zM145 563c-47 0 -80 34 -80 81c0 44 35 79 80 79c47 0 79 -35 79 -79c0 -47 -32 -81 -79 -81zM145 610c19 0 31 13 31 33c0 19 -12 33 -31 33
s-31 -14 -31 -33c0 -20 12 -33 31 -33z" />
    <glyph glyph-name="aring.alt2" horiz-adv-x="308" 
d="M182 538h106v-538h-106v61c-8 -22 -36 -66 -82 -66h-2c-47 0 -79 46 -79 114v328c0 51 21 104 74 104h2c50 0 73 -41 87 -60v57zM182 142v255c0 28 -6 48 -29 48c-18 0 -27 -14 -27 -43v-266c0 -28 7 -43 27 -43c23 0 29 17 29 49zM149 563c-47 0 -80 34 -80 81
c0 44 35 79 80 79c47 0 79 -35 79 -79c0 -47 -32 -81 -79 -81zM149 610c19 0 31 13 31 33c0 19 -12 33 -31 33s-31 -14 -31 -33c0 -20 12 -33 31 -33z" />
    <glyph glyph-name="aringacute.alt" horiz-adv-x="296" 
d="M144 563c-47 0 -80 34 -80 81c0 44 35 79 80 79c47 0 79 -35 79 -79c0 -47 -32 -81 -79 -81zM144 610c19 0 31 13 31 33c0 19 -12 33 -31 33s-31 -14 -31 -33c0 -20 12 -33 31 -33zM102 742l38 130h90l-40 -130h-88zM174 61c-14 -25 -40 -64 -87 -64h-3
c-44 0 -69 41 -69 84v126c0 53 12 84 51 108c24 16 78 40 93 48c11 7 13 8 13 23v34c0 27 -7 35 -26 35h-2c-21 0 -27 -10 -27 -34v-57h-96v76c0 40 12 102 113 102h20c103 0 121 -50 121 -106v-330c0 -69 6 -91 11 -101v-5h-104c-3 7 -8 28 -8 61zM172 133v139
c-12 -7 -27 -16 -38 -27s-14 -22 -14 -43v-74c0 -23 8 -35 25 -35c18 0 27 13 27 40z" />
    <glyph glyph-name="aringacute.alt2" horiz-adv-x="308" 
d="M149 563c-47 0 -80 34 -80 81c0 44 35 79 80 79c47 0 79 -35 79 -79c0 -47 -32 -81 -79 -81zM149 610c19 0 31 13 31 33c0 19 -12 33 -31 33s-31 -14 -31 -33c0 -20 12 -33 31 -33zM107 742l38 130h90l-40 -130h-88zM182 538h106v-538h-106v61c-8 -22 -36 -66 -82 -66h-2
c-47 0 -79 46 -79 114v328c0 51 21 104 74 104h2c50 0 73 -41 87 -60v57zM182 142v255c0 28 -6 48 -29 48c-18 0 -27 -14 -27 -43v-266c0 -28 7 -43 27 -43c23 0 29 17 29 49z" />
    <glyph glyph-name="atilde.alt" horiz-adv-x="296" 
d="M174 61c-14 -25 -40 -64 -87 -64h-3c-44 0 -69 41 -69 84v126c0 53 12 84 51 108c24 16 78 40 93 48c11 7 13 8 13 23v34c0 27 -7 35 -26 35h-2c-21 0 -27 -10 -27 -34v-57h-96v76c0 40 12 102 113 102h20c103 0 121 -50 121 -106v-330c0 -69 6 -91 11 -101v-5h-104
c-3 7 -8 28 -8 61zM172 133v139c-12 -7 -27 -16 -38 -27s-14 -22 -14 -43v-74c0 -23 8 -35 25 -35c18 0 27 13 27 40zM178 672h64v-46c0 -35 -15 -57 -42 -57h-1c-19 0 -34 6 -57 17c-11 5 -16 9 -23 9c-5 0 -7 -3 -7 -9v-19h-64v47c0 39 16 56 43 56h1c17 0 30 -4 54 -16
c12 -7 19 -11 26 -11c4 0 6 3 6 9v20z" />
    <glyph glyph-name="atilde.alt2" horiz-adv-x="308" 
d="M182 538h106v-538h-106v61c-8 -22 -36 -66 -82 -66h-2c-47 0 -79 46 -79 114v328c0 51 21 104 74 104h2c50 0 73 -41 87 -60v57zM182 142v255c0 28 -6 48 -29 48c-18 0 -27 -14 -27 -43v-266c0 -28 7 -43 27 -43c23 0 29 17 29 49zM187 672h64v-46c0 -35 -15 -57 -42 -57
h-1c-19 0 -34 6 -57 17c-11 5 -16 9 -23 9c-5 0 -7 -3 -7 -9v-19h-64v47c0 39 16 56 43 56h1c17 0 30 -4 54 -16c12 -7 19 -11 26 -11c4 0 6 3 6 9v20z" />
    <glyph glyph-name="racute.alt" horiz-adv-x="249" 
d="M125 538v-71c21 50 48 75 83 75h4c11 0 24 -3 27 -4v-122c-11 4 -27 9 -50 9h-4c-44 0 -58 -13 -58 -48v-377h-107v538h105zM85 567l38 130h90l-40 -130h-88z" />
    <glyph glyph-name="rcaron.alt" horiz-adv-x="249" 
d="M125 538v-71c21 50 48 75 83 75h4c11 0 24 -3 27 -4v-122c-11 4 -27 9 -50 9h-4c-44 0 -58 -13 -58 -48v-377h-107v538h105zM84 567l-57 130h79l25 -64l25 64h77l-57 -130h-92z" />
    <glyph glyph-name="rcommaaccent.alt" horiz-adv-x="249" 
d="M125 538v-71c21 50 48 75 83 75h4c11 0 24 -3 27 -4v-122c-11 4 -27 9 -50 9h-4c-44 0 -58 -13 -58 -48v-377h-107v538h105zM99 -196h-45c5 13 12 37 13 65h-38v102h92v-64c0 -56 -15 -88 -22 -103z" />
    <glyph glyph-name="space_uni0326.alt" 
d="M145 734h49c-5 -15 -13 -38 -13 -66h37v-101h-93v62c0 57 13 90 20 105z" />
    <glyph glyph-name="ordfeminine.alt" horiz-adv-x="181" 
d="M167 685v-166c0 -39 4 -51 7 -56v-4h-66c-1 3 -4 14 -4 37c-8 -17 -27 -40 -52 -40h-1c-27 0 -43 25 -43 54v54c0 36 12 50 39 65l49 25c5 3 7 7 7 12v8c0 12 -5 18 -14 18h-1c-9 0 -14 -6 -14 -18v-19h-62v30c0 31 8 63 69 63h12c64 0 74 -28 74 -63zM103 536v63
c-7 -3 -14 -8 -19 -13c-7 -7 -9 -12 -9 -27v-25c0 -13 4 -19 13 -19c10 0 15 7 15 21z" />
    <glyph glyph-name="ordfeminine.alt2" horiz-adv-x="195" 
d="M112 744h69v-285h-69v38c-7 -17 -23 -40 -50 -40h-1c-29 0 -49 23 -49 62v167c0 33 15 60 46 60h2c28 0 45 -20 52 -35v33zM112 541v124c0 15 -3 25 -16 25c-10 0 -15 -7 -15 -22v-130c0 -15 5 -23 15 -23c11 0 16 9 16 26z" />
    <glyph glyph-name="caron.alt" 
d="M127 600l7 144h81l-12 -144h-76z" />
    <glyph glyph-name="plus.uc" horiz-adv-x="337" 
d="M123 176v125h-107v85h107v126h91v-126h107v-85h-107v-125h-91z" />
    <glyph glyph-name="minus.uc" horiz-adv-x="317" 
d="M16 386h285v-85h-285v85z" />
    <glyph glyph-name="multiply.uc" horiz-adv-x="301" 
d="M237 194l-88 89l-85 -89l-58 54l87 92l-88 90l60 63l87 -90l85 90l59 -56l-88 -92l88 -91z" />
    <glyph glyph-name="divide.uc" horiz-adv-x="343" 
d="M16 386h311v-85h-311v85zM221 517v-97h-99v97h99zM221 263v-98h-99v98h99z" />
    <glyph glyph-name="equal.uc" horiz-adv-x="334" 
d="M18 328h298v-76h-298v76zM18 435h298v-76h-298v76z" />
    <glyph glyph-name="less.uc" horiz-adv-x="283" 
d="M10 306v76l260 104v-82l-162 -61l162 -60v-81z" />
    <glyph glyph-name="greater.uc" horiz-adv-x="283" 
d="M13 404v82l260 -104v-76l-260 -104v81l161 61z" />
    <glyph glyph-name="questiondown.uc" horiz-adv-x="305" 
d="M118 591h91v-120c0 -63 -3 -81 -35 -134l-29 -49c-22 -35 -23 -58 -23 -97v-54c0 -28 6 -39 29 -39s27 11 27 39v120h108v-120c0 -84 -21 -146 -124 -146h-22c-103 0 -133 52 -133 139v74c0 50 11 84 45 134l33 46c29 43 33 61 33 120v87zM111 616v128h104v-128h-104z
" />
    <glyph glyph-name="exclamdown.uc" horiz-adv-x="152" 
d="M127 744v-128h-104v128h104zM138 0h-124l43 591h37z" />
    <glyph glyph-name="hyphen.uc" horiz-adv-x="173" 
d="M16 388h141v-98h-141v98z" />
    <glyph glyph-name="endash.uc" horiz-adv-x="305" 
d="M16 379h273v-78h-273v78z" />
    <glyph glyph-name="emdash.uc" horiz-adv-x="463" 
d="M16 379h431v-78h-431v78z" />
    <glyph glyph-name="guilsinglleft.uc" horiz-adv-x="153" 
d="M97 308l47 -163h-86l-44 136v54l44 134h87z" />
    <glyph glyph-name="guilsinglright.uc" horiz-adv-x="151" 
d="M53 306l-43 163h85l42 -136v-53l-42 -135h-87z" />
    <glyph glyph-name="guillemotleft.uc" horiz-adv-x="249" 
d="M91 308l48 -163h-78l-47 136v54l47 134h78zM198 308l42 -163h-79l-46 163l46 161h80z" />
    <glyph glyph-name="guillemotright.uc" horiz-adv-x="248" 
d="M109 145l50 163l-50 161h80l46 -136v-52l-48 -136h-78zM8 145l43 163l-43 161h79l47 -161l-47 -163h-79z" />
    <glyph glyph-name="parenleft.uc" horiz-adv-x="207" 
d="M31 371v6c0 187 61 346 106 439h66c-34 -100 -68 -267 -68 -438c0 -179 41 -344 73 -459h-67c-51 112 -110 255 -110 452z" />
    <glyph glyph-name="parenright.uc" horiz-adv-x="207" 
d="M176 377v-6c0 -197 -59 -340 -110 -452h-67c32 115 73 280 73 459c0 171 -34 338 -68 438h66c45 -93 106 -252 106 -439z" />
    <glyph glyph-name="bracketleft.uc" horiz-adv-x="191" 
d="M185 817v-80h-53v-726h53v-80h-145v886h145z" />
    <glyph glyph-name="bracketright.uc" horiz-adv-x="191" 
d="M6 -70v80h54v726h-54v81h145v-887h-145z" />
    <glyph glyph-name="braceleft.uc" horiz-adv-x="199" 
d="M162 301c0 -47 -28 -191 -28 -239c0 -27 10 -53 46 -53h13v-79h-32c-80 0 -123 45 -123 113c0 51 32 188 32 255c0 19 -6 34 -27 34h-23v93h21c19 0 29 10 29 30c0 66 -32 206 -32 259c0 68 47 103 123 103h32v-78h-18c-31 0 -41 -20 -41 -41c0 -47 28 -191 28 -234
c0 -40 -7 -69 -44 -85c39 -15 44 -42 44 -78z" />
    <glyph glyph-name="braceright.uc" horiz-adv-x="199" 
d="M36 464c0 43 29 187 29 234c0 21 -9 41 -40 41h-19v78h31c76 0 123 -35 123 -103c0 -53 -30 -193 -30 -259c0 -21 6 -30 29 -30h20v-93h-24c-20 0 -25 -15 -25 -34c0 -67 30 -204 30 -255c0 -68 -42 -113 -123 -113h-31v79h12c37 0 47 26 47 53c0 48 -29 192 -29 239
c0 36 6 63 45 78c-39 16 -45 45 -45 85z" />
    <glyph glyph-name="slash.uc" horiz-adv-x="209" 
d="M206 816l-122 -897h-84l122 897h84z" />
    <glyph glyph-name="backslash.uc" horiz-adv-x="209" 
d="M125 -81l-122 897h84l122 -897h-84z" />
    <glyph glyph-name="bar.uc" horiz-adv-x="171" 
d="M126 816v-897h-81v897h81z" />
    <glyph glyph-name="at.uc" horiz-adv-x="546" 
d="M436 78l47 -57c-22 -33 -86 -109 -202 -109h-7c-116 0 -256 48 -256 396v90c0 252 87 378 262 378h12c167 0 236 -105 236 -310v-90c0 -214 -49 -287 -131 -287h-2c-69 0 -85 43 -90 62c-27 -43 -49 -62 -84 -62h-6c-36 0 -75 34 -72 108l13 309c3 43 24 87 72 87h5
c28 0 51 -20 70 -51l2 47h106l-21 -410c0 -9 0 -18 13 -18c27 0 47 50 47 213v93c0 176 -53 236 -158 236h-12c-115 0 -181 -87 -181 -307v-87c0 -300 114 -321 175 -321h7c78 0 136 58 155 90zM287 206l13 268c1 21 -3 32 -20 32c-15 0 -19 -12 -20 -32l-13 -268
c-1 -15 -1 -32 18 -32c16 0 21 13 22 32z" />
    <glyph glyph-name="grave.uc" 
d="M239 773h-92l-44 109h94z" />
    <glyph glyph-name="dieresis.uc" 
d="M158 872v-99h-90v99h90zM274 872v-99h-90v99h90z" />
    <glyph glyph-name="macron.uc" 
d="M85 780v79h173v-79h-173z" />
    <glyph glyph-name="acute.uc" 
d="M103 773l42 109h94l-44 -109h-92z" />
    <glyph glyph-name="circumflex.uc" 
d="M215 882l63 -109h-81l-27 48l-27 -48h-80l63 109h89z" />
    <glyph glyph-name="caron.uc" 
d="M126 773l-63 109h81l27 -48l27 48h80l-63 -109h-89z" />
    <glyph glyph-name="breve.uc" 
d="M173 770h-3c-56 0 -99 33 -99 94v6h77v-4c0 -18 8 -27 23 -27h1c15 0 24 10 24 27v4h76v-6c0 -61 -47 -94 -99 -94z" />
    <glyph glyph-name="dotaccent.uc" 
d="M224 888v-115h-107v115h107z" />
    <glyph glyph-name="ring.uc" 
d="M172 813c19 0 31 13 31 33c0 19 -12 33 -31 33s-31 -14 -31 -33c0 -20 12 -33 31 -33zM251 847c0 -47 -32 -81 -79 -81s-80 34 -80 81c0 44 35 79 80 79c47 0 79 -35 79 -79z" />
    <glyph glyph-name="tilde.uc" 
d="M268 878v-46c0 -35 -15 -57 -42 -57h-1c-19 0 -34 6 -57 17c-11 5 -16 9 -23 9c-5 0 -7 -3 -7 -9v-19h-64v47c0 39 16 56 43 56h1c17 0 30 -4 54 -16c12 -7 19 -11 26 -11c4 0 6 3 6 9v20h64z" />
    <glyph glyph-name="hungarumlaut.uc" 
d="M241 773h-75l29 108h78zM69 773l25 108h78l-28 -108h-75z" />
    <glyph glyph-name="emdash.altuc" horiz-adv-x="894" 
d="M878 302h-862v78h862v-78z" />
    <glyph glyph-name="f.short" horiz-adv-x="252" 
d="M243 744v-99h-44c-19 0 -22 -7 -22 -26v-81h66v-102h-66v-436h-107v436h-64v102h64v137c0 29 16 69 76 69h97z" />
    <glyph glyph-name="f_f.short" horiz-adv-x="450" 
d="M246 744v-99h-47c-19 0 -22 -7 -22 -26v-81h91v137c0 29 16 69 76 69h97v-99h-44c-19 0 -22 -7 -22 -26v-81h66v-102h-66v-436h-107v436h-91v-436h-107v436h-64v102h64v137c0 29 16 69 76 69h100z" />
    <glyph glyph-name="j.short" horiz-adv-x="148" 
d="M128 682v-115h-107v115h107zM-23 -86h23c14 0 21 8 21 24v600h107v-648c0 -65 -36 -78 -69 -78h-82v102z" />
    <glyph glyph-name="uni0192" unicode="&#x192;" horiz-adv-x="260" 
d="M40 -188l25 561h-54v103h59l9 189c3 48 22 79 104 79h64v-98h-35c-19 -1 -27 -7 -28 -32l-7 -138h70v-103h-74l-26 -561h-107z" />
    <glyph glyph-name="uni0237" unicode="&#x237;" horiz-adv-x="148" 
d="M-50 -86h50c14 0 21 8 21 24v600h107v-648c0 -65 -36 -78 -69 -78h-109v102z" />
    <glyph glyph-name="uni2009" unicode="&#x2009;" horiz-adv-x="14" 
 />
    <glyph glyph-name="dollar" unicode="$" horiz-adv-x="335" 
d="M148 -75v67c-88 3 -133 53 -133 141v143h106v-130c0 -31 7 -46 27 -51v224l-66 79c-51 59 -66 110 -66 188v20c0 91 48 142 132 145v61h35v-61c87 -3 123 -41 123 -129v-117h-98v106c0 23 -6 38 -25 43v-199l71 -84c56 -64 67 -107 67 -183v-23
c0 -104 -49 -170 -138 -173v-67h-35zM210 157v22c0 45 -4 66 -27 98v-182c18 7 27 27 27 62zM123 602v-18c0 -39 6 -61 25 -86v156c-20 -5 -25 -21 -25 -52z" />
    <glyph glyph-name="exclam" unicode="!" horiz-adv-x="152" 
d="M127 128v-128h-104v128h104zM14 744h124l-44 -591h-37z" />
    <glyph glyph-name="quotedbl" unicode="&#x22;" horiz-adv-x="220" 
d="M99 744v-175h-82v175h82zM203 744v-175h-82v175h82z" />
    <glyph glyph-name="numbersign" unicode="#" horiz-adv-x="366" 
d="M112 744h83l-20 -217h40l20 217h83l-20 -217h65l-8 -82h-65l-9 -105h64l-9 -84h-63l-23 -256h-83l23 256h-40l-23 -256h-82l23 256h-65l9 84h63l10 105h-64l9 82h62zM167 445l-9 -105h40l9 105h-40z" />
    </font>
</defs>
</svg>
