<?xml version="1.0" standalone="no"?>
<!DOCTYPE svg PUBLIC "-//W3C//DTD SVG 1.1//EN" "http://www.w3.org/Graphics/SVG/1.1/DTD/svg11.dtd" >
<svg xmlns="http://www.w3.org/2000/svg" xmlns:xlink="http://www.w3.org/1999/xlink" version="1.1">
<metadata>
Created by FontForge 20190801 at Mon Aug 22 12:56:25 2005
 By Jimmy Wärting
Please review the description of this font at http://www.itcfonts.com.
</metadata>
<defs>
<font id="LubalinGraphStd-ExtraLight" horiz-adv-x="536" >
  <font-face 
    font-family="ITC Lubalin Graph Std Extra Light"
    font-weight="275"
    font-stretch="normal"
    units-per-em="1000"
    panose-1="2 0 5 3 3 0 0 2 0 4"
    ascent="714"
    descent="-286"
    x-height="512"
    cap-height="714"
    bbox="-132 -235 1185 919"
    underline-thickness="50"
    underline-position="-150"
    stemh="26"
    stemv="27"
    unicode-range="U+0020-FB02"
  />
<missing-glyph horiz-adv-x="500" 
d="M12 0v665h475v-665h-475zM88 618l162 -243l161 243h-323zM60 575v-484c0 -1 161 242 161 242zM440 575l-162 -242l162 -243v485zM411 48l-161 242l-162 -242h323z" />
    <glyph glyph-name="f_i" unicode="fi" horiz-adv-x="437" 
d="M109 487h-84v25h84v50c0 36 0 158 160 165v-26c-35 -3 -135 -7 -133 -136v-53h186v-488h105v-24h-238v24h106v463h-159v-487h-111v24h84v463zM322 715v-88h-27v88h27z" />
    <glyph glyph-name="f_l" unicode="fl" horiz-adv-x="445" 
d="M109 487h-84v25h84v50c0 36 0 158 160 165v-26c-35 -3 -135 -7 -133 -136v-53h159v203h27v-691h105v-24h-238v24h106v463h-159v-487h-111v24h84v463z" />
    <glyph glyph-name=".notdef" horiz-adv-x="500" 
d="M12 0v665h475v-665h-475zM88 618l162 -243l161 243h-323zM60 575v-484c0 -1 161 242 161 242zM440 575l-162 -242l162 -243v485zM411 48l-161 242l-162 -242h323z" />
    <glyph glyph-name="space" unicode=" " horiz-adv-x="268" 
 />
    <glyph glyph-name="exclam" unicode="!" horiz-adv-x="250" 
d="M140 715v-535h-29v535h29zM140 78v-78h-29v78h29z" />
    <glyph glyph-name="quotedbl" unicode="&#x22;" horiz-adv-x="322" 
d="M108 428h-25l-4 286h33zM239 428h-25l-4 286h33z" />
    <glyph glyph-name="numbersign" unicode="#" 
d="M381 263l-43 -263h-26l41 263h-167l-41 -263h-29l44 263h-116l4 26h115l26 152h-115l5 27h114l41 246h27l-41 -246h167l41 246h27l-41 -246h125l-4 -27h-126l-25 -152h125l-2 -26h-126zM356 289l27 152h-166l-27 -152h166z" />
    <glyph glyph-name="dollar" unicode="$" 
d="M104 105v-105h-27v180h28c19 -91 72 -146 169 -146c116 0 175 77 175 160c0 109 -73 144 -181 168c-123 28 -184 74 -184 179c0 94 69 168 173 176v108h30v-108c74 -5 121 -42 141 -91v85h27v-160h-27c-15 89 -75 139 -157 139c-102 0 -156 -74 -156 -149
c0 -104 78 -133 180 -156c98 -21 185 -65 185 -192c0 -100 -79 -183 -193 -189v-119h-30v119c-77 3 -128 45 -153 101z" />
    <glyph glyph-name="percent" unicode="%" horiz-adv-x="835" 
d="M591 715l-321 -715h-29l322 715h28zM507 138v148c0 132 111 151 145 151c80 0 148 -58 148 -146v-153c0 -117 -106 -146 -145 -146c-54 0 -148 35 -148 146zM531 285v-144c0 -79 59 -122 123 -122c43 0 121 27 121 122v147c0 59 -36 123 -123 123
c-64 0 -121 -43 -121 -126zM35 423v148c0 132 111 151 145 151c80 0 148 -58 148 -146v-153c0 -117 -106 -146 -145 -146c-54 0 -148 35 -148 146zM59 570v-144c0 -79 59 -122 123 -122c43 0 121 27 121 122v147c0 59 -36 123 -123 123c-64 0 -121 -43 -121 -126z" />
    <glyph glyph-name="ampersand" unicode="&#x26;" horiz-adv-x="706" 
d="M469 220l98 219h124v-27h-105l-96 -213l186 -190l-21 -20l-179 183l-23 -45c-33 -62 -78 -140 -200 -140c-118 0 -202 80 -202 200c0 131 106 189 193 224l-36 39c-38 43 -61 71 -63 126c0 80 67 151 154 151c97 0 155 -71 155 -151c0 -92 -72 -133 -163 -174zM454 193
l-190 197c-149 -57 -183 -121 -184 -204c1 -101 74 -172 176 -172c72 0 125 29 172 125zM223 474l48 -51c101 44 154 79 154 154c0 60 -45 121 -127 123c-81 -2 -124 -67 -124 -120c0 -48 26 -82 49 -106z" />
    <glyph glyph-name="quotesingle" unicode="'" horiz-adv-x="214" 
d="M120 428h-25l-4 286h33z" />
    <glyph glyph-name="parenleft" unicode="(" horiz-adv-x="411" 
d="M380 757v-33c-138 -85 -250 -260 -250 -461c0 -202 112 -377 250 -462v-36c-39 25 -85 56 -135 112c-89 103 -146 240 -146 386c0 205 115 398 281 494z" />
    <glyph glyph-name="parenright" unicode=")" horiz-adv-x="411" 
d="M31 -235v33c137 86 249 261 249 462s-112 377 -249 462v35c39 -25 85 -56 134 -112c90 -103 146 -239 146 -385c0 -205 -115 -399 -280 -495z" />
    <glyph glyph-name="asterisk" unicode="*" horiz-adv-x="554" 
d="M395 583l-142 -46c28 -39 61 -85 89 -124c-8 -6 -14 -9 -22 -15l-87 125c-27 -39 -62 -87 -89 -126c-8 6 -15 10 -23 16l93 124c-45 13 -100 32 -145 46c3 10 6 13 9 23l144 -46c-1 47 -1 102 -2 150h26l1 -150c44 14 95 32 140 47c3 -8 5 -15 8 -24z" />
    <glyph glyph-name="plus" unicode="+" 
d="M488 276h-207v-231h-27v231h-207v27h207v231h27v-231h207v-27z" />
    <glyph glyph-name="comma" unicode="," horiz-adv-x="268" 
d="M47 -101l95 179h29l-95 -179h-29z" />
    <glyph glyph-name="hyphen" unicode="-" horiz-adv-x="257" 
d="M0 289h257v-28h-257v28z" />
    <glyph glyph-name="period" unicode="." horiz-adv-x="268" 
d="M149 78v-78h-29v78h29z" />
    <glyph glyph-name="slash" unicode="/" horiz-adv-x="500" 
d="M436 715l-382 -908h-32l382 908h32z" />
    <glyph glyph-name="zero" unicode="0" 
d="M38 212v283c0 206 175 235 227 235c126 0 232 -89 232 -227v-291c0 -183 -165 -227 -227 -227c-84 0 -232 53 -232 227zM67 498v-286c0 -129 98 -200 201 -200c70 0 201 45 201 200v291c0 95 -63 201 -204 201c-104 0 -198 -70 -198 -206z" />
    <glyph glyph-name="one" unicode="1" 
d="M107 0v26h159v663h-159v26h188v-689h153v-26h-341z" />
    <glyph glyph-name="two" unicode="2" 
d="M55 0v26l307 318c62 63 93 114 96 174c1 111 -78 188 -182 188c-92 0 -178 -64 -181 -202h-29c3 164 117 228 214 228c119 0 209 -92 207 -219c-5 -71 -42 -125 -105 -189l-288 -298h367v135h26v-161h-432z" />
    <glyph glyph-name="three" unicode="3" 
d="M38 206h29c4 -136 106 -194 191 -194c107 0 188 71 188 187c0 94 -68 182 -209 182h-38v26h38c113 0 169 73 169 154c0 73 -50 142 -140 142c-79 0 -146 -53 -152 -136h-27c6 109 99 162 176 162c111 0 172 -80 172 -169c0 -75 -51 -140 -115 -163v-2
c88 -24 155 -98 155 -190c0 -119 -79 -220 -220 -220c-131 0 -216 99 -217 221z" />
    <glyph glyph-name="four" unicode="4" 
d="M297 0v26h93v157h-374v25l364 507h39v-506h115v-26h-115v-157h93v-26h-215zM388 680l-338 -471h340v471h-2z" />
    <glyph glyph-name="five" unicode="5" 
d="M130 714h327v-26h-304l-46 -271c27 21 78 57 157 57c138 0 233 -109 233 -241c0 -140 -113 -246 -239 -246c-92 0 -221 68 -238 223h29c15 -128 118 -196 210 -196c112 0 210 97 210 216c0 118 -85 218 -207 218c-30 0 -104 -6 -166 -83l-25 7z" />
    <glyph glyph-name="six" unicode="6" 
d="M341 714l-190 -277l3 -1c26 18 74 36 119 36c125 0 230 -97 230 -240c0 -130 -98 -245 -235 -245c-166 0 -236 134 -236 234c0 83 32 136 61 179l215 314h33zM61 223c0 -110 76 -209 206 -209c122 0 207 99 207 215c0 147 -111 217 -203 217c-106 0 -210 -77 -210 -223z
" />
    <glyph glyph-name="seven" unicode="7" 
d="M92 688v-135h-26v161h408v-26l-319 -688h-30l318 688h-351z" />
    <glyph glyph-name="eight" unicode="8" 
d="M89 550c0 101 81 178 179 178c103 0 179 -79 179 -178c0 -67 -44 -132 -112 -161c86 -27 148 -100 148 -196c0 -114 -96 -206 -215 -206c-125 0 -217 91 -217 206c0 104 70 171 149 196c-69 29 -111 92 -111 161zM118 549c0 -86 66 -149 150 -149c87 0 150 70 150 149
c0 81 -59 153 -150 153c-89 0 -150 -67 -150 -153zM80 193c0 -94 77 -179 188 -179c105 0 186 78 186 179c0 96 -76 181 -186 181c-108 0 -188 -77 -188 -181z" />
    <glyph glyph-name="nine" unicode="9" 
d="M194 0l191 278l-1 1c-32 -21 -78 -36 -120 -36c-125 0 -231 97 -231 240c0 129 98 244 236 244c165 0 235 -133 235 -233c0 -83 -32 -137 -61 -179l-216 -315h-33zM475 492c0 110 -76 209 -205 209c-123 0 -208 -99 -208 -215c0 -147 111 -217 203 -217
c83 0 210 59 210 223z" />
    <glyph glyph-name="colon" unicode=":" horiz-adv-x="268" 
d="M149 78v-78h-29v78h29zM149 496v-78h-29v78h29z" />
    <glyph glyph-name="semicolon" unicode=";" horiz-adv-x="268" 
d="M148 496v-78h-29v78h29zM47 -101l95 179h29l-95 -179h-29z" />
    <glyph glyph-name="less" unicode="&#x3c;" 
d="M489 62l-443 229v-3l443 230v-34l-381 -192v-2l381 -195v-33z" />
    <glyph glyph-name="equal" unicode="=" 
d="M488 377h-440v27h440v-27zM488 176h-440v27h440v-27z" />
    <glyph glyph-name="greater" unicode="&#x3e;" 
d="M489 291l-443 -230v34l381 192v3l-381 194v33l443 -229v3z" />
    <glyph glyph-name="question" unicode="?" horiz-adv-x="518" 
d="M277 180h-29c0 73 22 115 91 168c57 44 103 100 103 174c0 108 -84 180 -183 180s-188 -74 -191 -181h-29c5 122 102 211 221 211c125 0 211 -92 211 -210c0 -85 -54 -148 -118 -196c-63 -47 -76 -85 -76 -146zM276 78v-78h-28v78h28z" />
    <glyph glyph-name="at" unicode="@" horiz-adv-x="769" 
d="M767 413c0 -125 -83 -254 -213 -254h-58l12 67c-31 -45 -83 -78 -144 -78c-95 0 -159 79 -159 178c0 128 94 212 192 212c73 0 130 -49 144 -124c2 12 15 85 19 112h87c-2 -13 -3 -14 -4 -20h-63l-57 -326h36c94 0 186 98 186 232c0 175 -125 293 -314 293
c-205 0 -361 -164 -361 -355c0 -213 142 -342 341 -342c77 0 159 12 242 46l6 -19c-82 -36 -163 -49 -249 -49c-225 0 -365 150 -365 363c0 206 167 379 386 379c202 0 336 -128 336 -315zM526 360c0 84 -41 155 -132 155c-89 0 -163 -80 -163 -188c0 -94 56 -155 137 -155
c100 0 158 88 158 188z" />
    <glyph glyph-name="A" unicode="A" horiz-adv-x="795" 
d="M584 0v26h95l-96 222h-374l-96 -222h98v-26h-221v26h92l284 662h-124v26h173l295 -688h95v-26h-221zM395 687l-174 -413h349z" />
    <glyph glyph-name="B" unicode="B" horiz-adv-x="599" 
d="M30 688v26h270c61 0 98 -10 126 -26c65 -36 84 -100 84 -153c0 -67 -28 -124 -99 -155v-2c89 -26 143 -90 143 -188c-1 -102 -64 -190 -227 -190h-297v26h98v662h-98zM157 361v-335h171c125 0 195 56 197 164c0 69 -31 125 -96 154c-39 16 -68 17 -126 17h-146zM157 688
v-301h144c42 0 82 4 107 18c60 34 73 84 73 134c0 65 -37 110 -73 128c-20 10 -46 21 -108 21h-143z" />
    <glyph glyph-name="C" unicode="C" horiz-adv-x="754" 
d="M685 156h33c-49 -83 -163 -169 -312 -169c-205 0 -371 156 -371 370c0 215 166 370 371 370c124 -1 212 -52 271 -117v106h26v-150h-25c-50 70 -142 134 -272 135c-190 0 -342 -146 -342 -344s152 -343 342 -343c167 0 258 114 279 142z" />
    <glyph glyph-name="D" unicode="D" horiz-adv-x="726" 
d="M128 26v662h-98v26h275c264 0 386 -160 386 -357c0 -213 -141 -357 -386 -357h-275v26h98zM157 688v-662h148c231 0 357 133 357 329c0 185 -115 333 -357 333h-148z" />
    <glyph glyph-name="E" unicode="E" horiz-adv-x="565" 
d="M489 26v144h26v-170h-485v26h98v662h-98v26h485v-170h-26v144h-332v-315h308v-26h-308v-321h332z" />
    <glyph glyph-name="F" unicode="F" horiz-adv-x="540" 
d="M255 26v-26h-225v26h98v662h-98v26h475v-170h-26v144h-322v-315h298v-26h-298v-321h98z" />
    <glyph glyph-name="G" unicode="G" horiz-adv-x="819" 
d="M694 605v111h26v-155h-25c-71 94 -169 140 -285 140c-190 0 -346 -146 -346 -344s152 -343 342 -343c181 0 299 129 325 262h-406v26h434v-302h-28v195c-55 -119 -160 -208 -325 -208c-205 0 -371 156 -371 370c0 215 170 370 375 370c106 0 218 -43 284 -122z" />
    <glyph glyph-name="H" unicode="H" horiz-adv-x="713" 
d="M683 688h-98v-662h98v-26h-225v26h98v321h-400v-321h99v-26h-225v26h97v662h-97v26h225v-26h-99v-315h400v315h-98v26h225v-26z" />
    <glyph glyph-name="I" unicode="I" horiz-adv-x="285" 
d="M255 688h-99v-662h99v-26h-225v26h97v662h-97v26h225v-26z" />
    <glyph glyph-name="J" unicode="J" horiz-adv-x="488" 
d="M463 688h-99v-483c0 -34 -1 -77 -17 -118c-11 -22 -25 -44 -49 -63c-35 -26 -77 -37 -114 -37c-80 0 -161 51 -178 149h32c26 -110 117 -122 147 -122c75 1 120 44 135 84c12 31 15 64 15 107v483h-97v26h225v-26z" />
    <glyph glyph-name="K" unicode="K" horiz-adv-x="647" 
d="M637 688h-91l-360 -332l360 -330h91v-26h-225v26h94l-350 320v-320h99v-26h-225v26h97v662h-97v26h225v-26h-99v-324l351 324h-95v26h225v-26z" />
    <glyph glyph-name="L" unicode="L" horiz-adv-x="473" 
d="M458 0h-428v26h96v662h-96v26h225v-26h-100v-662h277v144h26v-170z" />
    <glyph glyph-name="M" unicode="M" horiz-adv-x="1007" 
d="M977 688h-99v-662h99v-26h-225v26h97v660h-2l-336 -686h-17l-337 686h-2v-660h100v-26h-225v26h96v662h-96v26h143l330 -668l330 668h144v-26z" />
    <glyph glyph-name="N" unicode="N" horiz-adv-x="811" 
d="M170 714l490 -675h2v649h-101v26h225v-26h-95v-688h-37l-497 686h-2v-660h100v-26h-225v26h96v662h-96v26h140z" />
    <glyph glyph-name="O" unicode="O" horiz-adv-x="811" 
d="M35 357c0 215 166 370 371 370c204 0 370 -155 370 -370c0 -214 -166 -370 -370 -370c-205 0 -371 156 -371 370zM64 357c0 -198 152 -343 342 -343c189 0 342 145 342 343s-153 344 -342 344c-190 0 -342 -146 -342 -344z" />
    <glyph glyph-name="P" unicode="P" horiz-adv-x="564" 
d="M30 714h263c85 0 131 -8 179 -43c42 -31 72 -95 72 -160s-30 -129 -72 -160c-48 -35 -96 -43 -179 -43h-137v-282h99v-26h-225v26h97v662h-97v26zM156 688v-354h138c80 0 122 10 162 40c35 25 59 82 59 136c0 56 -24 113 -59 138c-40 30 -81 40 -162 40h-138z" />
    <glyph glyph-name="Q" unicode="Q" horiz-adv-x="841" 
d="M810 17v110h26v-140c-76 5 -136 22 -207 72c-35 -25 -113 -72 -220 -72c-228 0 -374 174 -374 370c0 215 166 370 371 370s371 -155 371 -370c0 -156 -84 -241 -124 -280c50 -35 98 -52 157 -60zM84 238c39 12 90 29 167 29c78 0 151 -20 212 -53c31 -16 44 -26 167 -119
c78 67 118 161 118 262c0 198 -153 344 -342 344s-342 -146 -342 -344c0 -59 12 -96 20 -119zM96 210c85 -176 244 -196 314 -196c88 0 160 35 197 63c-18 13 -117 88 -118 89c-76 50 -153 75 -242 75c-70 0 -112 -17 -151 -31z" />
    <glyph glyph-name="R" unicode="R" horiz-adv-x="624" 
d="M30 714h283c180 0 266 -85 266 -219c0 -117 -88 -214 -232 -215h-9l181 -254h95v-26h-110l-220 306h54c136 0 212 81 212 188c0 105 -66 194 -237 194h-158v-662h100v-26h-225v26h96v662h-96v26z" />
    <glyph glyph-name="S" unicode="S" horiz-adv-x="500" 
d="M50 173h25c27 -137 123 -159 178 -159c90 0 178 67 178 170c0 131 -116 160 -185 178c-62 16 -193 44 -193 178c-3 119 91 186 194 186c59 0 118 -25 152 -80v68h26v-148h-25c-12 51 -40 134 -155 134c-91 0 -163 -61 -163 -155c-1 -113 100 -139 198 -164
c35 -10 180 -38 180 -194c0 -117 -100 -200 -206 -200c-85 0 -145 42 -178 108v-95h-26v173z" />
    <glyph glyph-name="T" unicode="T" horiz-adv-x="477" 
d="M10 714h457v-172h-26v146h-188v-662h98v-26h-225v26h98v662h-188v-146h-26v172z" />
    <glyph glyph-name="U" unicode="U" horiz-adv-x="665" 
d="M650 688h-100v-437c1 -65 -2 -161 -86 -220c-37 -27 -84 -44 -133 -44s-96 17 -133 44c-84 59 -87 155 -86 220v437h-97v26h225v-26h-99v-437c0 -69 0 -114 45 -172c31 -40 90 -65 147 -65c54 0 113 25 144 65c44 58 44 103 44 172v437h-96v26h225v-26z" />
    <glyph glyph-name="V" unicode="V" horiz-adv-x="779" 
d="M789 688h-97l-295 -688h-20l-294 688h-93v26h225v-26h-99l272 -640l272 640h-96v26h225v-26z" />
    <glyph glyph-name="W" unicode="W" horiz-adv-x="993" 
d="M1003 688h-98l-198 -688h-37l-175 638h-2l-173 -638h-39l-196 688h-95v26h225v-26h-99l184 -648h2l182 674h21l184 -674h2l184 648h-97v26h225v-26z" />
    <glyph glyph-name="X" unicode="X" horiz-adv-x="666" 
d="M662 688h-97l-218 -326l227 -336h97v-26h-225v26h95l-210 311l-210 -311h99v-26h-225v26h94l226 336l-219 326h-94v26h225v-26h-96l200 -299l200 299h-94v26h225v-26z" />
    <glyph glyph-name="Y" unicode="Y" horiz-adv-x="654" 
d="M664 688h-97l-226 -442v-220h99v-26h-225v26h97v220l-226 442h-96v26h225v-26h-97l209 -409l207 409h-95v26h225v-26z" />
    <glyph glyph-name="Z" unicode="Z" horiz-adv-x="491" 
d="M26 714h440l-399 -688h383v146h26v-172h-457l400 688h-367v-146h-26v172z" />
    <glyph glyph-name="bracketleft" unicode="[" horiz-adv-x="411" 
d="M332 757v-34c-93 -47 -129 -122 -129 -215v-492c0 -50 6 -153 129 -214v-35c-113 54 -160 136 -160 249v492c0 48 0 173 160 249z" />
    <glyph glyph-name="backslash" unicode="\" horiz-adv-x="500" 
d="M428 -192l-382 907h32l382 -907h-32z" />
    <glyph glyph-name="bracketright" unicode="]" horiz-adv-x="411" 
d="M78 -233v35c94 46 130 122 130 214v492c0 50 -6 154 -130 215v34c113 -55 161 -136 161 -249v-492c0 -47 0 -172 -161 -249z" />
    <glyph glyph-name="asciicircum" unicode="^" 
d="M481 380h-33l-178 286h-3l-179 -286h-33l209 332h9z" />
    <glyph glyph-name="underscore" unicode="_" horiz-adv-x="483" 
d="M483 -121h-483v26h483v-26z" />
    <glyph glyph-name="grave" unicode="`" 
d="M153 740l229 -133l-13 -23l-230 134z" />
    <glyph glyph-name="a" unicode="a" horiz-adv-x="687" 
d="M534 0v128h-2c-45 -87 -130 -141 -238 -141c-168 0 -269 131 -269 269c0 141 104 269 269 269c124 0 213 -77 238 -143h2v130h133v-24h-106v-464h106v-24h-133zM297 13c141 0 240 111 240 243c0 140 -106 243 -243 243c-133 0 -242 -99 -242 -243
c1 -116 80 -243 245 -243z" />
    <glyph glyph-name="b" unicode="b" horiz-adv-x="687" 
d="M20 690v24h133v-332h2c36 74 114 141 238 143c165 0 269 -128 269 -269c0 -138 -101 -269 -269 -269c-108 0 -193 54 -238 141h-2v-128h-133v24h106v666h-106zM390 13c165 0 244 127 245 243c0 144 -109 243 -242 243c-137 0 -243 -103 -243 -243
c0 -132 99 -243 240 -243z" />
    <glyph glyph-name="c" unicode="c" horiz-adv-x="583" 
d="M537 363h-26c-31 83 -108 137 -216 136c-72 -1 -120 -21 -173 -68c-41 -38 -70 -105 -70 -175c0 -145 112 -243 242 -243c116 1 199 72 224 148h30c-36 -104 -132 -172 -254 -174c-149 0 -269 108 -269 268c0 152 114 270 269 270c102 0 175 -42 217 -105v92h26v-149z
" />
    <glyph glyph-name="d" unicode="d" horiz-adv-x="687" 
d="M428 690v24h133v-690h106v-24h-133v128h-2c-45 -87 -130 -141 -238 -141c-168 0 -269 131 -269 269c0 141 104 269 269 269c124 0 213 -77 238 -143h2v308h-106zM297 13c141 0 240 111 240 243c0 140 -106 243 -243 243c-133 0 -242 -99 -242 -243
c1 -116 80 -243 245 -243z" />
    <glyph glyph-name="e" unicode="e" horiz-adv-x="593" 
d="M563 253h-510c2 -167 142 -241 242 -240c95 0 178 48 219 135h30c-48 -109 -146 -162 -250 -161c-156 0 -269 116 -269 269v-1c0 154 118 270 270 270c138 0 262 -99 269 -257zM54 278h482c-6 124 -121 226 -241 221c-126 0 -233 -91 -241 -221z" />
    <glyph glyph-name="f" unicode="f" horiz-adv-x="316" 
d="M25 0v24h106v463h-106v25h106v50c0 106 56 161 160 165v-26c-74 -2 -133 -35 -133 -136v-53h111v-25h-111v-463h111v-24h-244z" />
    <glyph glyph-name="g" unicode="g" horiz-adv-x="690" 
d="M52 -61h31c12 -20 30 -51 66 -79c48 -38 105 -53 151 -53c120 0 237 96 237 245v76h-3c-44 -87 -129 -141 -237 -141c-171 0 -272 131 -272 269c0 141 104 269 272 269c124 0 213 -77 238 -143h2v130h133v-24h-106v-431c-1 -214 -181 -275 -260 -275
c-103 0 -208 56 -252 157zM540 256c0 140 -106 243 -243 243c-136 0 -245 -99 -245 -243c1 -116 81 -243 248 -243c141 0 240 111 240 243z" />
    <glyph glyph-name="h" unicode="h" horiz-adv-x="719" 
d="M20 690v24h134v-301h2c32 75 125 113 206 112c66 0 120 -18 160 -52c51 -42 75 -111 75 -203v-246h104v-24h-238v24h107v246c0 89 -24 146 -63 181c-40 36 -93 48 -145 48c-128 -2 -208 -76 -208 -204v-271h104v-24h-238v24h107v666h-107z" />
    <glyph glyph-name="i" unicode="i" horiz-adv-x="273" 
d="M25 488v24h133v-488h105v-24h-238v24h106v464h-106zM158 714v-87h-27v87h27z" />
    <glyph glyph-name="j" unicode="j" horiz-adv-x="208" 
d="M25 488v24h133v-506c0 -80 0 -196 -133 -212v29c95 15 106 82 106 183v482h-106zM158 714v-87h-27v87h27z" />
    <glyph glyph-name="k" unicode="k" horiz-adv-x="561" 
d="M5 690v24h133v-432l252 206h-99v24h238v-24h-104l-256 -209l277 -255h113v-24h-238v24h89l-272 250v-250h105v-24h-238v24h106v666h-106z" />
    <glyph glyph-name="l" unicode="l" horiz-adv-x="276" 
d="M20 690v24h133v-690h105v-24h-238v24h106v666h-106z" />
    <glyph glyph-name="m" unicode="m" horiz-adv-x="1020" 
d="M25 488v24h133v-91h2c48 94 138 104 170 104c62 0 116 -22 151 -63c15 -16 27 -37 34 -60h2c5 14 14 37 36 60c35 39 90 63 148 63c62 0 108 -20 140 -52c43 -41 59 -108 59 -186v-263h102v-24h-238v24h109v263c0 70 -13 130 -52 169c-27 28 -67 43 -120 43
c-45 0 -100 -17 -132 -59c-33 -42 -40 -73 -40 -153v-263h104v-24h-238v24h107v263c2 80 -10 117 -36 152c-30 38 -76 58 -136 60c-50 2 -99 -23 -124 -56c-28 -31 -48 -77 -48 -151v-268h105v-24h-238v24h106v464h-106z" />
    <glyph glyph-name="n" unicode="n" horiz-adv-x="724" 
d="M25 488v24h133v-99h2c32 75 125 113 206 112c66 0 120 -18 160 -52c51 -42 75 -111 75 -203v-246h105v-24h-238v24h106v246c0 89 -24 146 -63 181c-40 36 -93 48 -145 48c-128 -2 -208 -76 -208 -204v-271h105v-24h-238v24h106v464h-106z" />
    <glyph glyph-name="o" unicode="o" horiz-adv-x="589" 
d="M25 256c0 153 116 269 269 269c154 0 270 -116 270 -269c0 -154 -116 -269 -270 -269c-153 0 -269 115 -269 269zM52 256c0 -139 104 -243 242 -243s243 104 243 243s-105 243 -243 243s-242 -104 -242 -243z" />
    <glyph glyph-name="p" unicode="p" horiz-adv-x="687" 
d="M20 488v24h133v-128h2c45 87 130 141 238 141c168 0 269 -131 269 -269c0 -141 -104 -269 -269 -269c-124 0 -213 77 -238 143h-2v-312h105v-24h-238v24h106v670h-106zM390 499c-141 0 -240 -111 -240 -243c0 -140 106 -243 243 -243c133 0 242 99 242 243
c-1 116 -80 243 -245 243z" />
    <glyph glyph-name="q" unicode="q" horiz-adv-x="687" 
d="M427 -206v24h107v312h-2c-25 -66 -114 -143 -238 -143c-165 0 -269 128 -269 269c0 138 101 269 269 269c108 0 193 -54 238 -141h2v128h133v-24h-106v-670h104v-24h-238zM297 499c-165 0 -244 -127 -245 -243c0 -144 109 -243 242 -243c137 0 243 103 243 243
c0 132 -99 243 -240 243z" />
    <glyph glyph-name="r" unicode="r" horiz-adv-x="349" 
d="M25 488v24h133v-93h2c47 97 135 103 179 106v-27c-31 -1 -66 -2 -112 -35c-61 -55 -69 -115 -69 -186v-253h105v-24h-238v24h106v464h-106z" />
    <glyph glyph-name="s" unicode="s" horiz-adv-x="412" 
d="M319 390v6c-4 74 -63 103 -120 103c-81 0 -121 -51 -121 -105c0 -56 30 -82 126 -107c99 -26 167 -56 167 -155c0 -75 -65 -145 -163 -145c-71 0 -118 30 -144 71v-58h-26v142h27c1 -82 68 -129 143 -129c81 0 136 53 136 119c0 67 -36 102 -141 128
c-92 23 -152 50 -152 132c0 85 73 133 149 133c56 0 95 -21 119 -55v42h26v-122h-26z" />
    <glyph glyph-name="t" unicode="t" horiz-adv-x="286" 
d="M120 512v203h27v-203h131v-25h-131v-463h131v-24h-158v487h-113v25h113z" />
    <glyph glyph-name="u" unicode="u" horiz-adv-x="727" 
d="M463 512h133v-488h106v-24h-133v103h-2c-32 -79 -121 -117 -206 -116c-66 0 -120 18 -160 52c-51 42 -75 111 -75 203v246h-106v24h133v-270c0 -89 25 -146 63 -181c40 -36 93 -48 145 -48c129 1 208 76 208 208v267h-106v24z" />
    <glyph glyph-name="v" unicode="v" horiz-adv-x="630" 
d="M397 488v24h238v-24h-102l-201 -488h-35l-200 488h-102v24h238v-24h-108l190 -456l187 456h-105z" />
    <glyph glyph-name="w" unicode="w" horiz-adv-x="892" 
d="M659 488v24h238v-24h-103l-181 -488h-31l-137 388h-2l-135 -388h-31l-179 488h-103v24h238v-24h-105l164 -447h1l142 401h21l142 -401h2l163 447h-104z" />
    <glyph glyph-name="x" unicode="x" horiz-adv-x="546" 
d="M-2 0v24h103l155 233l-155 231h-103v24h238v-24h-101l137 -205l138 205h-100v24h238v-24h-105l-155 -231l155 -233h105v-24h-238v24h100l-138 207l-137 -207h101v-24h-238z" />
    <glyph glyph-name="y" unicode="y" horiz-adv-x="629" 
d="M106 -206v24h104l80 183l-193 487h-102v24h238v-24h-106l180 -450l192 450h-103v24h238v-24h-104l-289 -670h103v-24h-238z" />
    <glyph glyph-name="z" unicode="z" horiz-adv-x="416" 
d="M22 0v23l317 464h-278v-124h-26v149h339v-26l-318 -461h314v124h26v-149h-374z" />
    <glyph glyph-name="braceleft" unicode="{" horiz-adv-x="411" 
d="M332 -233h-63c-61 0 -80 39 -80 122v177c0 89 -14 148 -78 179v27c46 12 78 85 78 186v181c0 82 19 118 80 118h63v-25h-52c-51 0 -60 -21 -60 -111v-179c0 -63 -22 -152 -78 -183c48 -21 78 -95 78 -177v-177c0 -97 11 -113 60 -113h52v-25z" />
    <glyph glyph-name="bar" unicode="|" horiz-adv-x="185" 
d="M106 -235h-27v1000h27v-1000z" />
    <glyph glyph-name="braceright" unicode="}" horiz-adv-x="411" 
d="M78 -233v25h52c50 0 60 16 60 113v177c0 82 30 156 79 177c-56 31 -79 120 -79 183v179c0 90 -8 111 -60 111h-52v25h64c61 0 79 -36 79 -118v-181c0 -101 32 -174 78 -186v-27c-63 -31 -78 -90 -78 -179v-177c0 -83 -18 -122 -79 -122h-64z" />
    <glyph glyph-name="asciitilde" unicode="~" 
d="M494 320c-25 -37 -64 -78 -127 -78c-41 0 -77 17 -106 36c-28 18 -61 35 -95 35c-37 0 -75 -23 -104 -67l-20 16c30 40 66 78 126 78c42 0 80 -18 106 -35c33 -22 63 -37 95 -37c39 0 77 25 105 67z" />
    <glyph glyph-name="uni00A0" unicode="&#xa0;" 
 />
    <glyph glyph-name="exclamdown" unicode="&#xa1;" horiz-adv-x="250" 
d="M111 -202v555h29v-555h-29zM111 435v78h29v-78h-29z" />
    <glyph glyph-name="cent" unicode="&#xa2;" 
d="M465 453h-26c-44 80 -116 91 -158 91c-116 0 -186 -87 -186 -185c0 -94 62 -189 185 -189c93 0 142 54 159 86h32c-50 -98 -142 -112 -174 -114v-104h-29v104c-139 9 -202 124 -202 214c0 88 57 203 202 216v92h29v-93c45 -6 99 -19 142 -75v71h25v-112c0 -1 0 -2 1 -2z
" />
    <glyph glyph-name="sterling" unicode="&#xa3;" 
d="M390 380v-26h-235v-2c36 -26 100 -90 100 -186c0 -17 0 -73 -43 -140h88c87 0 116 16 146 44c39 41 51 85 51 122c0 23 -3 37 -6 49h30c3 -14 5 -22 5 -48c0 -70 -36 -121 -57 -142c-47 -40 -78 -51 -173 -51h-261v26h143c9 16 48 58 48 139c0 78 -40 132 -112 189h-108
v26h83c-18 23 -39 64 -40 117c0 129 96 229 230 229c99 0 195 -61 224 -176h-30c-25 88 -101 150 -194 150c-117 -2 -197 -82 -201 -203c1 -32 10 -75 49 -117h263z" />
    <glyph glyph-name="currency" unicode="&#xa4;" horiz-adv-x="593" 
d="M33 113l77 77c-39 44 -62 102 -62 166s24 122 63 166l-78 79l20 20l78 -79c44 39 102 63 166 63c63 0 121 -24 165 -63l78 78l20 -20l-78 -78c40 -44 64 -102 64 -166s-24 -122 -63 -166l77 -76l-20 -20l-77 76c-44 -39 -102 -63 -166 -63s-123 24 -167 63l-77 -77z
M73 356c0 -123 101 -224 224 -224s224 101 224 224s-101 224 -224 224s-224 -101 -224 -224z" />
    <glyph glyph-name="yen" unicode="&#xa5;" 
d="M575 688h-97l-130 -293h142v-25h-153l-46 -104h199v-25h-208v-215h99v-26h-225v26h97v215h-210v25h201l-46 104h-155v25h144l-130 293h-96v26h225v-26h-97l179 -411l177 411h-95v26h225v-26z" />
    <glyph glyph-name="brokenbar" unicode="&#xa6;" horiz-adv-x="185" 
d="M106 354h-27v411h27v-411zM106 -235h-27v409h27v-409z" />
    <glyph glyph-name="section" unicode="&#xa7;" horiz-adv-x="554" 
d="M460 566h-27c-10 109 -75 132 -149 132c-87 0 -145 -53 -146 -131c2 -77 56 -103 98 -123l145 -68c25 -12 115 -53 115 -149c0 -62 -37 -118 -92 -150c59 -41 67 -90 67 -122c0 -98 -79 -170 -192 -170c-16 0 -205 0 -205 185v31h27v-30c1 -114 88 -158 177 -157
c99 0 163 53 166 141c-3 52 -24 88 -100 122l-188 87c-24 13 -98 44 -98 149c0 52 29 113 98 148c-18 16 -45 48 -45 103c0 103 76 163 173 163c104 0 176 -58 176 -161zM367 351l-191 91c-52 -25 -90 -69 -91 -132c1 -53 29 -94 74 -116l218 -100c35 14 91 66 92 131
c-1 78 -61 105 -102 126z" />
    <glyph glyph-name="dieresis" unicode="&#xa8;" 
d="M224 709v-112h-28v112h28zM340 709v-112h-28v112h28z" />
    <glyph glyph-name="copyright" unicode="&#xa9;" horiz-adv-x="773" 
d="M551 246h28c-30 -52 -98 -105 -184 -105c-118 0 -214 90 -214 213c0 125 96 214 214 214c66 0 114 -24 148 -58v52h25v-95h-22c-28 40 -79 76 -151 76c-104 0 -188 -80 -188 -189c0 -108 84 -188 188 -188c92 0 144 64 156 80zM386 725c211 0 368 -164 368 -368
c0 -209 -164 -368 -368 -368c-206 0 -369 157 -369 368c0 202 156 368 369 368zM386 700c-199 0 -342 -156 -342 -343c0 -192 149 -343 342 -343c191 0 341 149 341 343c0 188 -143 343 -341 343z" />
    <glyph glyph-name="ordfeminine" unicode="&#xaa;" horiz-adv-x="454" 
d="M348 398v80h-2c-7 -17 -21 -41 -57 -65c-36 -22 -72 -23 -89 -23c-105 0 -175 81 -175 169c0 93 76 168 175 168c41 0 82 -14 110 -40c15 -14 28 -31 36 -49h2v82h85v-23h-58v-276h58v-23h-85zM52 555c0 -62 53 -140 149 -140c88 0 147 68 147 143c0 81 -69 144 -148 144
c-73 0 -148 -53 -148 -147z" />
    <glyph glyph-name="guillemotleft" unicode="&#xab;" horiz-adv-x="339" 
d="M47 267l108 186l19 -25l-93 -161l93 -161l-19 -25zM155 267l108 186l18 -25l-93 -161l93 -161l-18 -25z" />
    <glyph glyph-name="logicalnot" unicode="&#xac;" 
d="M488 174h-27v216h-413v27h440v-243z" />
    <glyph glyph-name="uni00AD" unicode="&#xad;" horiz-adv-x="257" 
d="M0 289h257v-28h-257v28z" />
    <glyph glyph-name="registered" unicode="&#xae;" horiz-adv-x="773" 
d="M221 569h166c105 0 156 -50 156 -129c0 -69 -50 -125 -133 -128c32 -45 65 -89 97 -134h56v-25h-70l-132 184h40c75 0 116 44 116 102c0 57 -37 105 -130 105h-85v-366h57v-25h-138v25h55v366h-55v25zM386 725c211 0 368 -164 368 -368c0 -209 -164 -368 -368 -368
c-206 0 -369 157 -369 368c0 202 156 368 369 368zM386 700c-199 0 -342 -156 -342 -343c0 -192 149 -343 342 -343c191 0 341 149 341 343c0 188 -143 343 -341 343z" />
    <glyph glyph-name="macron" unicode="&#xaf;" 
d="M440 667v-29h-344v29h344z" />
    <glyph glyph-name="degree" unicode="&#xb0;" horiz-adv-x="386" 
d="M331 547c0 -78 -61 -138 -138 -138s-138 60 -138 138c0 77 61 138 138 138s138 -61 138 -138zM82 547c0 -62 48 -111 111 -111s111 49 111 111s-48 111 -111 111s-111 -49 -111 -111z" />
    <glyph glyph-name="plusminus" unicode="&#xb1;" 
d="M488 0h-441v27h441v-27zM488 314h-207v-210h-27v210h-207v27h207v210h27v-210h207v-27z" />
    <glyph glyph-name="twosuperior" unicode="&#xb2;" horiz-adv-x="346" 
d="M35 286v22l191 183c39 38 55 72 55 104c0 64 -36 103 -101 103c-66 0 -105 -47 -105 -118h-27c0 103 74 143 134 143c89 0 126 -63 126 -128c0 -49 -24 -82 -63 -121l-173 -164h216v82h23v-106h-276z" />
    <glyph glyph-name="threesuperior" unicode="&#xb3;" horiz-adv-x="338" 
d="M35 412h27c2 -85 65 -110 107 -110c68 0 107 44 107 106c0 58 -41 104 -116 104h-29v24h29c67 0 94 43 94 80c0 42 -29 80 -79 81c-49 1 -85 -34 -87 -81h-27c3 63 55 106 114 106c67 0 106 -51 106 -105c0 -44 -27 -76 -61 -92c50 -19 83 -61 83 -116
c0 -78 -56 -131 -134 -131c-65 0 -133 43 -134 134z" />
    <glyph glyph-name="acute" unicode="&#xb4;" 
d="M155 607l229 133l13 -22l-230 -134z" />
    <glyph glyph-name="mu" unicode="&#xb5;" horiz-adv-x="727" 
d="M463 512h133v-488h106v-24h-133v103h-2c-32 -79 -121 -117 -206 -116c-66 0 -119 16 -158 52c-20 18 -37 40 -48 65h-2l1 -299h-28v683h-106v24h133v-270c0 -89 25 -146 63 -181c40 -36 93 -48 145 -48c129 1 208 76 208 208v267h-106v24z" />
    <glyph glyph-name="paragraph" unicode="&#xb6;" horiz-adv-x="542" 
d="M111 -122v27h120v426h-19c-128 0 -200 90 -200 191c0 75 40 133 87 162c23 14 71 31 139 31h237v-27h-62v-783h120v-27h-149v808h-124v-808h-149z" />
    <glyph glyph-name="periodcentered" unicode="&#xb7;" horiz-adv-x="268" 
d="M149 286v-78h-29v78h29z" />
    <glyph glyph-name="cedilla" unicode="&#xb8;" 
d="M280 0l-25 -54l2 -1c2 1 7 3 13 3c45 0 69 -36 69 -69c0 -35 -23 -73 -70 -73c-13 0 -62 3 -72 60h26c9 -34 39 -34 46 -34c21 0 43 15 44 47c-1 26 -21 44 -44 44c-17 0 -30 -8 -40 -24l-21 4l44 97h28z" />
    <glyph glyph-name="onesuperior" unicode="&#xb9;" horiz-adv-x="269" 
d="M35 286v22h92v382h-92v24h119v-406h90v-22h-209z" />
    <glyph glyph-name="ordmasculine" unicode="&#xba;" horiz-adv-x="424" 
d="M43 555c0 98 72 171 168 172c101 0 171 -78 171 -168c0 -102 -85 -169 -171 -169c-91 0 -168 74 -168 165zM70 556c0 -75 62 -141 141 -141c75 0 143 60 144 144c-1 78 -60 143 -142 143c-76 0 -143 -57 -143 -146z" />
    <glyph glyph-name="guillemotright" unicode="&#xbb;" horiz-adv-x="339" 
d="M185 453l107 -186l-107 -186l-20 25l93 161l-93 161zM76 453l109 -186l-109 -186l-18 25l93 161l-93 161z" />
    <glyph glyph-name="onequarter" unicode="&#xbc;" horiz-adv-x="733" 
d="M536 0v23h64v84h-220v20l215 302h32v-298h81v-24h-81v-84h61v-23h-152zM599 394l-187 -263h188v262zM534 715l-319 -715h-28l318 715h29zM35 286v22h92v382h-92v24h119v-406h90v-22h-209z" />
    <glyph glyph-name="onehalf" unicode="&#xbd;" horiz-adv-x="761" 
d="M533 715l-319 -715h-28l318 715h29zM443 0v22l191 183c39 38 55 72 55 104c0 64 -36 103 -101 103c-66 0 -105 -47 -105 -118h-27c0 103 74 143 134 143c89 0 126 -63 126 -128c0 -49 -24 -82 -63 -121l-173 -164h216v82h23v-106h-276zM35 286v22h92v382h-92v24h119v-406
h90v-22h-209z" />
    <glyph glyph-name="threequarters" unicode="&#xbe;" horiz-adv-x="777" 
d="M572 715l-319 -715h-28l318 715h29zM580 0v23h64v84h-220v20l215 302h32v-298h81v-24h-81v-84h61v-23h-152zM643 394l-187 -263h188v262zM35 412h27c2 -85 65 -110 107 -110c68 0 107 44 107 106c0 58 -41 104 -116 104h-29v24h29c67 0 94 43 94 80c0 42 -29 80 -79 81
c-49 1 -85 -34 -87 -81h-27c3 63 55 106 114 106c67 0 106 -51 106 -105c0 -44 -27 -76 -61 -92c50 -19 83 -61 83 -116c0 -78 -56 -131 -134 -131c-65 0 -133 43 -134 134z" />
    <glyph glyph-name="questiondown" unicode="&#xbf;" horiz-adv-x="518" 
d="M254 352h29c-2 -63 -4 -125 -88 -205c-50 -52 -96 -87 -99 -161c0 -92 73 -171 174 -171c75 0 175 46 180 172h29c-7 -154 -132 -201 -208 -201c-107 0 -204 82 -204 202c0 78 61 134 115 186c73 72 72 134 72 178zM255 434v78h28v-78h-28z" />
    <glyph glyph-name="Agrave" unicode="&#xc0;" horiz-adv-x="795" 
d="M584 0v26h95l-96 222h-374l-96 -222h98v-26h-221v26h92l284 662h-124v26h173l295 -688h95v-26h-221zM395 687l-174 -413h349zM247 919l229 -133l-13 -23l-230 134z" />
    <glyph glyph-name="Aacute" unicode="&#xc1;" horiz-adv-x="795" 
d="M584 0v26h95l-96 222h-374l-96 -222h98v-26h-221v26h92l284 662h-124v26h173l295 -688h95v-26h-221zM395 687l-174 -413h349zM289 786l229 133l13 -22l-230 -134z" />
    <glyph glyph-name="Acircumflex" unicode="&#xc2;" horiz-adv-x="795" 
d="M584 0v26h95l-96 222h-374l-96 -222h98v-26h-221v26h92l284 662h-124v26h173l295 -688h95v-26h-221zM395 687l-174 -413h349zM382 902l189 -107l-25 -14l-164 91l-165 -91l-24 14z" />
    <glyph glyph-name="Atilde" unicode="&#xc3;" horiz-adv-x="795" 
d="M584 0v26h95l-96 222h-374l-96 -222h98v-26h-221v26h92l284 662h-124v26h173l295 -688h95v-26h-221zM395 687l-174 -413h349zM525 868l18 -18c-22 -18 -51 -37 -83 -40c-7 -1 -14 -1 -21 -1c-20 0 -41 4 -67 16c-36 13 -52 18 -69 18c-5 0 -10 0 -16 -1
c-33 -3 -58 -21 -72 -34l-18 16c20 19 45 39 90 44c6 1 12 1 18 1c16 0 35 -3 67 -14c29 -12 46 -18 68 -18c6 0 12 0 19 1c26 3 42 11 66 30z" />
    <glyph glyph-name="Adieresis" unicode="&#xc4;" horiz-adv-x="795" 
d="M584 0v26h95l-96 222h-374l-96 -222h98v-26h-221v26h92l284 662h-124v26h173l295 -688h95v-26h-221zM395 687l-174 -413h349zM348 888v-112h-28v112h28zM464 888v-112h-28v112h28z" />
    <glyph glyph-name="Aring" unicode="&#xc5;" horiz-adv-x="795" 
d="M584 0v26h95l-96 222h-374l-96 -222h98v-26h-221v26h92l284 662h-124v26h173l295 -688h95v-26h-221zM395 687l-174 -413h349zM394 906c49 0 88 -40 88 -88c0 -49 -39 -88 -88 -88s-88 39 -88 88s40 88 88 88zM394 880c-34 0 -61 -28 -61 -61s27 -61 61 -61s61 28 61 61
s-27 61 -61 61z" />
    <glyph glyph-name="AE" unicode="&#xc6;" horiz-adv-x="1007" 
d="M931 26v144h26v-170h-485v26h98v222h-307l-155 -222h98v-26h-224v26h92l465 662h-125v26h543v-170h-26v144h-332v-315h308v-26h-308v-321h332zM570 687l-289 -413h289v413z" />
    <glyph glyph-name="Ccedilla" unicode="&#xc7;" horiz-adv-x="754" 
d="M35 357c0 215 166 370 371 370c124 -1 212 -52 271 -117v106h26v-150h-25c-50 70 -142 134 -272 135c-190 0 -342 -146 -342 -344s152 -343 342 -343c167 0 258 114 279 142h33c-49 -83 -163 -169 -312 -169h-5l-20 -41l2 -1c2 1 7 3 13 3c45 0 69 -36 69 -69
c0 -35 -23 -73 -70 -73c-13 0 -62 3 -72 60h27c8 -34 38 -34 45 -34c21 0 43 15 44 47c-1 26 -21 44 -44 44c-16 0 -30 -8 -40 -24l-21 4l40 86c-190 15 -339 165 -339 368z" />
    <glyph glyph-name="Egrave" unicode="&#xc8;" horiz-adv-x="565" 
d="M489 26v144h26v-170h-485v26h98v662h-98v26h485v-170h-26v144h-332v-315h308v-26h-308v-321h332zM159 919l229 -133l-13 -23l-230 134z" />
    <glyph glyph-name="Eacute" unicode="&#xc9;" horiz-adv-x="565" 
d="M489 26v144h26v-170h-485v26h98v662h-98v26h485v-170h-26v144h-332v-315h308v-26h-308v-321h332zM181 786l229 133l13 -22l-230 -134z" />
    <glyph glyph-name="Ecircumflex" unicode="&#xca;" horiz-adv-x="565" 
d="M489 26v144h26v-170h-485v26h98v662h-98v26h485v-170h-26v144h-332v-315h308v-26h-308v-321h332zM284 902l189 -107l-25 -14l-164 91l-165 -91l-24 14z" />
    <glyph glyph-name="Edieresis" unicode="&#xcb;" horiz-adv-x="565" 
d="M489 26v144h26v-170h-485v26h98v662h-98v26h485v-170h-26v144h-332v-315h308v-26h-308v-321h332zM250 888v-112h-28v112h28zM366 888v-112h-28v112h28z" />
    <glyph glyph-name="Igrave" unicode="&#xcc;" horiz-adv-x="285" 
d="M255 688h-99v-662h99v-26h-225v26h97v662h-97v26h225v-26zM37 919l229 -133l-13 -23l-230 134z" />
    <glyph glyph-name="Iacute" unicode="&#xcd;" horiz-adv-x="285" 
d="M255 688h-99v-662h99v-26h-225v26h97v662h-97v26h225v-26zM16 786l229 133l13 -22l-230 -134z" />
    <glyph glyph-name="Icircumflex" unicode="&#xce;" horiz-adv-x="285" 
d="M255 688h-99v-662h99v-26h-225v26h97v662h-97v26h225v-26zM142 902l189 -107l-25 -14l-164 91l-165 -91l-24 14z" />
    <glyph glyph-name="Idieresis" unicode="&#xcf;" horiz-adv-x="285" 
d="M255 688h-99v-662h99v-26h-225v26h97v662h-97v26h225v-26zM98 888v-112h-28v112h28zM214 888v-112h-28v112h28z" />
    <glyph glyph-name="Eth" unicode="&#xd0;" horiz-adv-x="726" 
d="M128 26v321h-74v26h74v315h-98v26h275c264 0 386 -160 386 -357c0 -213 -141 -357 -386 -357h-275v26h98zM157 688v-315h243v-26h-243v-321h148c231 0 357 133 357 329c0 185 -115 333 -357 333h-148z" />
    <glyph glyph-name="Ntilde" unicode="&#xd1;" horiz-adv-x="811" 
d="M170 714l490 -675h2v649h-101v26h225v-26h-95v-688h-37l-497 686h-2v-660h100v-26h-225v26h96v662h-96v26h140zM550 868l18 -18c-22 -18 -51 -37 -83 -40c-7 -1 -14 -1 -21 -1c-20 0 -41 4 -67 16c-36 13 -52 18 -69 18c-5 0 -10 0 -16 -1c-33 -3 -58 -21 -72 -34l-18 16
c20 19 45 39 90 44c6 1 12 1 18 1c16 0 35 -3 67 -14c29 -12 46 -18 68 -18c6 0 12 0 19 1c26 3 42 11 66 30z" />
    <glyph glyph-name="Ograve" unicode="&#xd2;" horiz-adv-x="811" 
d="M35 357c0 215 166 370 371 370c204 0 370 -155 370 -370c0 -214 -166 -370 -370 -370c-205 0 -371 156 -371 370zM64 357c0 -198 152 -343 342 -343c189 0 342 145 342 343s-153 344 -342 344c-190 0 -342 -146 -342 -344zM307 919l229 -133l-13 -23l-230 134z" />
    <glyph glyph-name="Oacute" unicode="&#xd3;" horiz-adv-x="811" 
d="M35 357c0 215 166 370 371 370c204 0 370 -155 370 -370c0 -214 -166 -370 -370 -370c-205 0 -371 156 -371 370zM64 357c0 -198 152 -343 342 -343c189 0 342 145 342 343s-153 344 -342 344c-190 0 -342 -146 -342 -344zM298 786l229 133l13 -22l-230 -134z" />
    <glyph glyph-name="Ocircumflex" unicode="&#xd4;" horiz-adv-x="811" 
d="M35 357c0 215 166 370 371 370c204 0 370 -155 370 -370c0 -214 -166 -370 -370 -370c-205 0 -371 156 -371 370zM64 357c0 -198 152 -343 342 -343c189 0 342 145 342 343s-153 344 -342 344c-190 0 -342 -146 -342 -344zM411 902l189 -107l-25 -14l-164 91l-165 -91
l-24 14z" />
    <glyph glyph-name="Otilde" unicode="&#xd5;" horiz-adv-x="811" 
d="M35 357c0 215 166 370 371 370c204 0 370 -155 370 -370c0 -214 -166 -370 -370 -370c-205 0 -371 156 -371 370zM64 357c0 -198 152 -343 342 -343c189 0 342 145 342 343s-153 344 -342 344c-190 0 -342 -146 -342 -344zM564 868l18 -18c-22 -18 -51 -37 -83 -40
c-7 -1 -14 -1 -21 -1c-20 0 -41 4 -67 16c-36 13 -52 18 -69 18c-5 0 -10 0 -16 -1c-33 -3 -58 -21 -72 -34l-18 16c20 19 45 39 90 44c6 1 12 1 18 1c16 0 35 -3 67 -14c29 -12 46 -18 68 -18c6 0 12 0 19 1c26 3 42 11 66 30z" />
    <glyph glyph-name="Odieresis" unicode="&#xd6;" horiz-adv-x="811" 
d="M35 357c0 215 166 370 371 370c204 0 370 -155 370 -370c0 -214 -166 -370 -370 -370c-205 0 -371 156 -371 370zM64 357c0 -198 152 -343 342 -343c189 0 342 145 342 343s-153 344 -342 344c-190 0 -342 -146 -342 -344zM367 888v-112h-28v112h28zM483 888v-112h-28
v112h28z" />
    <glyph glyph-name="multiply" unicode="&#xd7;" 
d="M487 79l-20 -20l-200 199l-197 -199l-20 20l197 198l-199 201l21 20l198 -201l200 201l21 -19l-200 -202z" />
    <glyph glyph-name="Oslash" unicode="&#xd8;" horiz-adv-x="811" 
d="M195 84l406 558c-56 38 -123 59 -195 59c-190 0 -342 -146 -342 -344c0 -115 51 -212 131 -273zM624 625l-405 -556c54 -36 118 -55 187 -55c189 0 342 145 342 343c0 112 -49 207 -124 268zM617 665l85 116l23 -17l-85 -117c84 -67 136 -169 136 -290
c0 -214 -166 -370 -370 -370c-76 0 -146 22 -203 59l-95 -129l-22 17l93 128c-87 66 -144 171 -144 295c0 215 166 370 371 370c79 0 152 -23 211 -62z" />
    <glyph glyph-name="Ugrave" unicode="&#xd9;" horiz-adv-x="665" 
d="M650 688h-100v-437c1 -65 -2 -161 -86 -220c-37 -27 -84 -44 -133 -44s-96 17 -133 44c-84 59 -87 155 -86 220v437h-97v26h225v-26h-99v-437c0 -69 0 -114 45 -172c31 -40 90 -65 147 -65c54 0 113 25 144 65c44 58 44 103 44 172v437h-96v26h225v-26zM217 919l229 -133
l-13 -23l-230 134z" />
    <glyph glyph-name="Uacute" unicode="&#xda;" horiz-adv-x="665" 
d="M650 688h-100v-437c1 -65 -2 -161 -86 -220c-37 -27 -84 -44 -133 -44s-96 17 -133 44c-84 59 -87 155 -86 220v437h-97v26h225v-26h-99v-437c0 -69 0 -114 45 -172c31 -40 90 -65 147 -65c54 0 113 25 144 65c44 58 44 103 44 172v437h-96v26h225v-26zM212 786l229 133
l13 -22l-230 -134z" />
    <glyph glyph-name="Ucircumflex" unicode="&#xdb;" horiz-adv-x="665" 
d="M650 688h-100v-437c1 -65 -2 -161 -86 -220c-37 -27 -84 -44 -133 -44s-96 17 -133 44c-84 59 -87 155 -86 220v437h-97v26h225v-26h-99v-437c0 -69 0 -114 45 -172c31 -40 90 -65 147 -65c54 0 113 25 144 65c44 58 44 103 44 172v437h-96v26h225v-26zM332 902l189 -107
l-25 -14l-164 91l-165 -91l-24 14z" />
    <glyph glyph-name="Udieresis" unicode="&#xdc;" horiz-adv-x="665" 
d="M650 688h-100v-437c1 -65 -2 -161 -86 -220c-37 -27 -84 -44 -133 -44s-96 17 -133 44c-84 59 -87 155 -86 220v437h-97v26h225v-26h-99v-437c0 -69 0 -114 45 -172c31 -40 90 -65 147 -65c54 0 113 25 144 65c44 58 44 103 44 172v437h-96v26h225v-26zM288 888v-112h-28
v112h28zM404 888v-112h-28v112h28z" />
    <glyph glyph-name="Yacute" unicode="&#xdd;" horiz-adv-x="654" 
d="M664 688h-97l-226 -442v-220h99v-26h-225v26h97v220l-226 442h-96v26h225v-26h-97l209 -409l207 409h-95v26h225v-26zM225 786l229 133l13 -22l-230 -134z" />
    <glyph glyph-name="Thorn" unicode="&#xde;" horiz-adv-x="564" 
d="M156 585h137c85 0 131 -8 179 -43c42 -31 72 -95 72 -160s-30 -129 -72 -160c-48 -35 -96 -43 -179 -43h-137v-153h99v-26h-225v26h97v662h-97v26h126v-129zM156 559v-354h138c80 0 122 10 162 40c35 25 59 82 59 136c0 56 -24 113 -59 138c-40 30 -81 40 -162 40h-138z
" />
    <glyph glyph-name="germandbls" unicode="&#xdf;" horiz-adv-x="540" 
d="M241 12v33c33 -24 77 -32 108 -32c83 0 163 66 163 161c0 25 -4 87 -60 133c-30 21 -58 37 -146 38h-27v25h26c79 0 155 70 155 166c0 106 -66 165 -161 165c-48 0 -99 -24 -123 -61c-33 -48 -36 -93 -36 -184v-456h-127v23h100v433c0 110 9 155 38 194
c32 49 91 76 147 76c118 0 189 -78 189 -190c0 -40 -14 -133 -107 -171v-2c109 -14 159 -103 159 -184c0 -115 -95 -192 -193 -192c-33 0 -74 7 -105 25z" />
    <glyph glyph-name="agrave" unicode="&#xe0;" horiz-adv-x="687" 
d="M534 0v128h-2c-45 -87 -130 -141 -238 -141c-168 0 -269 131 -269 269c0 141 104 269 269 269c124 0 213 -77 238 -143h2v130h133v-24h-106v-464h106v-24h-133zM297 13c141 0 240 111 240 243c0 140 -106 243 -243 243c-133 0 -242 -99 -242 -243
c1 -116 80 -243 245 -243zM211 740l229 -133l-13 -23l-230 134z" />
    <glyph glyph-name="aacute" unicode="&#xe1;" horiz-adv-x="687" 
d="M534 0v128h-2c-45 -87 -130 -141 -238 -141c-168 0 -269 131 -269 269c0 141 104 269 269 269c124 0 213 -77 238 -143h2v130h133v-24h-106v-464h106v-24h-133zM297 13c141 0 240 111 240 243c0 140 -106 243 -243 243c-133 0 -242 -99 -242 -243
c1 -116 80 -243 245 -243zM208 607l229 133l13 -22l-230 -134z" />
    <glyph glyph-name="acircumflex" unicode="&#xe2;" horiz-adv-x="687" 
d="M534 0v128h-2c-45 -87 -130 -141 -238 -141c-168 0 -269 131 -269 269c0 141 104 269 269 269c124 0 213 -77 238 -143h2v130h133v-24h-106v-464h106v-24h-133zM297 13c141 0 240 111 240 243c0 140 -106 243 -243 243c-133 0 -242 -99 -242 -243
c1 -116 80 -243 245 -243zM326 723l189 -107l-25 -14l-164 91l-165 -91l-24 14z" />
    <glyph glyph-name="atilde" unicode="&#xe3;" horiz-adv-x="687" 
d="M534 0v128h-2c-45 -87 -130 -141 -238 -141c-168 0 -269 131 -269 269c0 141 104 269 269 269c124 0 213 -77 238 -143h2v130h133v-24h-106v-464h106v-24h-133zM297 13c141 0 240 111 240 243c0 140 -106 243 -243 243c-133 0 -242 -99 -242 -243
c1 -116 80 -243 245 -243zM479 680l18 -18c-22 -18 -51 -37 -83 -40c-7 -1 -14 -1 -21 -1c-20 0 -41 4 -67 16c-36 13 -52 18 -69 18c-5 0 -10 0 -16 -1c-33 -3 -58 -21 -72 -34l-18 16c20 19 45 39 90 44c6 1 12 1 18 1c16 0 35 -3 67 -14c29 -12 46 -18 68 -18
c6 0 12 0 19 1c26 3 42 11 66 30z" />
    <glyph glyph-name="adieresis" unicode="&#xe4;" horiz-adv-x="687" 
d="M534 0v128h-2c-45 -87 -130 -141 -238 -141c-168 0 -269 131 -269 269c0 141 104 269 269 269c124 0 213 -77 238 -143h2v130h133v-24h-106v-464h106v-24h-133zM297 13c141 0 240 111 240 243c0 140 -106 243 -243 243c-133 0 -242 -99 -242 -243
c1 -116 80 -243 245 -243zM282 709v-112h-28v112h28zM398 709v-112h-28v112h28z" />
    <glyph glyph-name="aring" unicode="&#xe5;" horiz-adv-x="687" 
d="M534 0v128h-2c-45 -87 -130 -141 -238 -141c-168 0 -269 131 -269 269c0 141 104 269 269 269c124 0 213 -77 238 -143h2v130h133v-24h-106v-464h106v-24h-133zM297 13c141 0 240 111 240 243c0 140 -106 243 -243 243c-133 0 -242 -99 -242 -243
c1 -116 80 -243 245 -243zM326 749c49 0 88 -40 88 -88c0 -49 -39 -88 -88 -88s-88 39 -88 88s40 88 88 88zM326 723c-34 0 -61 -28 -61 -61s27 -61 61 -61s61 28 61 61s-27 61 -61 61z" />
    <glyph glyph-name="ae" unicode="&#xe6;" horiz-adv-x="1089" 
d="M560 512v-149h2c7 19 11 31 19 45c66 102 152 117 211 117c168 0 265 -131 268 -272h-500c17 -198 168 -240 239 -240c106 0 177 71 214 135h32c-34 -75 -121 -161 -243 -161c-88 -1 -166 39 -215 112c-12 17 -19 34 -25 57h-2v-156h-27v156h-2c-7 -24 -13 -42 -25 -58
c-63 -93 -167 -110 -212 -111c-153 0 -269 115 -269 269v-1c0 154 116 270 267 270c86 0 169 -38 219 -118c10 -16 14 -30 20 -45h2v150h27zM561 278h469c-23 146 -116 221 -236 221c-55 0 -116 -14 -172 -79c-46 -51 -54 -96 -61 -142zM534 256c0 128 -107 243 -239 243
c-139 0 -243 -104 -243 -243s104 -243 243 -243c129 0 239 111 239 243z" />
    <glyph glyph-name="ccedilla" unicode="&#xe7;" horiz-adv-x="583" 
d="M537 512v-149h-26c-31 83 -108 137 -216 136c-72 -1 -120 -21 -173 -68c-41 -38 -70 -105 -70 -175c0 -145 112 -243 242 -243c116 1 199 72 224 148h30c-36 -104 -132 -172 -254 -174h-2l-19 -41l2 -1c2 1 7 3 12 3c46 0 70 -36 70 -69c0 -35 -23 -73 -71 -73
c-12 0 -61 3 -71 60h26c9 -34 39 -34 45 -34c22 0 44 15 45 47c-1 26 -21 44 -45 44c-16 0 -30 -8 -39 -24l-21 4l39 87c-135 12 -240 116 -240 265c0 152 114 270 269 270c102 0 175 -42 217 -105v92h26z" />
    <glyph glyph-name="egrave" unicode="&#xe8;" horiz-adv-x="593" 
d="M563 253h-510c2 -167 142 -241 242 -240c95 0 178 48 219 135h30c-48 -109 -146 -162 -250 -161c-156 0 -269 116 -269 269v-1c0 154 118 270 270 270c138 0 262 -99 269 -257zM54 278h482c-6 124 -121 226 -241 221c-126 0 -233 -91 -241 -221zM184 740l229 -133
l-13 -23l-230 134z" />
    <glyph glyph-name="eacute" unicode="&#xe9;" horiz-adv-x="593" 
d="M563 253h-510c2 -167 142 -241 242 -240c95 0 178 48 219 135h30c-48 -109 -146 -162 -250 -161c-156 0 -269 116 -269 269v-1c0 154 118 270 270 270c138 0 262 -99 269 -257zM54 278h482c-6 124 -121 226 -241 221c-126 0 -233 -91 -241 -221zM181 607l229 133l13 -22
l-230 -134z" />
    <glyph glyph-name="ecircumflex" unicode="&#xea;" horiz-adv-x="593" 
d="M563 253h-510c2 -167 142 -241 242 -240c95 0 178 48 219 135h30c-48 -109 -146 -162 -250 -161c-156 0 -269 116 -269 269v-1c0 154 118 270 270 270c138 0 262 -99 269 -257zM54 278h482c-6 124 -121 226 -241 221c-126 0 -233 -91 -241 -221zM299 723l189 -107
l-25 -14l-164 91l-165 -91l-24 14z" />
    <glyph glyph-name="edieresis" unicode="&#xeb;" horiz-adv-x="593" 
d="M563 253h-510c2 -167 142 -241 242 -240c95 0 178 48 219 135h30c-48 -109 -146 -162 -250 -161c-156 0 -269 116 -269 269v-1c0 154 118 270 270 270c138 0 262 -99 269 -257zM54 278h482c-6 124 -121 226 -241 221c-126 0 -233 -91 -241 -221zM250 709v-112h-28v112h28
zM366 709v-112h-28v112h28z" />
    <glyph glyph-name="igrave" unicode="&#xec;" horiz-adv-x="273" 
d="M25 487v24h133v-487h105v-24h-238v24h106v463h-106zM5 740l229 -133l-13 -23l-230 134z" />
    <glyph glyph-name="iacute" unicode="&#xed;" horiz-adv-x="273" 
d="M25 487v24h133v-487h105v-24h-238v24h106v463h-106zM16 607l229 133l13 -22l-230 -134z" />
    <glyph glyph-name="icircumflex" unicode="&#xee;" horiz-adv-x="273" 
d="M25 487v24h133v-487h105v-24h-238v24h106v463h-106zM129 723l189 -107l-25 -14l-164 91l-165 -91l-24 14z" />
    <glyph glyph-name="idieresis" unicode="&#xef;" horiz-adv-x="273" 
d="M25 487v24h133v-487h105v-24h-238v24h106v463h-106zM95 709v-112h-28v112h28zM211 709v-112h-28v112h28z" />
    <glyph glyph-name="eth" unicode="&#xf0;" horiz-adv-x="589" 
d="M52 256c-1 -139 103 -243 242 -243c141 0 244 106 244 244c0 142 -118 242 -242 242c-141 -1 -245 -105 -244 -243zM293 652l-195 -94l-15 19l181 90c-45 20 -115 35 -170 41l15 23c68 -10 140 -28 186 -50l152 72l15 -19l-138 -67c144 -83 241 -227 241 -410
c0 -174 -140 -267 -271 -270c-136 0 -267 92 -269 268c3 162 116 267 270 270c107 0 174 -55 214 -111l2 2c-36 100 -131 198 -218 236z" />
    <glyph glyph-name="ntilde" unicode="&#xf1;" horiz-adv-x="724" 
d="M25 488v24h133v-99h2c32 75 125 113 206 112c66 0 120 -18 160 -52c51 -42 75 -111 75 -203v-246h105v-24h-238v24h106v246c0 89 -24 146 -63 181c-40 36 -93 48 -145 48c-128 -2 -208 -76 -208 -204v-271h105v-24h-238v24h106v464h-106zM507 680l18 -18
c-22 -18 -51 -37 -83 -40c-7 -1 -14 -1 -21 -1c-20 0 -41 4 -67 16c-36 13 -52 18 -69 18c-5 0 -10 0 -16 -1c-33 -3 -58 -21 -72 -34l-18 16c20 19 45 39 90 44c6 1 12 1 18 1c16 0 35 -3 67 -14c29 -12 46 -18 68 -18c6 0 12 0 19 1c26 3 42 11 66 30z" />
    <glyph glyph-name="ograve" unicode="&#xf2;" horiz-adv-x="589" 
d="M25 256c0 153 116 269 269 269c154 0 270 -116 270 -269c0 -154 -116 -269 -270 -269c-153 0 -269 115 -269 269zM52 256c0 -139 104 -243 242 -243s243 104 243 243s-105 243 -243 243s-242 -104 -242 -243zM195 740l229 -133l-13 -23l-230 134z" />
    <glyph glyph-name="oacute" unicode="&#xf3;" horiz-adv-x="589" 
d="M25 256c0 153 116 269 269 269c154 0 270 -116 270 -269c0 -154 -116 -269 -270 -269c-153 0 -269 115 -269 269zM52 256c0 -139 104 -243 242 -243s243 104 243 243s-105 243 -243 243s-242 -104 -242 -243zM192 607l229 133l13 -22l-230 -134z" />
    <glyph glyph-name="ocircumflex" unicode="&#xf4;" horiz-adv-x="589" 
d="M25 256c0 153 116 269 269 269c154 0 270 -116 270 -269c0 -154 -116 -269 -270 -269c-153 0 -269 115 -269 269zM52 256c0 -139 104 -243 242 -243s243 104 243 243s-105 243 -243 243s-242 -104 -242 -243zM290 723l189 -107l-25 -14l-164 91l-165 -91l-24 14z" />
    <glyph glyph-name="otilde" unicode="&#xf5;" horiz-adv-x="589" 
d="M25 256c0 153 116 269 269 269c154 0 270 -116 270 -269c0 -154 -116 -269 -270 -269c-153 0 -269 115 -269 269zM52 256c0 -139 104 -243 242 -243s243 104 243 243s-105 243 -243 243s-242 -104 -242 -243zM463 680l18 -18c-22 -18 -51 -37 -83 -40
c-7 -1 -14 -1 -21 -1c-20 0 -41 4 -67 16c-36 13 -52 18 -69 18c-5 0 -10 0 -16 -1c-33 -3 -58 -21 -72 -34l-18 16c20 19 45 39 90 44c6 1 12 1 18 1c16 0 35 -3 67 -14c29 -12 46 -18 68 -18c6 0 12 0 19 1c26 3 42 11 66 30z" />
    <glyph glyph-name="odieresis" unicode="&#xf6;" horiz-adv-x="589" 
d="M25 256c0 153 116 269 269 269c154 0 270 -116 270 -269c0 -154 -116 -269 -270 -269c-153 0 -269 115 -269 269zM52 256c0 -139 104 -243 242 -243s243 104 243 243s-105 243 -243 243s-242 -104 -242 -243zM247 709v-112h-28v112h28zM363 709v-112h-28v112h28z" />
    <glyph glyph-name="divide" unicode="&#xf7;" 
d="M299 458c0 -16 -12 -31 -30 -31c-17 0 -31 14 -31 31c0 18 14 30 31 30c16 0 30 -13 30 -30zM488 276h-440v27h440v-27zM299 123c0 -16 -12 -31 -30 -31c-17 0 -31 14 -31 31s14 29 31 29c16 0 30 -12 30 -29z" />
    <glyph glyph-name="oslash" unicode="&#xf8;" horiz-adv-x="589" 
d="M52 256c0 -78 33 -147 88 -190l286 395c-37 25 -82 38 -132 38c-138 0 -242 -104 -242 -243zM537 256c0 78 -33 146 -88 190l-288 -396c38 -24 84 -37 133 -37c138 0 243 104 243 243zM25 256c0 153 116 269 269 269c56 0 107 -16 148 -43l60 83l20 -16l-58 -81
c62 -51 100 -125 100 -212c0 -154 -116 -269 -270 -269c-56 0 -106 16 -148 43l-58 -80l-21 16l58 79c-62 48 -100 123 -100 211z" />
    <glyph glyph-name="ugrave" unicode="&#xf9;" horiz-adv-x="727" 
d="M463 512h133v-488h106v-24h-133v103h-2c-32 -79 -121 -117 -206 -116c-66 0 -120 18 -160 52c-51 42 -75 111 -75 203v246h-106v24h133v-270c0 -89 25 -146 63 -181c40 -36 93 -48 145 -48c129 1 208 76 208 208v267h-106v24zM245 740l229 -133l-13 -23l-230 134z" />
    <glyph glyph-name="uacute" unicode="&#xfa;" horiz-adv-x="727" 
d="M463 512h133v-488h106v-24h-133v103h-2c-32 -79 -121 -117 -206 -116c-66 0 -120 18 -160 52c-51 42 -75 111 -75 203v246h-106v24h133v-270c0 -89 25 -146 63 -181c40 -36 93 -48 145 -48c129 1 208 76 208 208v267h-106v24zM227 607l229 133l13 -22l-230 -134z" />
    <glyph glyph-name="ucircumflex" unicode="&#xfb;" horiz-adv-x="727" 
d="M463 512h133v-488h106v-24h-133v103h-2c-32 -79 -121 -117 -206 -116c-66 0 -120 18 -160 52c-51 42 -75 111 -75 203v246h-106v24h133v-270c0 -89 25 -146 63 -181c40 -36 93 -48 145 -48c129 1 208 76 208 208v267h-106v24zM340 723l189 -107l-25 -14l-164 91l-165 -91
l-24 14z" />
    <glyph glyph-name="udieresis" unicode="&#xfc;" horiz-adv-x="727" 
d="M463 512h133v-488h106v-24h-133v103h-2c-32 -79 -121 -117 -206 -116c-66 0 -120 18 -160 52c-51 42 -75 111 -75 203v246h-106v24h133v-270c0 -89 25 -146 63 -181c40 -36 93 -48 145 -48c129 1 208 76 208 208v267h-106v24zM296 709v-112h-28v112h28zM412 709v-112h-28
v112h28z" />
    <glyph glyph-name="yacute" unicode="&#xfd;" horiz-adv-x="629" 
d="M106 -206v24h104l80 183l-193 487h-102v24h238v-24h-106l180 -450l192 450h-103v24h238v-24h-104l-289 -670h103v-24h-238zM204 607l229 133l13 -22l-230 -134z" />
    <glyph glyph-name="thorn" unicode="&#xfe;" horiz-adv-x="687" 
d="M20 690v24h133v-330h2c45 87 130 141 238 141c168 0 269 -131 269 -269c0 -141 -104 -269 -269 -269c-124 0 -213 77 -238 143h-2v-312h105v-24h-238v24h106v872h-106zM390 499c-141 0 -240 -111 -240 -243c0 -140 106 -243 243 -243c133 0 242 99 242 243
c-1 116 -80 243 -245 243z" />
    <glyph glyph-name="ydieresis" unicode="&#xff;" horiz-adv-x="629" 
d="M106 -206v24h104l80 183l-193 487h-102v24h238v-24h-106l180 -450l192 450h-103v24h238v-24h-104l-289 -670h103v-24h-238zM270 709v-112h-28v112h28zM386 709v-112h-28v112h28z" />
    <glyph glyph-name="dotlessi" unicode="&#x131;" horiz-adv-x="273" 
d="M25 487v24h133v-487h105v-24h-238v24h106v463h-106z" />
    <glyph glyph-name="Lslash" unicode="&#x141;" horiz-adv-x="473" 
d="M458 0h-428v26h96v301l-78 -57v34l78 57v327h-96v26h225v-26h-100v-305l152 112v-34l-152 -112v-323h277v144h26v-170z" />
    <glyph glyph-name="lslash" unicode="&#x142;" horiz-adv-x="276" 
d="M20 690v24h133v-297l90 65v-28l-90 -66v-364h105v-24h-238v24h106v345l-82 -58v29l82 57v293h-106z" />
    <glyph glyph-name="OE" unicode="&#x152;" horiz-adv-x="1178" 
d="M1102 26v144h26v-170h-485v26h98v195h-2c-40 -130 -176 -234 -336 -234c-206 0 -368 152 -368 370c0 219 162 370 364 370c163 0 295 -98 340 -233h2v194h-98v26h485v-170h-26v144h-332v-315h308v-26h-308v-321h332zM64 357c0 -201 148 -343 337 -343
c215 0 335 175 340 334v21c-4 151 -119 332 -340 332c-189 0 -337 -142 -337 -344z" />
    <glyph glyph-name="oe" unicode="&#x153;" horiz-adv-x="1092" 
d="M1063 254h-500c7 -163 126 -241 238 -241c86 0 179 44 212 137h30c-15 -34 -35 -81 -96 -122c-49 -29 -97 -41 -146 -41c-82 0 -213 48 -251 185h-2c-56 -141 -165 -185 -254 -185c-153 0 -269 115 -269 269v-1c0 154 116 270 269 270c81 0 155 -37 204 -96
c28 -37 40 -66 48 -92l2 4c50 147 176 180 249 180c154 0 266 -126 266 -267zM534 254c0 117 -93 245 -240 245c-138 0 -242 -104 -242 -243s104 -243 242 -243c140 0 240 119 240 241zM564 279h467c-4 79 -77 217 -235 217c-120 0 -218 -90 -232 -217z" />
    <glyph glyph-name="Scaron" unicode="&#x160;" horiz-adv-x="500" 
d="M50 173h25c27 -137 123 -159 178 -159c90 0 178 67 178 170c0 131 -116 160 -185 178c-62 16 -193 44 -193 178c-3 119 91 186 194 186c59 0 118 -25 152 -80v68h26v-148h-25c-12 51 -40 134 -155 134c-91 0 -163 -61 -163 -155c-1 -113 100 -139 198 -164
c35 -10 180 -38 180 -194c0 -117 -100 -200 -206 -200c-85 0 -145 42 -178 108v-95h-26v173zM252 781l-190 106l25 15l165 -91l164 91l24 -14z" />
    <glyph glyph-name="scaron" unicode="&#x161;" horiz-adv-x="412" 
d="M319 390v6c-4 74 -63 103 -120 103c-81 0 -121 -51 -121 -105c0 -56 30 -82 126 -107c99 -26 167 -56 167 -155c0 -75 -65 -145 -163 -145c-71 0 -118 30 -144 71v-58h-26v142h27c1 -82 68 -129 143 -129c81 0 136 53 136 119c0 67 -36 102 -141 128
c-92 23 -152 50 -152 132c0 85 73 133 149 133c56 0 95 -21 119 -55v42h26v-122h-26zM207 602l-190 106l25 15l165 -91l164 91l24 -14z" />
    <glyph glyph-name="Ydieresis" unicode="&#x178;" horiz-adv-x="654" 
d="M664 688h-97l-226 -442v-220h99v-26h-225v26h97v220l-226 442h-96v26h225v-26h-97l209 -409l207 409h-95v26h225v-26zM282 888v-112h-28v112h28zM398 888v-112h-28v112h28z" />
    <glyph glyph-name="Zcaron" unicode="&#x17d;" horiz-adv-x="491" 
d="M26 714h440l-399 -688h383v146h26v-172h-457l400 688h-367v-146h-26v172zM237 781l-190 106l25 15l165 -91l164 91l24 -14z" />
    <glyph glyph-name="zcaron" unicode="&#x17e;" horiz-adv-x="416" 
d="M22 0v23l317 464h-278v-124h-26v149h339v-26l-318 -461h314v124h26v-149h-374zM198 602l-190 106l25 15l165 -91l164 91l24 -14z" />
    <glyph glyph-name="florin" unicode="&#x192;" 
d="M344 543h136l-7 -26h-133l-91 -481c-21 -106 -54 -183 -177 -183c-19 0 -38 2 -58 8l6 27c16 -4 29 -9 52 -9c86 0 125 41 146 151l92 487h-139l6 26h137l10 49c13 78 30 120 67 155c30 24 70 38 106 38c13 0 19 -1 27 -3l-6 -25c-7 1 -12 2 -23 2
c-38 -3 -66 -13 -87 -34c-39 -38 -47 -97 -55 -133z" />
    <glyph glyph-name="circumflex" unicode="&#x2c6;" 
d="M268 723l189 -107l-25 -14l-164 91l-165 -91l-24 14z" />
    <glyph glyph-name="caron" unicode="&#x2c7;" 
d="M269 602l-190 106l25 15l165 -91l164 91l24 -14z" />
    <glyph glyph-name="uni02C9" unicode="&#x2c9;" 
d="M440 667v-29h-344v29h344z" />
    <glyph glyph-name="breve" unicode="&#x2d8;" 
d="M83 692h37c16 -24 46 -52 148 -52c111 0 135 33 148 52h37c-17 -29 -47 -80 -185 -80c-76 0 -148 14 -185 80z" />
    <glyph glyph-name="dotaccent" unicode="&#x2d9;" 
d="M283 709v-112h-30v112h30z" />
    <glyph glyph-name="ring" unicode="&#x2da;" 
d="M268 751c49 0 88 -40 88 -88c0 -49 -39 -88 -88 -88s-88 39 -88 88s40 88 88 88zM268 725c-34 0 -61 -28 -61 -61s27 -61 61 -61s61 28 61 61s-27 61 -61 61z" />
    <glyph glyph-name="ogonek" unicode="&#x2db;" 
d="M275 0h28c-58 -43 -83 -61 -83 -102c0 -42 33 -69 71 -69c20 0 36 6 54 13v-28c-11 -6 -23 -13 -54 -13c-61 0 -101 38 -101 94c0 64 57 92 85 105z" />
    <glyph glyph-name="tilde" unicode="&#x2dc;" 
d="M421 680l18 -18c-22 -18 -51 -37 -83 -40c-7 -1 -14 -1 -21 -1c-20 0 -41 4 -67 16c-36 13 -52 18 -69 18c-5 0 -10 0 -16 -1c-33 -3 -58 -21 -72 -34l-18 16c20 19 45 39 90 44c6 1 12 1 18 1c16 0 35 -3 67 -14c29 -12 46 -18 68 -18c6 0 12 0 19 1c26 3 42 11 66 30z
" />
    <glyph glyph-name="hungarumlaut" unicode="&#x2dd;" 
d="M139 607l218 154l16 -21l-218 -156zM246 607l219 154l15 -21l-218 -156z" />
    <glyph glyph-name="uni03A9" unicode="&#x3a9;" horiz-adv-x="736" 
d="M684 0h-220v33c68 53 184 155 184 345c0 168 -95 302 -278 302c-165 0 -283 -125 -283 -299c0 -186 109 -289 186 -348v-33h-220v33h166c-68 53 -167 163 -167 346c0 191 131 333 318 333c197 0 313 -136 313 -332c0 -167 -95 -290 -168 -347h169v-33z" />
    <glyph glyph-name="uni03BC" unicode="&#x3bc;" horiz-adv-x="727" 
d="M463 512h133v-488h106v-24h-133v103h-2c-32 -79 -121 -117 -206 -116c-66 0 -119 16 -158 52c-20 18 -37 40 -48 65h-2l1 -299h-28v683h-106v24h133v-270c0 -89 25 -146 63 -181c40 -36 93 -48 145 -48c129 1 208 76 208 208v267h-106v24z" />
    <glyph glyph-name="pi" unicode="&#x3c0;" horiz-adv-x="695" 
d="M619 35l10 -31c-12 -6 -32 -10 -48 -10c-70 0 -104 46 -104 116v355h-262v-342c0 -46 -6 -92 -12 -123h-38c9 35 13 83 13 122v343c-34 0 -84 -10 -114 -22c-5 11 -9 21 -13 33c26 11 77 24 134 24h446v-35h-118v-354c0 -51 22 -82 73 -82c9 0 22 2 33 6z" />
    <glyph glyph-name="endash" unicode="&#x2013;" horiz-adv-x="483" 
d="M34 281h415v-28h-415v28z" />
    <glyph glyph-name="emdash" unicode="&#x2014;" horiz-adv-x="966" 
d="M34 281h898v-28h-898v28z" />
    <glyph glyph-name="quoteleft" unicode="&#x2018;" horiz-adv-x="268" 
d="M119 715l62 -149h-32l-62 149h32z" />
    <glyph glyph-name="quoteright" unicode="&#x2019;" horiz-adv-x="268" 
d="M87 566l62 149h32l-62 -149h-32z" />
    <glyph glyph-name="quotesinglbase" unicode="&#x201a;" horiz-adv-x="268" 
d="M87 -70l62 149h32l-62 -149h-32z" />
    <glyph glyph-name="quotedblleft" unicode="&#x201c;" horiz-adv-x="357" 
d="M121 715l62 -149h-32l-62 149h32zM207 715l62 -149h-32l-62 149h32z" />
    <glyph glyph-name="quotedblright" unicode="&#x201d;" horiz-adv-x="357" 
d="M175 566l62 149h32l-62 -149h-32zM89 566l62 149h32l-62 -149h-32z" />
    <glyph glyph-name="quotedblbase" unicode="&#x201e;" horiz-adv-x="357" 
d="M175 -70l62 149h32l-62 -149h-32zM89 -70l62 149h32l-62 -149h-32z" />
    <glyph glyph-name="dagger" unicode="&#x2020;" horiz-adv-x="554" 
d="M291 715v-207h183v-29h-183v-576h-29v576h-182v29h182v207h29z" />
    <glyph glyph-name="daggerdbl" unicode="&#x2021;" horiz-adv-x="554" 
d="M293 715v-179h181v-29h-181v-396h181v-29h-181v-179h-29v179h-184v29h184v396h-184v29h184v179h29z" />
    <glyph glyph-name="bullet" unicode="&#x2022;" horiz-adv-x="362" 
d="M183 514c80 0 145 -68 145 -150c0 -83 -66 -150 -146 -150c-83 0 -148 69 -148 150c0 79 63 150 149 150z" />
    <glyph glyph-name="ellipsis" unicode="&#x2026;" horiz-adv-x="966" 
d="M176 79v-79h-29v79h29zM497 79v-79h-28v79h28zM819 79v-79h-29v79h29z" />
    <glyph glyph-name="perthousand" unicode="&#x2030;" horiz-adv-x="1220" 
d="M591 715l-321 -715h-29l322 715h28zM892 138v148c0 132 111 151 145 151c80 0 148 -58 148 -146v-153c0 -117 -106 -146 -145 -146c-54 0 -148 35 -148 146zM916 285v-144c0 -79 59 -122 123 -122c43 0 121 27 121 122v147c0 59 -36 123 -123 123
c-64 0 -121 -43 -121 -126zM35 423v148c0 132 111 151 145 151c80 0 148 -58 148 -146v-153c0 -117 -106 -146 -145 -146c-54 0 -148 35 -148 146zM59 570v-144c0 -79 59 -122 123 -122c43 0 121 27 121 122v147c0 59 -36 123 -123 123c-64 0 -121 -43 -121 -126zM507 138
v148c0 132 111 151 145 151c80 0 148 -58 148 -146v-153c0 -117 -106 -146 -145 -146c-54 0 -148 35 -148 146zM531 285v-144c0 -79 59 -122 123 -122c43 0 121 27 121 122v147c0 59 -36 123 -123 123c-64 0 -121 -43 -121 -126z" />
    <glyph glyph-name="guilsinglleft" unicode="&#x2039;" horiz-adv-x="240" 
d="M51 266l107 187l20 -25l-93 -162l93 -160l-20 -25z" />
    <glyph glyph-name="guilsinglright" unicode="&#x203a;" horiz-adv-x="240" 
d="M81 453l107 -187l-107 -185l-19 25l93 160l-93 162z" />
    <glyph glyph-name="fraction" unicode="&#x2044;" horiz-adv-x="83" 
d="M214 715l-318 -715h-28l317 715h29z" />
    <glyph glyph-name="Euro" unicode="&#x20ac;" 
d="M405 312l-5 -25h-265c4 -77 17 -163 57 -216c28 -36 72 -57 134 -57c54 0 94 15 121 42c23 23 35 55 42 91h29c-8 -47 -26 -86 -53 -112c-32 -31 -78 -48 -140 -48c-75 0 -123 27 -157 69c-45 57 -59 153 -63 231h-79l5 25h73v37c0 22 0 44 1 67h-79l5 25h75
c4 73 18 147 54 203c38 57 88 83 166 83c82 0 135 -32 162 -86v73h27v-149h-28c-6 38 -21 72 -47 96c-26 25 -65 40 -115 40c-69 0 -113 -30 -141 -73c-34 -52 -45 -120 -49 -187h294l-5 -25h-290c-1 -20 -1 -39 -1 -58c0 -14 1 -30 1 -46h271z" />
    <glyph glyph-name="litre" unicode="&#x2113;" horiz-adv-x="512" 
d="M417 61c-23 -27 -67 -73 -131 -73c-32 0 -57 12 -73 30c-21 22 -32 57 -32 106v144c-22 -24 -44 -49 -66 -73c-9 8 -19 16 -29 24c32 36 64 72 95 108v248c0 102 40 153 102 153c65 0 85 -58 85 -94c0 -94 -47 -178 -111 -265c-11 -14 -27 -36 -37 -48v-207
c0 -62 28 -91 70 -91c43 0 78 34 102 61c9 -8 17 -15 25 -23zM324 629c0 35 -14 64 -43 64c-39 0 -61 -35 -61 -128v-181c8 11 21 28 28 38c46 72 76 145 76 207z" />
    <glyph glyph-name="trademark" unicode="&#x2122;" horiz-adv-x="956" 
d="M354 692v23h100l181 -388l182 388h99v-23h-64v-383h61v-23h-151v23h63v368h-2l-180 -391h-16l-181 390h-2v-367h61v-23h-151v23h64v383h-64zM96 286v23h62v383h-117v-90h-22l1 113h305v-113h-21v90h-119v-383h62v-23h-151z" />
    <glyph glyph-name="Omega" unicode="&#x2126;" horiz-adv-x="736" 
d="M684 0h-220v33c68 53 184 155 184 345c0 168 -95 302 -278 302c-165 0 -283 -125 -283 -299c0 -186 109 -289 186 -348v-33h-220v33h166c-68 53 -167 163 -167 346c0 191 131 333 318 333c197 0 313 -136 313 -332c0 -167 -95 -290 -168 -347h169v-33z" />
    <glyph glyph-name="estimated" unicode="&#x212e;" horiz-adv-x="676" 
d="M646 309h-476v-213c46 -45 103 -69 169 -69c114 0 179 58 230 140c12 -7 25 -15 37 -22c-62 -94 -134 -157 -267 -157c-183 0 -301 145 -301 322c0 178 115 321 304 321c190 0 301 -145 304 -322zM511 348v175c-43 42 -105 70 -170 70c-67 0 -126 -23 -171 -69v-176h341z
" />
    <glyph glyph-name="partialdiff" unicode="&#x2202;" horiz-adv-x="602" 
d="M536 497c0 -59 -9 -126 -26 -194c-38 -141 -129 -313 -284 -313c-98 0 -166 70 -166 183c0 196 144 329 278 329c84 0 134 -44 153 -88h2c3 22 6 48 6 79c0 128 -59 197 -160 197c-33 0 -73 -11 -103 -29c-6 10 -10 21 -16 31c22 14 73 32 123 32c112 0 193 -76 193 -227
zM485 358c-16 58 -64 109 -151 109c-125 0 -237 -125 -237 -293c0 -91 53 -150 131 -150c114 0 213 124 257 334z" />
    <glyph glyph-name="Delta" unicode="&#x2206;" horiz-adv-x="641" 
d="M602 0h-568v26c89 225 179 449 268 674h32c90 -225 178 -449 268 -674v-26zM556 35c-73 187 -147 375 -221 563c-8 21 -10 35 -16 52h-2c-4 -16 -10 -36 -17 -52c-73 -188 -147 -375 -221 -563h477z" />
    <glyph glyph-name="product" unicode="&#x220f;" horiz-adv-x="752" 
d="M653 -230h-36v898h-481v-898h-37v930h554v-930z" />
    <glyph glyph-name="summation" unicode="&#x2211;" horiz-adv-x="658" 
d="M636 -230h-615v11c128 153 255 305 384 458c-119 148 -237 296 -356 444v17h558v-33h-499c114 -143 229 -285 343 -428c-122 -145 -244 -290 -365 -436h550v-33z" />
    <glyph glyph-name="minus" unicode="&#x2212;" 
d="M488 276h-441v27h441v-27z" />
    <glyph glyph-name="uni2215" unicode="&#x2215;" horiz-adv-x="83" 
d="M214 715l-318 -715h-28l317 715h29z" />
    <glyph glyph-name="uni2219" unicode="&#x2219;" horiz-adv-x="268" 
d="M149 286v-78h-29v78h29z" />
    <glyph glyph-name="radical" unicode="&#x221a;" horiz-adv-x="548" 
d="M545 728c-74 -247 -146 -493 -219 -740h-33c-54 123 -107 246 -161 369c-18 -11 -37 -22 -56 -33c-5 10 -9 21 -14 31c30 16 61 34 91 50c52 -117 103 -234 155 -351c66 225 132 450 197 674h40z" />
    <glyph glyph-name="infinity" unicode="&#x221e;" horiz-adv-x="822" 
d="M764 295c0 -82 -54 -158 -157 -158c-89 0 -155 59 -195 123h-2c-47 -71 -115 -123 -191 -123c-107 0 -161 71 -161 152c0 88 54 159 157 159c93 0 155 -61 196 -123h2c36 55 101 123 189 123c95 0 162 -58 162 -153zM724 293c0 65 -35 120 -118 120
c-76 0 -131 -53 -176 -120c47 -77 111 -121 174 -121c86 0 120 58 120 121zM393 293c-44 73 -115 120 -176 120c-84 0 -118 -57 -118 -124c0 -70 51 -117 117 -117c72 0 133 54 177 121z" />
    <glyph glyph-name="integral" unicode="&#x222b;" horiz-adv-x="509" 
d="M424 703c-10 5 -31 11 -51 11c-68 0 -99 -44 -99 -113v-682c0 -98 -59 -145 -136 -145c-20 0 -48 5 -61 11c3 11 6 22 10 33c13 -5 30 -10 52 -10c66 0 98 40 98 113v684c0 90 55 143 137 143c22 0 49 -6 60 -12c-3 -11 -7 -22 -10 -33z" />
    <glyph glyph-name="approxequal" unicode="&#x2248;" 
d="M494 419c-25 -36 -64 -78 -127 -78c-41 0 -77 17 -106 36c-28 18 -61 36 -95 36c-37 0 -75 -24 -104 -68l-20 16c30 41 66 79 126 79c42 0 80 -18 106 -36c33 -21 63 -36 95 -36c39 0 77 25 105 67zM494 220c-25 -37 -64 -78 -127 -78c-41 0 -77 17 -106 36
c-28 18 -61 35 -95 35c-37 0 -75 -23 -104 -67l-20 17c30 41 66 77 126 77c42 0 80 -17 106 -35c33 -21 63 -36 95 -36c39 0 77 24 105 67z" />
    <glyph glyph-name="notequal" unicode="&#x2260;" 
d="M488 176h-266l-75 -157h-27l77 157h-150v27h163l83 174h-246v27h259l72 150h26l-73 -150h157v-27h-170l-83 -174h253v-27z" />
    <glyph glyph-name="lessequal" unicode="&#x2264;" 
d="M488 0h-441v27h441v-27zM488 123l-441 216v-3l441 216v-33l-374 -179v-3l374 -180v-34z" />
    <glyph glyph-name="greaterequal" unicode="&#x2265;" 
d="M488 0h-441v27h441v-27zM488 339l-441 -216v34l373 178v3l-373 180v34l441 -216v3z" />
    <glyph glyph-name="lozenge" unicode="&#x25ca;" horiz-adv-x="588" 
d="M531 350c-74 -117 -148 -233 -223 -350h-25c-74 116 -149 233 -223 349c74 117 149 234 223 351h25c75 -117 149 -233 223 -350zM486 349c-63 100 -127 200 -190 299c-64 -99 -128 -199 -191 -299c63 -99 126 -198 190 -298c64 100 127 199 191 298z" />
    </font>
</defs>
</svg>
